G04 #@! TF.GenerationSoftware,KiCad,Pcbnew,(5.1.5)-3*
G04 #@! TF.CreationDate,2020-03-04T17:46:10+00:00*
G04 #@! TF.ProjectId,test pieces,74657374-2070-4696-9563-65732e6b6963,rev?*
G04 #@! TF.SameCoordinates,Original*
G04 #@! TF.FileFunction,Soldermask,Top*
G04 #@! TF.FilePolarity,Negative*
%FSLAX46Y46*%
G04 Gerber Fmt 4.6, Leading zero omitted, Abs format (unit mm)*
G04 Created by KiCad (PCBNEW (5.1.5)-3) date 2020-03-04 17:46:10*
%MOMM*%
%LPD*%
G04 APERTURE LIST*
%ADD10C,0.100000*%
G04 APERTURE END LIST*
D10*
G36*
X149591000Y-141301799D02*
G01*
X149591601Y-141314039D01*
X149593666Y-141335000D01*
X149591601Y-141355961D01*
X149591000Y-141368201D01*
X149591000Y-141439232D01*
X149589095Y-141441553D01*
X149573412Y-141474713D01*
X149551521Y-141546879D01*
X149533699Y-141580221D01*
X149500357Y-141642600D01*
X149431501Y-141726501D01*
X149347600Y-141795357D01*
X149279055Y-141831995D01*
X149251879Y-141846521D01*
X149148015Y-141878027D01*
X149067067Y-141886000D01*
X148112933Y-141886000D01*
X148031985Y-141878027D01*
X147928121Y-141846521D01*
X147900945Y-141831995D01*
X147832400Y-141795357D01*
X147748499Y-141726501D01*
X147679643Y-141642600D01*
X147646301Y-141580221D01*
X147628479Y-141546879D01*
X147606588Y-141474713D01*
X147597211Y-141452075D01*
X147589000Y-141439786D01*
X147589000Y-141368201D01*
X147588399Y-141355961D01*
X147586334Y-141335000D01*
X147588399Y-141314039D01*
X147589000Y-141301799D01*
X147589000Y-140409000D01*
X149591000Y-140409000D01*
X149591000Y-141301799D01*
G37*
G36*
X176326000Y-141886000D02*
G01*
X174194000Y-141886000D01*
X174194000Y-140054000D01*
X176326000Y-140054000D01*
X176326000Y-141886000D01*
G37*
G36*
X151802916Y-134367334D02*
G01*
X151911492Y-134400271D01*
X151911495Y-134400272D01*
X151947601Y-134419571D01*
X152011557Y-134453756D01*
X152099264Y-134525736D01*
X152171244Y-134613443D01*
X152205429Y-134677399D01*
X152224728Y-134713505D01*
X152224729Y-134713508D01*
X152257666Y-134822084D01*
X152268787Y-134935000D01*
X152257666Y-135047916D01*
X152224729Y-135156492D01*
X152224728Y-135156495D01*
X152205429Y-135192601D01*
X152171244Y-135256557D01*
X152099264Y-135344264D01*
X152036692Y-135395616D01*
X152019374Y-135412934D01*
X152005760Y-135433308D01*
X151996383Y-135455947D01*
X151991602Y-135479980D01*
X151991000Y-135492233D01*
X151991000Y-138827767D01*
X151993402Y-138852153D01*
X152000515Y-138875602D01*
X152012066Y-138897213D01*
X152027611Y-138916155D01*
X152036682Y-138924376D01*
X152099264Y-138975736D01*
X152171244Y-139063443D01*
X152205429Y-139127399D01*
X152224728Y-139163505D01*
X152224729Y-139163508D01*
X152257666Y-139272084D01*
X152268787Y-139385000D01*
X152257666Y-139497916D01*
X152224729Y-139606492D01*
X152224728Y-139606495D01*
X152205429Y-139642601D01*
X152171244Y-139706557D01*
X152099264Y-139794264D01*
X152011557Y-139866244D01*
X151947601Y-139900429D01*
X151911495Y-139919728D01*
X151911492Y-139919729D01*
X151802916Y-139952666D01*
X151718298Y-139961000D01*
X151461702Y-139961000D01*
X151377084Y-139952666D01*
X151268508Y-139919729D01*
X151268505Y-139919728D01*
X151232399Y-139900429D01*
X151168443Y-139866244D01*
X151080736Y-139794264D01*
X151008756Y-139706557D01*
X150974571Y-139642601D01*
X150955272Y-139606495D01*
X150955271Y-139606492D01*
X150922334Y-139497916D01*
X150911213Y-139385000D01*
X150922334Y-139272084D01*
X150955271Y-139163508D01*
X150955272Y-139163505D01*
X150974571Y-139127399D01*
X151008756Y-139063443D01*
X151080736Y-138975736D01*
X151133275Y-138932618D01*
X151150595Y-138915298D01*
X151164209Y-138894923D01*
X151173586Y-138872285D01*
X151178367Y-138848251D01*
X151178367Y-138823747D01*
X151173587Y-138799714D01*
X151164209Y-138777075D01*
X151150596Y-138756701D01*
X151133269Y-138739374D01*
X151112894Y-138725760D01*
X151090256Y-138716383D01*
X151066222Y-138711602D01*
X151053970Y-138711000D01*
X150539000Y-138711000D01*
X150539000Y-135609000D01*
X151053970Y-135609000D01*
X151078356Y-135606598D01*
X151101805Y-135599485D01*
X151123416Y-135587934D01*
X151142358Y-135572389D01*
X151157903Y-135553447D01*
X151169454Y-135531836D01*
X151176567Y-135508387D01*
X151178969Y-135484001D01*
X151176567Y-135459615D01*
X151169454Y-135436166D01*
X151157903Y-135414555D01*
X151142358Y-135395613D01*
X151133284Y-135387389D01*
X151080736Y-135344264D01*
X151008756Y-135256557D01*
X150974571Y-135192601D01*
X150955272Y-135156495D01*
X150955271Y-135156492D01*
X150922334Y-135047916D01*
X150911213Y-134935000D01*
X150922334Y-134822084D01*
X150955271Y-134713508D01*
X150955272Y-134713505D01*
X150974571Y-134677399D01*
X151008756Y-134613443D01*
X151080736Y-134525736D01*
X151168443Y-134453756D01*
X151232399Y-134419571D01*
X151268505Y-134400272D01*
X151268508Y-134400271D01*
X151377084Y-134367334D01*
X151461702Y-134359000D01*
X151718298Y-134359000D01*
X151802916Y-134367334D01*
G37*
G36*
X175570343Y-137525361D02*
G01*
X175589568Y-137527254D01*
X175675900Y-137553443D01*
X175762234Y-137579632D01*
X175921365Y-137664689D01*
X176060844Y-137779156D01*
X176175311Y-137918635D01*
X176260368Y-138077766D01*
X176260368Y-138077767D01*
X176300178Y-138209000D01*
X176312746Y-138250433D01*
X176330432Y-138430000D01*
X176312746Y-138609567D01*
X176260368Y-138782234D01*
X176175311Y-138941365D01*
X176060844Y-139080844D01*
X175921365Y-139195311D01*
X175762234Y-139280368D01*
X175675900Y-139306557D01*
X175589568Y-139332746D01*
X175570343Y-139334639D01*
X175454998Y-139346000D01*
X175065002Y-139346000D01*
X174949657Y-139334639D01*
X174930432Y-139332746D01*
X174844100Y-139306557D01*
X174757766Y-139280368D01*
X174598635Y-139195311D01*
X174459156Y-139080844D01*
X174344689Y-138941365D01*
X174259632Y-138782234D01*
X174207254Y-138609567D01*
X174189568Y-138430000D01*
X174207254Y-138250433D01*
X174219823Y-138209000D01*
X174259632Y-138077767D01*
X174259632Y-138077766D01*
X174344689Y-137918635D01*
X174459156Y-137779156D01*
X174598635Y-137664689D01*
X174757766Y-137579632D01*
X174844100Y-137553443D01*
X174930432Y-137527254D01*
X174949657Y-137525361D01*
X175065002Y-137514000D01*
X175454998Y-137514000D01*
X175570343Y-137525361D01*
G37*
G36*
X149591000Y-138661000D02*
G01*
X147589000Y-138661000D01*
X147589000Y-135659000D01*
X149591000Y-135659000D01*
X149591000Y-138661000D01*
G37*
G36*
X175570343Y-134985361D02*
G01*
X175589568Y-134987254D01*
X175675900Y-135013443D01*
X175762234Y-135039632D01*
X175921365Y-135124689D01*
X176060844Y-135239156D01*
X176175311Y-135378635D01*
X176260368Y-135537766D01*
X176312746Y-135710433D01*
X176330432Y-135890000D01*
X176314332Y-136053468D01*
X176312746Y-136069568D01*
X176260368Y-136242234D01*
X176175311Y-136401365D01*
X176060844Y-136540844D01*
X175921365Y-136655311D01*
X175762234Y-136740368D01*
X175694219Y-136761000D01*
X175589568Y-136792746D01*
X175570343Y-136794639D01*
X175454998Y-136806000D01*
X175065002Y-136806000D01*
X174949657Y-136794639D01*
X174930432Y-136792746D01*
X174825781Y-136761000D01*
X174757766Y-136740368D01*
X174598635Y-136655311D01*
X174459156Y-136540844D01*
X174344689Y-136401365D01*
X174259632Y-136242234D01*
X174207254Y-136069568D01*
X174205668Y-136053468D01*
X174189568Y-135890000D01*
X174207254Y-135710433D01*
X174259632Y-135537766D01*
X174344689Y-135378635D01*
X174459156Y-135239156D01*
X174598635Y-135124689D01*
X174757766Y-135039632D01*
X174844100Y-135013443D01*
X174930432Y-134987254D01*
X174949657Y-134985361D01*
X175065002Y-134974000D01*
X175454998Y-134974000D01*
X175570343Y-134985361D01*
G37*
G36*
X173236601Y-135304397D02*
G01*
X173275305Y-135312096D01*
X173307340Y-135325365D01*
X173384680Y-135357400D01*
X173483115Y-135423173D01*
X173566827Y-135506885D01*
X173632600Y-135605320D01*
X173654834Y-135659000D01*
X173677904Y-135714695D01*
X173701000Y-135830807D01*
X173701000Y-135949193D01*
X173677904Y-136065305D01*
X173676138Y-136069568D01*
X173632600Y-136174680D01*
X173566827Y-136273115D01*
X173483115Y-136356827D01*
X173384680Y-136422600D01*
X173307340Y-136454635D01*
X173275305Y-136467904D01*
X173236601Y-136475603D01*
X173159195Y-136491000D01*
X173040805Y-136491000D01*
X172963399Y-136475603D01*
X172924695Y-136467904D01*
X172892660Y-136454635D01*
X172815320Y-136422600D01*
X172716885Y-136356827D01*
X172633173Y-136273115D01*
X172567400Y-136174680D01*
X172523862Y-136069568D01*
X172522096Y-136065305D01*
X172499000Y-135949193D01*
X172499000Y-135830807D01*
X172522096Y-135714695D01*
X172545166Y-135659000D01*
X172567400Y-135605320D01*
X172633173Y-135506885D01*
X172716885Y-135423173D01*
X172815320Y-135357400D01*
X172892660Y-135325365D01*
X172924695Y-135312096D01*
X172963399Y-135304397D01*
X173040805Y-135289000D01*
X173159195Y-135289000D01*
X173236601Y-135304397D01*
G37*
G36*
X175570343Y-132445361D02*
G01*
X175589568Y-132447254D01*
X175675900Y-132473443D01*
X175762234Y-132499632D01*
X175921365Y-132584689D01*
X176060844Y-132699156D01*
X176175311Y-132838635D01*
X176260368Y-132997766D01*
X176260368Y-132997767D01*
X176289262Y-133093015D01*
X176312746Y-133170433D01*
X176330432Y-133350000D01*
X176312746Y-133529567D01*
X176260368Y-133702234D01*
X176175311Y-133861365D01*
X176060844Y-134000844D01*
X175921365Y-134115311D01*
X175762234Y-134200368D01*
X175589568Y-134252746D01*
X175570343Y-134254639D01*
X175454998Y-134266000D01*
X175065002Y-134266000D01*
X174949657Y-134254639D01*
X174930432Y-134252746D01*
X174757766Y-134200368D01*
X174598635Y-134115311D01*
X174459156Y-134000844D01*
X174344689Y-133861365D01*
X174259632Y-133702234D01*
X174207254Y-133529567D01*
X174189568Y-133350000D01*
X174207254Y-133170433D01*
X174230739Y-133093015D01*
X174259632Y-132997767D01*
X174259632Y-132997766D01*
X174344689Y-132838635D01*
X174459156Y-132699156D01*
X174598635Y-132584689D01*
X174757766Y-132499632D01*
X174844100Y-132473443D01*
X174930432Y-132447254D01*
X174949657Y-132445361D01*
X175065002Y-132434000D01*
X175454998Y-132434000D01*
X175570343Y-132445361D01*
G37*
G36*
X149148015Y-132441973D02*
G01*
X149251879Y-132473479D01*
X149279055Y-132488005D01*
X149347600Y-132524643D01*
X149431501Y-132593499D01*
X149500357Y-132677400D01*
X149511986Y-132699157D01*
X149551521Y-132773121D01*
X149551521Y-132773122D01*
X149573412Y-132845287D01*
X149582789Y-132867925D01*
X149591000Y-132880214D01*
X149591000Y-132951799D01*
X149591601Y-132964039D01*
X149593666Y-132985000D01*
X149591601Y-133005961D01*
X149591000Y-133018201D01*
X149591000Y-133911000D01*
X147589000Y-133911000D01*
X147589000Y-133018201D01*
X147588399Y-133005961D01*
X147586334Y-132985000D01*
X147588399Y-132964039D01*
X147589000Y-132951799D01*
X147589000Y-132880768D01*
X147590905Y-132878447D01*
X147606588Y-132845287D01*
X147628479Y-132773122D01*
X147628479Y-132773121D01*
X147668014Y-132699157D01*
X147679643Y-132677400D01*
X147748499Y-132593499D01*
X147832400Y-132524643D01*
X147900945Y-132488005D01*
X147928121Y-132473479D01*
X148031985Y-132441973D01*
X148112933Y-132434000D01*
X149067067Y-132434000D01*
X149148015Y-132441973D01*
G37*
M02*
