G04 #@! TF.GenerationSoftware,KiCad,Pcbnew,(5.1.5)-3*
G04 #@! TF.CreationDate,2020-03-05T14:29:52+00:00*
G04 #@! TF.ProjectId,test pieces,74657374-2070-4696-9563-65732e6b6963,rev?*
G04 #@! TF.SameCoordinates,PX8879670PY8a8eb40*
G04 #@! TF.FileFunction,Copper,L1,Top*
G04 #@! TF.FilePolarity,Positive*
%FSLAX46Y46*%
G04 Gerber Fmt 4.6, Leading zero omitted, Abs format (unit mm)*
G04 Created by KiCad (PCBNEW (5.1.5)-3) date 2020-03-05 14:29:52*
%MOMM*%
%LPD*%
G04 APERTURE LIST*
%ADD10R,1.900000X0.875000*%
%ADD11R,1.900000X2.900000*%
%ADD12R,1.350000X0.400000*%
%ADD13O,1.900000X1.000000*%
%ADD14O,1.250000X1.050000*%
%ADD15O,2.030000X1.730000*%
%ADD16R,2.030000X1.730000*%
%ADD17C,0.400000*%
%ADD18C,0.254000*%
G04 APERTURE END LIST*
D10*
X5486400Y11865500D03*
X5486400Y4390500D03*
D11*
X5486400Y8128000D03*
D12*
X8161400Y7478000D03*
D13*
X5486400Y3953000D03*
X5486400Y12303000D03*
D14*
X8486400Y5903000D03*
D12*
X8161400Y6828000D03*
X8161400Y8128000D03*
X8161400Y8778000D03*
X8161400Y9428000D03*
D14*
X8486400Y10353000D03*
D15*
X20726400Y11938000D03*
X20726400Y9398000D03*
X20726400Y6858000D03*
D16*
X20726400Y4318000D03*
D17*
X6786400Y9428000D02*
X5486400Y8128000D01*
X8161400Y9428000D02*
X6786400Y9428000D01*
X8161400Y8778000D02*
X15966200Y8778000D01*
X20576400Y9398000D02*
X20726400Y9398000D01*
X19311400Y10663000D02*
X20576400Y9398000D01*
X17851200Y10663000D02*
X19311400Y10663000D01*
X15966200Y8778000D02*
X17851200Y10663000D01*
X22141400Y4318000D02*
X20726400Y4318000D01*
X21395394Y8128000D02*
X21420794Y8102600D01*
X8161400Y8128000D02*
X21395394Y8128000D01*
X21420794Y8102600D02*
X23571200Y8102600D01*
X23571200Y8102600D02*
X23571200Y5747800D01*
X23571200Y5747800D02*
X22141400Y4318000D01*
X8161400Y7478000D02*
X13045200Y7478000D01*
X13665200Y6858000D02*
X20726400Y6858000D01*
X13045200Y7478000D02*
X13665200Y6858000D01*
D18*
G36*
X28956401Y1168000D02*
G01*
X1066400Y1168000D01*
X1066400Y10928000D01*
X3348086Y10928000D01*
X3361312Y10793717D01*
X3400481Y10664594D01*
X3464088Y10545593D01*
X3499044Y10503000D01*
X3464088Y10460407D01*
X3400481Y10341406D01*
X3361312Y10212283D01*
X3348086Y10078000D01*
X3351400Y10044353D01*
X3351401Y6211657D01*
X3348086Y6178000D01*
X3361312Y6043717D01*
X3400481Y5914594D01*
X3464088Y5795593D01*
X3499044Y5753000D01*
X3464088Y5710407D01*
X3400481Y5591406D01*
X3361312Y5462283D01*
X3348086Y5328000D01*
X3351400Y5294352D01*
X3351401Y4344353D01*
X3361313Y4243717D01*
X3400482Y4114594D01*
X3464089Y3995593D01*
X3549690Y3891289D01*
X3653994Y3805688D01*
X3772995Y3742081D01*
X3902118Y3702912D01*
X3952720Y3697928D01*
X3962647Y3679355D01*
X3942281Y3651126D01*
X4022124Y3428024D01*
X4144031Y3240236D01*
X4300231Y3079839D01*
X4484722Y2952997D01*
X4690413Y2864585D01*
X4909400Y2818000D01*
X5359400Y2818000D01*
X5359400Y4100000D01*
X5613400Y4100000D01*
X5613400Y2818000D01*
X6063400Y2818000D01*
X6282387Y2864585D01*
X6488078Y2952997D01*
X6672569Y3079839D01*
X6828769Y3240236D01*
X6950676Y3428024D01*
X7030519Y3651126D01*
X7010153Y3679355D01*
X7025902Y3708820D01*
X7061448Y3825998D01*
X7071400Y3825998D01*
X7071400Y3921808D01*
X7074472Y3953000D01*
X7071400Y4104750D01*
X6984735Y4191415D01*
X7030519Y4254874D01*
X6950676Y4477976D01*
X6920150Y4525000D01*
X7071400Y4676250D01*
X7074472Y4828000D01*
X7062212Y4952482D01*
X7025902Y5072180D01*
X6966937Y5182494D01*
X6887585Y5279185D01*
X6790894Y5358537D01*
X6680580Y5417502D01*
X6668682Y5421111D01*
X6686002Y5479960D01*
X6697636Y5540949D01*
X6709181Y5597190D01*
X7267436Y5597190D01*
X7322992Y5442493D01*
X7433266Y5243881D01*
X7580168Y5070599D01*
X7758053Y4929305D01*
X7960085Y4825430D01*
X8178500Y4762965D01*
X8359400Y4903228D01*
X8359400Y5776000D01*
X8613400Y5776000D01*
X8613400Y4903228D01*
X8794300Y4762965D01*
X9012715Y4825430D01*
X9214747Y4929305D01*
X9392632Y5070599D01*
X9539534Y5243881D01*
X9649808Y5442493D01*
X9705364Y5597190D01*
X9579563Y5776000D01*
X8613400Y5776000D01*
X8359400Y5776000D01*
X7393237Y5776000D01*
X7267436Y5597190D01*
X6709181Y5597190D01*
X6710119Y5601757D01*
X6711052Y5611276D01*
X6711053Y5611281D01*
X6711053Y5611287D01*
X6718570Y5693880D01*
X6718137Y5755969D01*
X6718570Y5818058D01*
X6717637Y5827576D01*
X6708966Y5910067D01*
X6696478Y5970898D01*
X6684850Y6031857D01*
X6682086Y6041013D01*
X6668520Y6084840D01*
X6680580Y6088498D01*
X6790894Y6147463D01*
X6887585Y6226815D01*
X6944046Y6295613D01*
X6955863Y6273506D01*
X7035215Y6176815D01*
X7131906Y6097463D01*
X7242220Y6038498D01*
X7361918Y6002188D01*
X7486400Y5989928D01*
X8836400Y5989928D01*
X8960882Y6002188D01*
X9052566Y6030000D01*
X9579563Y6030000D01*
X9705364Y6208810D01*
X9649808Y6363507D01*
X9539534Y6562119D01*
X9474472Y6638865D01*
X9474472Y6643000D01*
X12699333Y6643000D01*
X13045758Y6296574D01*
X13071909Y6264709D01*
X13199054Y6160364D01*
X13344113Y6082828D01*
X13501511Y6035082D01*
X13624181Y6023000D01*
X13624191Y6023000D01*
X13665199Y6018961D01*
X13706207Y6023000D01*
X19321886Y6023000D01*
X19323162Y6020613D01*
X19510608Y5792208D01*
X19516430Y5787430D01*
X19467220Y5772502D01*
X19356906Y5713537D01*
X19260215Y5634185D01*
X19180863Y5537494D01*
X19121898Y5427180D01*
X19085588Y5307482D01*
X19073328Y5183000D01*
X19073328Y3453000D01*
X19085588Y3328518D01*
X19121898Y3208820D01*
X19180863Y3098506D01*
X19260215Y3001815D01*
X19356906Y2922463D01*
X19467220Y2863498D01*
X19586918Y2827188D01*
X19711400Y2814928D01*
X21741400Y2814928D01*
X21865882Y2827188D01*
X21985580Y2863498D01*
X22095894Y2922463D01*
X22192585Y3001815D01*
X22271937Y3098506D01*
X22330902Y3208820D01*
X22367212Y3328518D01*
X22379472Y3453000D01*
X22379472Y3517646D01*
X22462487Y3542828D01*
X22607546Y3620364D01*
X22734691Y3724709D01*
X22760846Y3756578D01*
X24132632Y5128363D01*
X24164491Y5154509D01*
X24197674Y5194942D01*
X24216451Y5217823D01*
X24268836Y5281654D01*
X24346372Y5426713D01*
X24394118Y5584111D01*
X24406200Y5706781D01*
X24406200Y5706782D01*
X24410240Y5747800D01*
X24406200Y5788818D01*
X24406200Y8061581D01*
X24410240Y8102600D01*
X24394118Y8266289D01*
X24346372Y8423687D01*
X24268836Y8568746D01*
X24164491Y8695891D01*
X24037346Y8800236D01*
X23892287Y8877772D01*
X23734889Y8925518D01*
X23612219Y8937600D01*
X23612218Y8937600D01*
X23571200Y8941640D01*
X23530181Y8937600D01*
X22304234Y8937600D01*
X22354695Y9103949D01*
X22383657Y9398000D01*
X22354695Y9692051D01*
X22268924Y9974802D01*
X22129638Y10235387D01*
X21942192Y10463792D01*
X21713787Y10651238D01*
X21675697Y10671598D01*
X21878372Y10820190D01*
X22077193Y11037143D01*
X22229869Y11288716D01*
X22330531Y11565241D01*
X22332746Y11578754D01*
X22211624Y11811000D01*
X20853400Y11811000D01*
X20853400Y11791000D01*
X20599400Y11791000D01*
X20599400Y11811000D01*
X19241176Y11811000D01*
X19120054Y11578754D01*
X19122269Y11565241D01*
X19146746Y11498000D01*
X17892218Y11498000D01*
X17851200Y11502040D01*
X17810182Y11498000D01*
X17810181Y11498000D01*
X17687511Y11485918D01*
X17530113Y11438172D01*
X17385054Y11360636D01*
X17339754Y11323459D01*
X17314821Y11302997D01*
X17257909Y11256291D01*
X17231763Y11224432D01*
X15620333Y9613000D01*
X9470966Y9613000D01*
X9539534Y9693881D01*
X9649808Y9892493D01*
X9705364Y10047190D01*
X9579563Y10226000D01*
X9054794Y10226000D01*
X8950857Y10255722D01*
X8826195Y10265990D01*
X8447150Y10263000D01*
X8390150Y10206000D01*
X8359400Y10206000D01*
X8359400Y10226000D01*
X7912650Y10226000D01*
X7875650Y10263000D01*
X7496605Y10265990D01*
X7371943Y10255722D01*
X7251679Y10221331D01*
X7140436Y10164139D01*
X7042488Y10086343D01*
X6961600Y9990933D01*
X6944400Y9959956D01*
X6887585Y10029185D01*
X6790894Y10108537D01*
X6680580Y10167502D01*
X6668682Y10171111D01*
X6686002Y10229960D01*
X6697636Y10290949D01*
X6710119Y10351757D01*
X6711052Y10361276D01*
X6711053Y10361281D01*
X6711053Y10361287D01*
X6718570Y10443880D01*
X6718137Y10505969D01*
X6718570Y10568058D01*
X6717637Y10577576D01*
X6709099Y10658810D01*
X7267436Y10658810D01*
X7393237Y10480000D01*
X8359400Y10480000D01*
X8359400Y11352772D01*
X8613400Y11352772D01*
X8613400Y10480000D01*
X9579563Y10480000D01*
X9705364Y10658810D01*
X9649808Y10813507D01*
X9539534Y11012119D01*
X9392632Y11185401D01*
X9214747Y11326695D01*
X9012715Y11430570D01*
X8794300Y11493035D01*
X8613400Y11352772D01*
X8359400Y11352772D01*
X8178500Y11493035D01*
X7960085Y11430570D01*
X7758053Y11326695D01*
X7580168Y11185401D01*
X7433266Y11012119D01*
X7322992Y10813507D01*
X7267436Y10658810D01*
X6709099Y10658810D01*
X6708966Y10660067D01*
X6696478Y10720898D01*
X6684850Y10781857D01*
X6682086Y10791013D01*
X6668520Y10834840D01*
X6680580Y10838498D01*
X6790894Y10897463D01*
X6887585Y10976815D01*
X6966937Y11073506D01*
X7025902Y11183820D01*
X7062212Y11303518D01*
X7074472Y11428000D01*
X7071400Y11579750D01*
X6920150Y11731000D01*
X6950676Y11778024D01*
X7030519Y12001126D01*
X6984735Y12064585D01*
X7071400Y12151250D01*
X7074355Y12297246D01*
X19120054Y12297246D01*
X19241176Y12065000D01*
X20599400Y12065000D01*
X20599400Y13280222D01*
X20853400Y13280222D01*
X20853400Y12065000D01*
X22211624Y12065000D01*
X22332746Y12297246D01*
X22330531Y12310759D01*
X22229869Y12587284D01*
X22077193Y12838857D01*
X21878372Y13055810D01*
X21641045Y13229807D01*
X21374334Y13354160D01*
X21088487Y13424091D01*
X20853400Y13280222D01*
X20599400Y13280222D01*
X20364313Y13424091D01*
X20078466Y13354160D01*
X19811755Y13229807D01*
X19574428Y13055810D01*
X19375607Y12838857D01*
X19222931Y12587284D01*
X19122269Y12310759D01*
X19120054Y12297246D01*
X7074355Y12297246D01*
X7074472Y12303000D01*
X7071400Y12334192D01*
X7071400Y12430002D01*
X7061448Y12430002D01*
X7025902Y12547180D01*
X7010153Y12576645D01*
X7030519Y12604874D01*
X6950676Y12827976D01*
X6828769Y13015764D01*
X6672569Y13176161D01*
X6488078Y13303003D01*
X6282387Y13391415D01*
X6063400Y13438000D01*
X5613400Y13438000D01*
X5613400Y12156000D01*
X5359400Y12156000D01*
X5359400Y13438000D01*
X4909400Y13438000D01*
X4690413Y13391415D01*
X4484722Y13303003D01*
X4300231Y13176161D01*
X4144031Y13015764D01*
X4022124Y12827976D01*
X3942281Y12604874D01*
X3962647Y12576645D01*
X3952720Y12558072D01*
X3902117Y12553088D01*
X3772994Y12513919D01*
X3653993Y12450312D01*
X3549689Y12364710D01*
X3464088Y12260406D01*
X3400481Y12141405D01*
X3361312Y12012282D01*
X3351400Y11911646D01*
X3351401Y10961656D01*
X3348086Y10928000D01*
X1066400Y10928000D01*
X1066400Y15088000D01*
X28956400Y15088000D01*
X28956401Y1168000D01*
G37*
X28956401Y1168000D02*
X1066400Y1168000D01*
X1066400Y10928000D01*
X3348086Y10928000D01*
X3361312Y10793717D01*
X3400481Y10664594D01*
X3464088Y10545593D01*
X3499044Y10503000D01*
X3464088Y10460407D01*
X3400481Y10341406D01*
X3361312Y10212283D01*
X3348086Y10078000D01*
X3351400Y10044353D01*
X3351401Y6211657D01*
X3348086Y6178000D01*
X3361312Y6043717D01*
X3400481Y5914594D01*
X3464088Y5795593D01*
X3499044Y5753000D01*
X3464088Y5710407D01*
X3400481Y5591406D01*
X3361312Y5462283D01*
X3348086Y5328000D01*
X3351400Y5294352D01*
X3351401Y4344353D01*
X3361313Y4243717D01*
X3400482Y4114594D01*
X3464089Y3995593D01*
X3549690Y3891289D01*
X3653994Y3805688D01*
X3772995Y3742081D01*
X3902118Y3702912D01*
X3952720Y3697928D01*
X3962647Y3679355D01*
X3942281Y3651126D01*
X4022124Y3428024D01*
X4144031Y3240236D01*
X4300231Y3079839D01*
X4484722Y2952997D01*
X4690413Y2864585D01*
X4909400Y2818000D01*
X5359400Y2818000D01*
X5359400Y4100000D01*
X5613400Y4100000D01*
X5613400Y2818000D01*
X6063400Y2818000D01*
X6282387Y2864585D01*
X6488078Y2952997D01*
X6672569Y3079839D01*
X6828769Y3240236D01*
X6950676Y3428024D01*
X7030519Y3651126D01*
X7010153Y3679355D01*
X7025902Y3708820D01*
X7061448Y3825998D01*
X7071400Y3825998D01*
X7071400Y3921808D01*
X7074472Y3953000D01*
X7071400Y4104750D01*
X6984735Y4191415D01*
X7030519Y4254874D01*
X6950676Y4477976D01*
X6920150Y4525000D01*
X7071400Y4676250D01*
X7074472Y4828000D01*
X7062212Y4952482D01*
X7025902Y5072180D01*
X6966937Y5182494D01*
X6887585Y5279185D01*
X6790894Y5358537D01*
X6680580Y5417502D01*
X6668682Y5421111D01*
X6686002Y5479960D01*
X6697636Y5540949D01*
X6709181Y5597190D01*
X7267436Y5597190D01*
X7322992Y5442493D01*
X7433266Y5243881D01*
X7580168Y5070599D01*
X7758053Y4929305D01*
X7960085Y4825430D01*
X8178500Y4762965D01*
X8359400Y4903228D01*
X8359400Y5776000D01*
X8613400Y5776000D01*
X8613400Y4903228D01*
X8794300Y4762965D01*
X9012715Y4825430D01*
X9214747Y4929305D01*
X9392632Y5070599D01*
X9539534Y5243881D01*
X9649808Y5442493D01*
X9705364Y5597190D01*
X9579563Y5776000D01*
X8613400Y5776000D01*
X8359400Y5776000D01*
X7393237Y5776000D01*
X7267436Y5597190D01*
X6709181Y5597190D01*
X6710119Y5601757D01*
X6711052Y5611276D01*
X6711053Y5611281D01*
X6711053Y5611287D01*
X6718570Y5693880D01*
X6718137Y5755969D01*
X6718570Y5818058D01*
X6717637Y5827576D01*
X6708966Y5910067D01*
X6696478Y5970898D01*
X6684850Y6031857D01*
X6682086Y6041013D01*
X6668520Y6084840D01*
X6680580Y6088498D01*
X6790894Y6147463D01*
X6887585Y6226815D01*
X6944046Y6295613D01*
X6955863Y6273506D01*
X7035215Y6176815D01*
X7131906Y6097463D01*
X7242220Y6038498D01*
X7361918Y6002188D01*
X7486400Y5989928D01*
X8836400Y5989928D01*
X8960882Y6002188D01*
X9052566Y6030000D01*
X9579563Y6030000D01*
X9705364Y6208810D01*
X9649808Y6363507D01*
X9539534Y6562119D01*
X9474472Y6638865D01*
X9474472Y6643000D01*
X12699333Y6643000D01*
X13045758Y6296574D01*
X13071909Y6264709D01*
X13199054Y6160364D01*
X13344113Y6082828D01*
X13501511Y6035082D01*
X13624181Y6023000D01*
X13624191Y6023000D01*
X13665199Y6018961D01*
X13706207Y6023000D01*
X19321886Y6023000D01*
X19323162Y6020613D01*
X19510608Y5792208D01*
X19516430Y5787430D01*
X19467220Y5772502D01*
X19356906Y5713537D01*
X19260215Y5634185D01*
X19180863Y5537494D01*
X19121898Y5427180D01*
X19085588Y5307482D01*
X19073328Y5183000D01*
X19073328Y3453000D01*
X19085588Y3328518D01*
X19121898Y3208820D01*
X19180863Y3098506D01*
X19260215Y3001815D01*
X19356906Y2922463D01*
X19467220Y2863498D01*
X19586918Y2827188D01*
X19711400Y2814928D01*
X21741400Y2814928D01*
X21865882Y2827188D01*
X21985580Y2863498D01*
X22095894Y2922463D01*
X22192585Y3001815D01*
X22271937Y3098506D01*
X22330902Y3208820D01*
X22367212Y3328518D01*
X22379472Y3453000D01*
X22379472Y3517646D01*
X22462487Y3542828D01*
X22607546Y3620364D01*
X22734691Y3724709D01*
X22760846Y3756578D01*
X24132632Y5128363D01*
X24164491Y5154509D01*
X24197674Y5194942D01*
X24216451Y5217823D01*
X24268836Y5281654D01*
X24346372Y5426713D01*
X24394118Y5584111D01*
X24406200Y5706781D01*
X24406200Y5706782D01*
X24410240Y5747800D01*
X24406200Y5788818D01*
X24406200Y8061581D01*
X24410240Y8102600D01*
X24394118Y8266289D01*
X24346372Y8423687D01*
X24268836Y8568746D01*
X24164491Y8695891D01*
X24037346Y8800236D01*
X23892287Y8877772D01*
X23734889Y8925518D01*
X23612219Y8937600D01*
X23612218Y8937600D01*
X23571200Y8941640D01*
X23530181Y8937600D01*
X22304234Y8937600D01*
X22354695Y9103949D01*
X22383657Y9398000D01*
X22354695Y9692051D01*
X22268924Y9974802D01*
X22129638Y10235387D01*
X21942192Y10463792D01*
X21713787Y10651238D01*
X21675697Y10671598D01*
X21878372Y10820190D01*
X22077193Y11037143D01*
X22229869Y11288716D01*
X22330531Y11565241D01*
X22332746Y11578754D01*
X22211624Y11811000D01*
X20853400Y11811000D01*
X20853400Y11791000D01*
X20599400Y11791000D01*
X20599400Y11811000D01*
X19241176Y11811000D01*
X19120054Y11578754D01*
X19122269Y11565241D01*
X19146746Y11498000D01*
X17892218Y11498000D01*
X17851200Y11502040D01*
X17810182Y11498000D01*
X17810181Y11498000D01*
X17687511Y11485918D01*
X17530113Y11438172D01*
X17385054Y11360636D01*
X17339754Y11323459D01*
X17314821Y11302997D01*
X17257909Y11256291D01*
X17231763Y11224432D01*
X15620333Y9613000D01*
X9470966Y9613000D01*
X9539534Y9693881D01*
X9649808Y9892493D01*
X9705364Y10047190D01*
X9579563Y10226000D01*
X9054794Y10226000D01*
X8950857Y10255722D01*
X8826195Y10265990D01*
X8447150Y10263000D01*
X8390150Y10206000D01*
X8359400Y10206000D01*
X8359400Y10226000D01*
X7912650Y10226000D01*
X7875650Y10263000D01*
X7496605Y10265990D01*
X7371943Y10255722D01*
X7251679Y10221331D01*
X7140436Y10164139D01*
X7042488Y10086343D01*
X6961600Y9990933D01*
X6944400Y9959956D01*
X6887585Y10029185D01*
X6790894Y10108537D01*
X6680580Y10167502D01*
X6668682Y10171111D01*
X6686002Y10229960D01*
X6697636Y10290949D01*
X6710119Y10351757D01*
X6711052Y10361276D01*
X6711053Y10361281D01*
X6711053Y10361287D01*
X6718570Y10443880D01*
X6718137Y10505969D01*
X6718570Y10568058D01*
X6717637Y10577576D01*
X6709099Y10658810D01*
X7267436Y10658810D01*
X7393237Y10480000D01*
X8359400Y10480000D01*
X8359400Y11352772D01*
X8613400Y11352772D01*
X8613400Y10480000D01*
X9579563Y10480000D01*
X9705364Y10658810D01*
X9649808Y10813507D01*
X9539534Y11012119D01*
X9392632Y11185401D01*
X9214747Y11326695D01*
X9012715Y11430570D01*
X8794300Y11493035D01*
X8613400Y11352772D01*
X8359400Y11352772D01*
X8178500Y11493035D01*
X7960085Y11430570D01*
X7758053Y11326695D01*
X7580168Y11185401D01*
X7433266Y11012119D01*
X7322992Y10813507D01*
X7267436Y10658810D01*
X6709099Y10658810D01*
X6708966Y10660067D01*
X6696478Y10720898D01*
X6684850Y10781857D01*
X6682086Y10791013D01*
X6668520Y10834840D01*
X6680580Y10838498D01*
X6790894Y10897463D01*
X6887585Y10976815D01*
X6966937Y11073506D01*
X7025902Y11183820D01*
X7062212Y11303518D01*
X7074472Y11428000D01*
X7071400Y11579750D01*
X6920150Y11731000D01*
X6950676Y11778024D01*
X7030519Y12001126D01*
X6984735Y12064585D01*
X7071400Y12151250D01*
X7074355Y12297246D01*
X19120054Y12297246D01*
X19241176Y12065000D01*
X20599400Y12065000D01*
X20599400Y13280222D01*
X20853400Y13280222D01*
X20853400Y12065000D01*
X22211624Y12065000D01*
X22332746Y12297246D01*
X22330531Y12310759D01*
X22229869Y12587284D01*
X22077193Y12838857D01*
X21878372Y13055810D01*
X21641045Y13229807D01*
X21374334Y13354160D01*
X21088487Y13424091D01*
X20853400Y13280222D01*
X20599400Y13280222D01*
X20364313Y13424091D01*
X20078466Y13354160D01*
X19811755Y13229807D01*
X19574428Y13055810D01*
X19375607Y12838857D01*
X19222931Y12587284D01*
X19122269Y12310759D01*
X19120054Y12297246D01*
X7074355Y12297246D01*
X7074472Y12303000D01*
X7071400Y12334192D01*
X7071400Y12430002D01*
X7061448Y12430002D01*
X7025902Y12547180D01*
X7010153Y12576645D01*
X7030519Y12604874D01*
X6950676Y12827976D01*
X6828769Y13015764D01*
X6672569Y13176161D01*
X6488078Y13303003D01*
X6282387Y13391415D01*
X6063400Y13438000D01*
X5613400Y13438000D01*
X5613400Y12156000D01*
X5359400Y12156000D01*
X5359400Y13438000D01*
X4909400Y13438000D01*
X4690413Y13391415D01*
X4484722Y13303003D01*
X4300231Y13176161D01*
X4144031Y13015764D01*
X4022124Y12827976D01*
X3942281Y12604874D01*
X3962647Y12576645D01*
X3952720Y12558072D01*
X3902117Y12553088D01*
X3772994Y12513919D01*
X3653993Y12450312D01*
X3549689Y12364710D01*
X3464088Y12260406D01*
X3400481Y12141405D01*
X3361312Y12012282D01*
X3351400Y11911646D01*
X3351401Y10961656D01*
X3348086Y10928000D01*
X1066400Y10928000D01*
X1066400Y15088000D01*
X28956400Y15088000D01*
X28956401Y1168000D01*
G36*
X5613400Y8255000D02*
G01*
X5633400Y8255000D01*
X5633400Y8001000D01*
X5613400Y8001000D01*
X5613400Y7981000D01*
X5359400Y7981000D01*
X5359400Y8001000D01*
X5339400Y8001000D01*
X5339400Y8255000D01*
X5359400Y8255000D01*
X5359400Y8275000D01*
X5613400Y8275000D01*
X5613400Y8255000D01*
G37*
X5613400Y8255000D02*
X5633400Y8255000D01*
X5633400Y8001000D01*
X5613400Y8001000D01*
X5613400Y7981000D01*
X5359400Y7981000D01*
X5359400Y8001000D01*
X5339400Y8001000D01*
X5339400Y8255000D01*
X5359400Y8255000D01*
X5359400Y8275000D01*
X5613400Y8275000D01*
X5613400Y8255000D01*
M02*
