G04 #@! TF.GenerationSoftware,KiCad,Pcbnew,(5.1.5)-3*
G04 #@! TF.CreationDate,2020-03-05T14:29:52+00:00*
G04 #@! TF.ProjectId,test pieces,74657374-2070-4696-9563-65732e6b6963,rev?*
G04 #@! TF.SameCoordinates,PX8879670PY8a8eb40*
G04 #@! TF.FileFunction,Soldermask,Bot*
G04 #@! TF.FilePolarity,Negative*
%FSLAX46Y46*%
G04 Gerber Fmt 4.6, Leading zero omitted, Abs format (unit mm)*
G04 Created by KiCad (PCBNEW (5.1.5)-3) date 2020-03-05 14:29:52*
%MOMM*%
%LPD*%
G04 APERTURE LIST*
%ADD10C,0.100000*%
G04 APERTURE END LIST*
D10*
G36*
X6044415Y4496027D02*
G01*
X6148279Y4464521D01*
X6175455Y4449995D01*
X6244000Y4413357D01*
X6327901Y4344501D01*
X6396757Y4260600D01*
X6433395Y4192055D01*
X6447921Y4164879D01*
X6479427Y4061015D01*
X6490066Y3953000D01*
X6479427Y3844985D01*
X6447921Y3741121D01*
X6447919Y3741118D01*
X6396757Y3645400D01*
X6327901Y3561499D01*
X6244000Y3492643D01*
X6175455Y3456005D01*
X6148279Y3441479D01*
X6044415Y3409973D01*
X5963467Y3402000D01*
X5009333Y3402000D01*
X4928385Y3409973D01*
X4824521Y3441479D01*
X4797345Y3456005D01*
X4728800Y3492643D01*
X4644899Y3561499D01*
X4576043Y3645400D01*
X4524881Y3741118D01*
X4524879Y3741121D01*
X4493373Y3844985D01*
X4482734Y3953000D01*
X4493373Y4061015D01*
X4524879Y4164879D01*
X4539405Y4192055D01*
X4576043Y4260600D01*
X4644899Y4344501D01*
X4728800Y4413357D01*
X4797345Y4449995D01*
X4824521Y4464521D01*
X4928385Y4496027D01*
X5009333Y4504000D01*
X5963467Y4504000D01*
X6044415Y4496027D01*
G37*
G36*
X21792400Y3402000D02*
G01*
X19660400Y3402000D01*
X19660400Y5234000D01*
X21792400Y5234000D01*
X21792400Y3402000D01*
G37*
G36*
X8699316Y6470666D02*
G01*
X8807892Y6437729D01*
X8807895Y6437728D01*
X8844001Y6418429D01*
X8907957Y6384244D01*
X8995664Y6312264D01*
X9067644Y6224557D01*
X9101829Y6160601D01*
X9121128Y6124495D01*
X9121129Y6124492D01*
X9154066Y6015916D01*
X9165187Y5903000D01*
X9154066Y5790084D01*
X9121129Y5681508D01*
X9121128Y5681505D01*
X9101829Y5645399D01*
X9067644Y5581443D01*
X8995664Y5493736D01*
X8907957Y5421756D01*
X8844001Y5387571D01*
X8807895Y5368272D01*
X8807892Y5368271D01*
X8699316Y5335334D01*
X8614698Y5327000D01*
X8358102Y5327000D01*
X8273484Y5335334D01*
X8164908Y5368271D01*
X8164905Y5368272D01*
X8128799Y5387571D01*
X8064843Y5421756D01*
X7977136Y5493736D01*
X7905156Y5581443D01*
X7870971Y5645399D01*
X7851672Y5681505D01*
X7851671Y5681508D01*
X7818734Y5790084D01*
X7807613Y5903000D01*
X7818734Y6015916D01*
X7851671Y6124492D01*
X7851672Y6124495D01*
X7870971Y6160601D01*
X7905156Y6224557D01*
X7977136Y6312264D01*
X8064843Y6384244D01*
X8128799Y6418429D01*
X8164905Y6437728D01*
X8164908Y6437729D01*
X8273484Y6470666D01*
X8358102Y6479000D01*
X8614698Y6479000D01*
X8699316Y6470666D01*
G37*
G36*
X21036743Y7762639D02*
G01*
X21055968Y7760746D01*
X21142300Y7734557D01*
X21228634Y7708368D01*
X21387765Y7623311D01*
X21527244Y7508844D01*
X21641711Y7369365D01*
X21726768Y7210234D01*
X21779146Y7037567D01*
X21796832Y6858000D01*
X21779146Y6678433D01*
X21726768Y6505766D01*
X21641711Y6346635D01*
X21527244Y6207156D01*
X21387765Y6092689D01*
X21228634Y6007632D01*
X21142300Y5981443D01*
X21055968Y5955254D01*
X21036743Y5953361D01*
X20921398Y5942000D01*
X20531402Y5942000D01*
X20416057Y5953361D01*
X20396832Y5955254D01*
X20310500Y5981443D01*
X20224166Y6007632D01*
X20065035Y6092689D01*
X19925556Y6207156D01*
X19811089Y6346635D01*
X19726032Y6505766D01*
X19673654Y6678433D01*
X19655968Y6858000D01*
X19673654Y7037567D01*
X19726032Y7210234D01*
X19811089Y7369365D01*
X19925556Y7508844D01*
X20065035Y7623311D01*
X20224166Y7708368D01*
X20310500Y7734557D01*
X20396832Y7760746D01*
X20416057Y7762639D01*
X20531402Y7774000D01*
X20921398Y7774000D01*
X21036743Y7762639D01*
G37*
G36*
X21036743Y10302639D02*
G01*
X21055968Y10300746D01*
X21142300Y10274557D01*
X21228634Y10248368D01*
X21387765Y10163311D01*
X21527244Y10048844D01*
X21641711Y9909365D01*
X21726768Y9750234D01*
X21779146Y9577567D01*
X21796832Y9398000D01*
X21779146Y9218433D01*
X21726768Y9045766D01*
X21641711Y8886635D01*
X21527244Y8747156D01*
X21387765Y8632689D01*
X21228634Y8547632D01*
X21055968Y8495254D01*
X21036743Y8493361D01*
X20921398Y8482000D01*
X20531402Y8482000D01*
X20416057Y8493361D01*
X20396832Y8495254D01*
X20310500Y8521443D01*
X20224166Y8547632D01*
X20065035Y8632689D01*
X19925556Y8747156D01*
X19811089Y8886635D01*
X19726032Y9045766D01*
X19673654Y9218433D01*
X19655968Y9398000D01*
X19673654Y9577567D01*
X19726032Y9750234D01*
X19811089Y9909365D01*
X19925556Y10048844D01*
X20065035Y10163311D01*
X20224166Y10248368D01*
X20310500Y10274557D01*
X20396832Y10300746D01*
X20416057Y10302639D01*
X20531402Y10314000D01*
X20921398Y10314000D01*
X21036743Y10302639D01*
G37*
G36*
X18703001Y9983603D02*
G01*
X18741705Y9975904D01*
X18773740Y9962635D01*
X18851080Y9930600D01*
X18949515Y9864827D01*
X19033227Y9781115D01*
X19099000Y9682680D01*
X19131035Y9605340D01*
X19144304Y9573305D01*
X19167400Y9457193D01*
X19167400Y9338807D01*
X19144304Y9222695D01*
X19142538Y9218432D01*
X19099000Y9113320D01*
X19033227Y9014885D01*
X18949515Y8931173D01*
X18851080Y8865400D01*
X18773740Y8833365D01*
X18741705Y8820096D01*
X18703001Y8812397D01*
X18625595Y8797000D01*
X18507205Y8797000D01*
X18429799Y8812397D01*
X18391095Y8820096D01*
X18359060Y8833365D01*
X18281720Y8865400D01*
X18183285Y8931173D01*
X18099573Y9014885D01*
X18033800Y9113320D01*
X17990262Y9218432D01*
X17988496Y9222695D01*
X17965400Y9338807D01*
X17965400Y9457193D01*
X17988496Y9573305D01*
X18001765Y9605340D01*
X18033800Y9682680D01*
X18099573Y9781115D01*
X18183285Y9864827D01*
X18281720Y9930600D01*
X18359060Y9962635D01*
X18391095Y9975904D01*
X18429799Y9983603D01*
X18507205Y9999000D01*
X18625595Y9999000D01*
X18703001Y9983603D01*
G37*
G36*
X8699316Y10920666D02*
G01*
X8807892Y10887729D01*
X8807895Y10887728D01*
X8844001Y10868429D01*
X8907957Y10834244D01*
X8995664Y10762264D01*
X9067644Y10674557D01*
X9101829Y10610601D01*
X9121128Y10574495D01*
X9121129Y10574492D01*
X9154066Y10465916D01*
X9165187Y10353000D01*
X9154066Y10240084D01*
X9121129Y10131508D01*
X9121128Y10131505D01*
X9101829Y10095399D01*
X9067644Y10031443D01*
X8995664Y9943736D01*
X8907957Y9871756D01*
X8844001Y9837571D01*
X8807895Y9818272D01*
X8807892Y9818271D01*
X8699316Y9785334D01*
X8614698Y9777000D01*
X8358102Y9777000D01*
X8273484Y9785334D01*
X8164908Y9818271D01*
X8164905Y9818272D01*
X8128799Y9837571D01*
X8064843Y9871756D01*
X7977136Y9943736D01*
X7905156Y10031443D01*
X7870971Y10095399D01*
X7851672Y10131505D01*
X7851671Y10131508D01*
X7818734Y10240084D01*
X7807613Y10353000D01*
X7818734Y10465916D01*
X7851671Y10574492D01*
X7851672Y10574495D01*
X7870971Y10610601D01*
X7905156Y10674557D01*
X7977136Y10762264D01*
X8064843Y10834244D01*
X8128799Y10868429D01*
X8164905Y10887728D01*
X8164908Y10887729D01*
X8273484Y10920666D01*
X8358102Y10929000D01*
X8614698Y10929000D01*
X8699316Y10920666D01*
G37*
G36*
X21036743Y12842639D02*
G01*
X21055968Y12840746D01*
X21142300Y12814557D01*
X21228634Y12788368D01*
X21387765Y12703311D01*
X21527244Y12588844D01*
X21641711Y12449365D01*
X21726768Y12290234D01*
X21726768Y12290233D01*
X21755662Y12194985D01*
X21779146Y12117567D01*
X21796832Y11938000D01*
X21779146Y11758433D01*
X21726768Y11585766D01*
X21641711Y11426635D01*
X21527244Y11287156D01*
X21387765Y11172689D01*
X21228634Y11087632D01*
X21055968Y11035254D01*
X21036743Y11033361D01*
X20921398Y11022000D01*
X20531402Y11022000D01*
X20416057Y11033361D01*
X20396832Y11035254D01*
X20224166Y11087632D01*
X20065035Y11172689D01*
X19925556Y11287156D01*
X19811089Y11426635D01*
X19726032Y11585766D01*
X19673654Y11758433D01*
X19655968Y11938000D01*
X19673654Y12117567D01*
X19697139Y12194985D01*
X19726032Y12290233D01*
X19726032Y12290234D01*
X19811089Y12449365D01*
X19925556Y12588844D01*
X20065035Y12703311D01*
X20224166Y12788368D01*
X20310500Y12814557D01*
X20396832Y12840746D01*
X20416057Y12842639D01*
X20531402Y12854000D01*
X20921398Y12854000D01*
X21036743Y12842639D01*
G37*
G36*
X6044415Y12846027D02*
G01*
X6148279Y12814521D01*
X6175455Y12799995D01*
X6244000Y12763357D01*
X6327901Y12694501D01*
X6396757Y12610600D01*
X6408386Y12588843D01*
X6447921Y12514879D01*
X6479427Y12411015D01*
X6490066Y12303000D01*
X6479427Y12194985D01*
X6447921Y12091121D01*
X6447919Y12091118D01*
X6396757Y11995400D01*
X6327901Y11911499D01*
X6244000Y11842643D01*
X6175455Y11806005D01*
X6148279Y11791479D01*
X6044415Y11759973D01*
X5963467Y11752000D01*
X5009333Y11752000D01*
X4928385Y11759973D01*
X4824521Y11791479D01*
X4797345Y11806005D01*
X4728800Y11842643D01*
X4644899Y11911499D01*
X4576043Y11995400D01*
X4524881Y12091118D01*
X4524879Y12091121D01*
X4493373Y12194985D01*
X4482734Y12303000D01*
X4493373Y12411015D01*
X4524879Y12514879D01*
X4564414Y12588843D01*
X4576043Y12610600D01*
X4644899Y12694501D01*
X4728800Y12763357D01*
X4797345Y12799995D01*
X4824521Y12814521D01*
X4928385Y12846027D01*
X5009333Y12854000D01*
X5963467Y12854000D01*
X6044415Y12846027D01*
G37*
M02*
