G04 #@! TF.GenerationSoftware,KiCad,Pcbnew,(5.1.5)-3*
G04 #@! TF.CreationDate,2020-03-05T17:26:28+00:00*
G04 #@! TF.ProjectId,DigiSpark.schBackup,44696769-5370-4617-926b-2e7363684261,rev?*
G04 #@! TF.SameCoordinates,PX4f296e0PY8afe530*
G04 #@! TF.FileFunction,Legend,Top*
G04 #@! TF.FilePolarity,Positive*
%FSLAX46Y46*%
G04 Gerber Fmt 4.6, Leading zero omitted, Abs format (unit mm)*
G04 Created by KiCad (PCBNEW (5.1.5)-3) date 2020-03-05 17:26:28*
%MOMM*%
%LPD*%
G04 APERTURE LIST*
%ADD10C,0.120000*%
%ADD11C,0.150000*%
G04 APERTURE END LIST*
D10*
X6366200Y48421600D02*
X6366200Y45761600D01*
X19126200Y48421600D02*
X6366200Y48421600D01*
X19126200Y45761600D02*
X6366200Y45761600D01*
X19126200Y48421600D02*
X19126200Y45761600D01*
X20396200Y48421600D02*
X21726200Y48421600D01*
X21726200Y48421600D02*
X21726200Y47091600D01*
X19483000Y15552052D02*
X19483000Y15029548D01*
X20903000Y15552052D02*
X20903000Y15029548D01*
X24992400Y15628252D02*
X24992400Y15105748D01*
X23572400Y15628252D02*
X23572400Y15105748D01*
X9153400Y31358400D02*
X9153400Y27458400D01*
X7153400Y31358400D02*
X7153400Y27458400D01*
X9153400Y31358400D02*
X7153400Y31358400D01*
X18862800Y18755800D02*
X20862800Y18755800D01*
X20862800Y18755800D02*
X20862800Y22655800D01*
X18862800Y18755800D02*
X18862800Y22655800D01*
X27016200Y32802000D02*
X29016200Y32802000D01*
X29016200Y32802000D02*
X29016200Y36702000D01*
X27016200Y32802000D02*
X27016200Y36702000D01*
X12070200Y21929600D02*
X12070200Y19069600D01*
X12070200Y19069600D02*
X13990200Y19069600D01*
X13990200Y19069600D02*
X13990200Y21929600D01*
X14091800Y14192800D02*
X14091800Y17052800D01*
X12171800Y14192800D02*
X14091800Y14192800D01*
X12171800Y17052800D02*
X12171800Y14192800D01*
X25054400Y27390600D02*
X25054400Y27990600D01*
X25354400Y27690600D02*
X25054400Y27990600D01*
X25354400Y27690600D02*
X25054400Y27390600D01*
X25584400Y22520600D02*
X25584400Y23390600D01*
X25584400Y30260600D02*
X27654400Y30260600D01*
X25584400Y22520600D02*
X27654400Y22520600D01*
X25584400Y29390600D02*
X25584400Y30260600D01*
X30054400Y30260600D02*
X30304400Y30260600D01*
X30054400Y22520600D02*
X30304400Y22520600D01*
X30323800Y12974000D02*
X24353800Y12974000D01*
X24353800Y12974000D02*
X24353800Y2854000D01*
X24353800Y2854000D02*
X30323800Y2854000D01*
X30323800Y2854000D02*
X30323800Y12974000D01*
X30313800Y9664000D02*
X29563800Y9664000D01*
X29563800Y9664000D02*
X29563800Y6164000D01*
X29563800Y6164000D02*
X30313800Y6164000D01*
X30313800Y6164000D02*
X30313800Y9664000D01*
X30313800Y12964000D02*
X29563800Y12964000D01*
X29563800Y12964000D02*
X29563800Y11164000D01*
X29563800Y11164000D02*
X30313800Y11164000D01*
X30313800Y11164000D02*
X30313800Y12964000D01*
X30313800Y4664000D02*
X29563800Y4664000D01*
X29563800Y4664000D02*
X29563800Y2864000D01*
X29563800Y2864000D02*
X30313800Y2864000D01*
X30313800Y2864000D02*
X30313800Y4664000D01*
X28063800Y12964000D02*
X28063800Y12214000D01*
X28063800Y12214000D02*
X26723800Y12214000D01*
X25113800Y7914000D02*
X25113800Y11154000D01*
X28063800Y2864000D02*
X28063800Y3614000D01*
X28063800Y3614000D02*
X25113800Y3614000D01*
X25113800Y3614000D02*
X25113800Y7914000D01*
X30613800Y12014000D02*
X30613800Y13264000D01*
X30613800Y13264000D02*
X29363800Y13264000D01*
X10245400Y10753400D02*
X7585400Y10753400D01*
X10245400Y8153400D02*
X10245400Y10753400D01*
X7585400Y8153400D02*
X7585400Y10753400D01*
X10245400Y8153400D02*
X7585400Y8153400D01*
X10245400Y6883400D02*
X10245400Y5553400D01*
X10245400Y5553400D02*
X8915400Y5553400D01*
X13142200Y30206200D02*
X13142200Y28366200D01*
X13142200Y28366200D02*
X16982200Y28366200D01*
X16982200Y28366200D02*
X16982200Y30206200D01*
X16982200Y30206200D02*
X13142200Y30206200D01*
X12192200Y29286200D02*
X13142200Y29286200D01*
X17932200Y29286200D02*
X16982200Y29286200D01*
X13011400Y27379800D02*
X13011400Y27709800D01*
X13011400Y27709800D02*
X19551400Y27709800D01*
X19551400Y27709800D02*
X19551400Y27379800D01*
X13011400Y25299800D02*
X13011400Y24969800D01*
X13011400Y24969800D02*
X19551400Y24969800D01*
X19551400Y24969800D02*
X19551400Y25299800D01*
X20956600Y33356800D02*
X21286600Y33356800D01*
X20956600Y39896800D02*
X20956600Y33356800D01*
X21286600Y39896800D02*
X20956600Y39896800D01*
X23696600Y33356800D02*
X23366600Y33356800D01*
X23696600Y39896800D02*
X23696600Y33356800D01*
X23366600Y39896800D02*
X23696600Y39896800D01*
X10819200Y21190852D02*
X10819200Y20668348D01*
X9399200Y21190852D02*
X9399200Y20668348D01*
X9399200Y16330452D02*
X9399200Y15807948D01*
X10819200Y16330452D02*
X10819200Y15807948D01*
X14193200Y10293400D02*
X14193200Y9033400D01*
X14193200Y3473400D02*
X14193200Y4733400D01*
X17953200Y10293400D02*
X14193200Y10293400D01*
X20203200Y3473400D02*
X14193200Y3473400D01*
X14995400Y41690600D02*
G75*
G02X12995400Y41690600I-1000000J0D01*
G01*
X12995400Y41690600D02*
X11345400Y41690600D01*
X11345400Y41690600D02*
X11345400Y31410600D01*
X11345400Y31410600D02*
X16645400Y31410600D01*
X16645400Y31410600D02*
X16645400Y41690600D01*
X16645400Y41690600D02*
X14995400Y41690600D01*
D11*
X22178580Y46758267D02*
X22892866Y46758267D01*
X23035723Y46710648D01*
X23130961Y46615410D01*
X23178580Y46472553D01*
X23178580Y46377315D01*
X22178580Y47139220D02*
X22178580Y47758267D01*
X22559533Y47424934D01*
X22559533Y47567791D01*
X22607152Y47663029D01*
X22654771Y47710648D01*
X22750009Y47758267D01*
X22988104Y47758267D01*
X23083342Y47710648D01*
X23130961Y47663029D01*
X23178580Y47567791D01*
X23178580Y47282077D01*
X23130961Y47186839D01*
X23083342Y47139220D01*
X22200142Y15124134D02*
X22247761Y15076515D01*
X22295380Y14933658D01*
X22295380Y14838420D01*
X22247761Y14695562D01*
X22152523Y14600324D01*
X22057285Y14552705D01*
X21866809Y14505086D01*
X21723952Y14505086D01*
X21533476Y14552705D01*
X21438238Y14600324D01*
X21343000Y14695562D01*
X21295380Y14838420D01*
X21295380Y14933658D01*
X21343000Y15076515D01*
X21390619Y15124134D01*
X22295380Y16076515D02*
X22295380Y15505086D01*
X22295380Y15790800D02*
X21295380Y15790800D01*
X21438238Y15695562D01*
X21533476Y15600324D01*
X21581095Y15505086D01*
X26289542Y15200334D02*
X26337161Y15152715D01*
X26384780Y15009858D01*
X26384780Y14914620D01*
X26337161Y14771762D01*
X26241923Y14676524D01*
X26146685Y14628905D01*
X25956209Y14581286D01*
X25813352Y14581286D01*
X25622876Y14628905D01*
X25527638Y14676524D01*
X25432400Y14771762D01*
X25384780Y14914620D01*
X25384780Y15009858D01*
X25432400Y15152715D01*
X25480019Y15200334D01*
X25480019Y15581286D02*
X25432400Y15628905D01*
X25384780Y15724143D01*
X25384780Y15962239D01*
X25432400Y16057477D01*
X25480019Y16105096D01*
X25575257Y16152715D01*
X25670495Y16152715D01*
X25813352Y16105096D01*
X26384780Y15533667D01*
X26384780Y16152715D01*
X10605780Y28370305D02*
X9605780Y28370305D01*
X9605780Y28608400D01*
X9653400Y28751258D01*
X9748638Y28846496D01*
X9843876Y28894115D01*
X10034352Y28941734D01*
X10177209Y28941734D01*
X10367685Y28894115D01*
X10462923Y28846496D01*
X10558161Y28751258D01*
X10605780Y28608400D01*
X10605780Y28370305D01*
X10605780Y29894115D02*
X10605780Y29322686D01*
X10605780Y29608400D02*
X9605780Y29608400D01*
X9748638Y29513162D01*
X9843876Y29417924D01*
X9891495Y29322686D01*
X18315180Y20267705D02*
X17315180Y20267705D01*
X17315180Y20505800D01*
X17362800Y20648658D01*
X17458038Y20743896D01*
X17553276Y20791515D01*
X17743752Y20839134D01*
X17886609Y20839134D01*
X18077085Y20791515D01*
X18172323Y20743896D01*
X18267561Y20648658D01*
X18315180Y20505800D01*
X18315180Y20267705D01*
X17410419Y21220086D02*
X17362800Y21267705D01*
X17315180Y21362943D01*
X17315180Y21601039D01*
X17362800Y21696277D01*
X17410419Y21743896D01*
X17505657Y21791515D01*
X17600895Y21791515D01*
X17743752Y21743896D01*
X18315180Y21172467D01*
X18315180Y21791515D01*
X26468580Y34313905D02*
X25468580Y34313905D01*
X25468580Y34552000D01*
X25516200Y34694858D01*
X25611438Y34790096D01*
X25706676Y34837715D01*
X25897152Y34885334D01*
X26040009Y34885334D01*
X26230485Y34837715D01*
X26325723Y34790096D01*
X26420961Y34694858D01*
X26468580Y34552000D01*
X26468580Y34313905D01*
X25468580Y35218667D02*
X25468580Y35837715D01*
X25849533Y35504381D01*
X25849533Y35647239D01*
X25897152Y35742477D01*
X25944771Y35790096D01*
X26040009Y35837715D01*
X26278104Y35837715D01*
X26373342Y35790096D01*
X26420961Y35742477D01*
X26468580Y35647239D01*
X26468580Y35361524D01*
X26420961Y35266286D01*
X26373342Y35218667D01*
X11832580Y20191505D02*
X10832580Y20191505D01*
X10832580Y20429600D01*
X10880200Y20572458D01*
X10975438Y20667696D01*
X11070676Y20715315D01*
X11261152Y20762934D01*
X11404009Y20762934D01*
X11594485Y20715315D01*
X11689723Y20667696D01*
X11784961Y20572458D01*
X11832580Y20429600D01*
X11832580Y20191505D01*
X11165914Y21620077D02*
X11832580Y21620077D01*
X10784961Y21381981D02*
X11499247Y21143886D01*
X11499247Y21762934D01*
X11934180Y15314705D02*
X10934180Y15314705D01*
X10934180Y15552800D01*
X10981800Y15695658D01*
X11077038Y15790896D01*
X11172276Y15838515D01*
X11362752Y15886134D01*
X11505609Y15886134D01*
X11696085Y15838515D01*
X11791323Y15790896D01*
X11886561Y15695658D01*
X11934180Y15552800D01*
X11934180Y15314705D01*
X10934180Y16790896D02*
X10934180Y16314705D01*
X11410371Y16267086D01*
X11362752Y16314705D01*
X11315133Y16409943D01*
X11315133Y16648039D01*
X11362752Y16743277D01*
X11410371Y16790896D01*
X11505609Y16838515D01*
X11743704Y16838515D01*
X11838942Y16790896D01*
X11886561Y16743277D01*
X11934180Y16648039D01*
X11934180Y16409943D01*
X11886561Y16314705D01*
X11838942Y16267086D01*
X23506780Y26057267D02*
X24221066Y26057267D01*
X24363923Y26009648D01*
X24459161Y25914410D01*
X24506780Y25771553D01*
X24506780Y25676315D01*
X24506780Y27057267D02*
X24506780Y26485839D01*
X24506780Y26771553D02*
X23506780Y26771553D01*
X23649638Y26676315D01*
X23744876Y26581077D01*
X23792495Y26485839D01*
X30866180Y7580667D02*
X31580466Y7580667D01*
X31723323Y7533048D01*
X31818561Y7437810D01*
X31866180Y7294953D01*
X31866180Y7199715D01*
X30961419Y8009239D02*
X30913800Y8056858D01*
X30866180Y8152096D01*
X30866180Y8390191D01*
X30913800Y8485429D01*
X30961419Y8533048D01*
X31056657Y8580667D01*
X31151895Y8580667D01*
X31294752Y8533048D01*
X31866180Y7961620D01*
X31866180Y8580667D01*
X8582066Y5101020D02*
X8582066Y4386734D01*
X8534447Y4243877D01*
X8439209Y4148639D01*
X8296352Y4101020D01*
X8201114Y4101020D01*
X9486828Y4767686D02*
X9486828Y4101020D01*
X9248733Y5148639D02*
X9010638Y4434353D01*
X9629685Y4434353D01*
X14895533Y30753820D02*
X14562200Y31230010D01*
X14324104Y30753820D02*
X14324104Y31753820D01*
X14705057Y31753820D01*
X14800295Y31706200D01*
X14847914Y31658581D01*
X14895533Y31563343D01*
X14895533Y31420486D01*
X14847914Y31325248D01*
X14800295Y31277629D01*
X14705057Y31230010D01*
X14324104Y31230010D01*
X15847914Y30753820D02*
X15276485Y30753820D01*
X15562200Y30753820D02*
X15562200Y31753820D01*
X15466961Y31610962D01*
X15371723Y31515724D01*
X15276485Y31468105D01*
X16114733Y28257420D02*
X15781400Y28733610D01*
X15543304Y28257420D02*
X15543304Y29257420D01*
X15924257Y29257420D01*
X16019495Y29209800D01*
X16067114Y29162181D01*
X16114733Y29066943D01*
X16114733Y28924086D01*
X16067114Y28828848D01*
X16019495Y28781229D01*
X15924257Y28733610D01*
X15543304Y28733610D01*
X16495685Y29162181D02*
X16543304Y29209800D01*
X16638542Y29257420D01*
X16876638Y29257420D01*
X16971876Y29209800D01*
X17019495Y29162181D01*
X17067114Y29066943D01*
X17067114Y28971705D01*
X17019495Y28828848D01*
X16448066Y28257420D01*
X17067114Y28257420D01*
X25148980Y36460134D02*
X24672790Y36126800D01*
X25148980Y35888705D02*
X24148980Y35888705D01*
X24148980Y36269658D01*
X24196600Y36364896D01*
X24244219Y36412515D01*
X24339457Y36460134D01*
X24482314Y36460134D01*
X24577552Y36412515D01*
X24625171Y36364896D01*
X24672790Y36269658D01*
X24672790Y35888705D01*
X24148980Y36793467D02*
X24148980Y37412515D01*
X24529933Y37079181D01*
X24529933Y37222039D01*
X24577552Y37317277D01*
X24625171Y37364896D01*
X24720409Y37412515D01*
X24958504Y37412515D01*
X25053742Y37364896D01*
X25101361Y37317277D01*
X25148980Y37222039D01*
X25148980Y36936324D01*
X25101361Y36841086D01*
X25053742Y36793467D01*
X12211580Y20762934D02*
X11735390Y20429600D01*
X12211580Y20191505D02*
X11211580Y20191505D01*
X11211580Y20572458D01*
X11259200Y20667696D01*
X11306819Y20715315D01*
X11402057Y20762934D01*
X11544914Y20762934D01*
X11640152Y20715315D01*
X11687771Y20667696D01*
X11735390Y20572458D01*
X11735390Y20191505D01*
X11544914Y21620077D02*
X12211580Y21620077D01*
X11163961Y21381981D02*
X11878247Y21143886D01*
X11878247Y21762934D01*
X12211580Y15902534D02*
X11735390Y15569200D01*
X12211580Y15331105D02*
X11211580Y15331105D01*
X11211580Y15712058D01*
X11259200Y15807296D01*
X11306819Y15854915D01*
X11402057Y15902534D01*
X11544914Y15902534D01*
X11640152Y15854915D01*
X11687771Y15807296D01*
X11735390Y15712058D01*
X11735390Y15331105D01*
X11211580Y16807296D02*
X11211580Y16331105D01*
X11687771Y16283486D01*
X11640152Y16331105D01*
X11592533Y16426343D01*
X11592533Y16664439D01*
X11640152Y16759677D01*
X11687771Y16807296D01*
X11783009Y16854915D01*
X12021104Y16854915D01*
X12116342Y16807296D01*
X12163961Y16759677D01*
X12211580Y16664439D01*
X12211580Y16426343D01*
X12163961Y16331105D01*
X12116342Y16283486D01*
X15341295Y2931020D02*
X15341295Y2121496D01*
X15388914Y2026258D01*
X15436533Y1978639D01*
X15531771Y1931020D01*
X15722247Y1931020D01*
X15817485Y1978639D01*
X15865104Y2026258D01*
X15912723Y2121496D01*
X15912723Y2931020D01*
X16912723Y1931020D02*
X16341295Y1931020D01*
X16627009Y1931020D02*
X16627009Y2931020D01*
X16531771Y2788162D01*
X16436533Y2692924D01*
X16341295Y2645305D01*
X13233495Y43238220D02*
X13233495Y42428696D01*
X13281114Y42333458D01*
X13328733Y42285839D01*
X13423971Y42238220D01*
X13614447Y42238220D01*
X13709685Y42285839D01*
X13757304Y42333458D01*
X13804923Y42428696D01*
X13804923Y43238220D01*
X14233495Y43142981D02*
X14281114Y43190600D01*
X14376352Y43238220D01*
X14614447Y43238220D01*
X14709685Y43190600D01*
X14757304Y43142981D01*
X14804923Y43047743D01*
X14804923Y42952505D01*
X14757304Y42809648D01*
X14185876Y42238220D01*
X14804923Y42238220D01*
M02*
