M48
; DRILL file {KiCad (5.1.5)-3} date 05/03/2020 17:26:46
; FORMAT={-:-/ absolute / metric / decimal}
; #@! TF.CreationDate,2020-03-05T17:26:46+00:00
; #@! TF.GenerationSoftware,Kicad,Pcbnew,(5.1.5)-3
; #@! TF.FileFunction,Plated,1,2,PTH
FMAT,2
METRIC
T1C0.400
T2C0.600
T3C0.650
T4C0.700
T5C0.800
T6C0.950
T7C1.000
%
G90
G05
T1
X7.417Y22.174
X7.823Y32.715
X8.23Y25.019
T4
X11.252Y29.286
X18.872Y29.286
T5
X22.327Y40.437
X22.327Y32.817
X10.185Y40.361
X10.185Y37.821
X10.185Y35.281
X10.185Y32.741
X17.805Y40.361
X17.805Y37.821
X17.805Y35.281
X17.805Y32.741
X12.471Y26.34
X20.091Y26.34
T6
X27.864Y10.414
X27.864Y7.914
X27.864Y5.414
T7
X8.915Y9.423
X8.915Y6.883
X7.696Y47.092
X10.236Y47.092
X12.776Y47.092
X15.316Y47.092
X17.856Y47.092
X20.396Y47.092
T2
G00X28.504Y30.566
M15
G01X29.204Y30.566
M16
G05
G00X28.504Y22.216
M15
G01X29.204Y22.216
M16
G05
T3
G00X25.754Y28.616
M15
G01X25.954Y28.616
M16
G05
G00X25.754Y24.166
M15
G01X25.954Y24.166
M16
G05
T0
M30
