G04 #@! TF.GenerationSoftware,KiCad,Pcbnew,(5.1.5)-3*
G04 #@! TF.CreationDate,2020-03-05T17:26:28+00:00*
G04 #@! TF.ProjectId,DigiSpark.schBackup,44696769-5370-4617-926b-2e7363684261,rev?*
G04 #@! TF.SameCoordinates,PX4f296e0PY8afe530*
G04 #@! TF.FileFunction,Soldermask,Bot*
G04 #@! TF.FilePolarity,Negative*
%FSLAX46Y46*%
G04 Gerber Fmt 4.6, Leading zero omitted, Abs format (unit mm)*
G04 Created by KiCad (PCBNEW (5.1.5)-3) date 2020-03-05 17:26:28*
%MOMM*%
%LPD*%
G04 APERTURE LIST*
%ADD10C,0.100000*%
G04 APERTURE END LIST*
D10*
G36*
X28099242Y6308482D02*
G01*
X28165427Y6301963D01*
X28335266Y6250443D01*
X28491791Y6166778D01*
X28527529Y6137448D01*
X28628986Y6054186D01*
X28687898Y5982400D01*
X28741578Y5916991D01*
X28825243Y5760466D01*
X28876763Y5590627D01*
X28894159Y5414000D01*
X28876763Y5237373D01*
X28825243Y5067534D01*
X28741578Y4911009D01*
X28712248Y4875271D01*
X28628986Y4773814D01*
X28527529Y4690552D01*
X28491791Y4661222D01*
X28335266Y4577557D01*
X28165427Y4526037D01*
X28099243Y4519519D01*
X28033060Y4513000D01*
X27694540Y4513000D01*
X27628357Y4519519D01*
X27562173Y4526037D01*
X27392334Y4577557D01*
X27235809Y4661222D01*
X27200071Y4690552D01*
X27098614Y4773814D01*
X27015352Y4875271D01*
X26986022Y4911009D01*
X26902357Y5067534D01*
X26850837Y5237373D01*
X26833441Y5414000D01*
X26850837Y5590627D01*
X26902357Y5760466D01*
X26986022Y5916991D01*
X27039702Y5982400D01*
X27098614Y6054186D01*
X27200071Y6137448D01*
X27235809Y6166778D01*
X27392334Y6250443D01*
X27562173Y6301963D01*
X27628358Y6308482D01*
X27694540Y6315000D01*
X28033060Y6315000D01*
X28099242Y6308482D01*
G37*
G36*
X9816400Y5982400D02*
G01*
X8014400Y5982400D01*
X8014400Y7784400D01*
X9816400Y7784400D01*
X9816400Y5982400D01*
G37*
G36*
X28099243Y8808481D02*
G01*
X28165427Y8801963D01*
X28335266Y8750443D01*
X28335268Y8750442D01*
X28413529Y8708610D01*
X28491791Y8666778D01*
X28527529Y8637448D01*
X28628986Y8554186D01*
X28712248Y8452729D01*
X28741578Y8416991D01*
X28825243Y8260466D01*
X28876763Y8090627D01*
X28894159Y7914000D01*
X28876763Y7737373D01*
X28825243Y7567534D01*
X28741578Y7411009D01*
X28712248Y7375271D01*
X28628986Y7273814D01*
X28527529Y7190552D01*
X28491791Y7161222D01*
X28335266Y7077557D01*
X28165427Y7026037D01*
X28099243Y7019519D01*
X28033060Y7013000D01*
X27694540Y7013000D01*
X27628357Y7019519D01*
X27562173Y7026037D01*
X27392334Y7077557D01*
X27235809Y7161222D01*
X27200071Y7190552D01*
X27098614Y7273814D01*
X27015352Y7375271D01*
X26986022Y7411009D01*
X26902357Y7567534D01*
X26850837Y7737373D01*
X26833441Y7914000D01*
X26850837Y8090627D01*
X26902357Y8260466D01*
X26986022Y8416991D01*
X27015352Y8452729D01*
X27098614Y8554186D01*
X27200071Y8637448D01*
X27235809Y8666778D01*
X27314071Y8708610D01*
X27392332Y8750442D01*
X27392334Y8750443D01*
X27562173Y8801963D01*
X27628357Y8808481D01*
X27694540Y8815000D01*
X28033060Y8815000D01*
X28099243Y8808481D01*
G37*
G36*
X9028912Y10319473D02*
G01*
X9178212Y10289776D01*
X9342184Y10221856D01*
X9489754Y10123253D01*
X9615253Y9997754D01*
X9713856Y9850184D01*
X9781776Y9686212D01*
X9805846Y9565201D01*
X9813442Y9527015D01*
X9816400Y9512141D01*
X9816400Y9334659D01*
X9781776Y9160588D01*
X9713856Y8996616D01*
X9615253Y8849046D01*
X9489754Y8723547D01*
X9342184Y8624944D01*
X9178212Y8557024D01*
X9028912Y8527327D01*
X9004142Y8522400D01*
X8826658Y8522400D01*
X8801888Y8527327D01*
X8652588Y8557024D01*
X8488616Y8624944D01*
X8341046Y8723547D01*
X8215547Y8849046D01*
X8116944Y8996616D01*
X8049024Y9160588D01*
X8014400Y9334659D01*
X8014400Y9512141D01*
X8017359Y9527015D01*
X8024954Y9565201D01*
X8049024Y9686212D01*
X8116944Y9850184D01*
X8215547Y9997754D01*
X8341046Y10123253D01*
X8488616Y10221856D01*
X8652588Y10289776D01*
X8801888Y10319473D01*
X8826658Y10324400D01*
X9004142Y10324400D01*
X9028912Y10319473D01*
G37*
G36*
X28747400Y11311011D02*
G01*
X28780452Y11300985D01*
X28810903Y11284708D01*
X28837599Y11262799D01*
X28859508Y11236103D01*
X28875785Y11205652D01*
X28885811Y11172600D01*
X28889800Y11132097D01*
X28889800Y9695903D01*
X28885811Y9655400D01*
X28875785Y9622348D01*
X28859508Y9591897D01*
X28837599Y9565201D01*
X28810903Y9543292D01*
X28780452Y9527015D01*
X28747400Y9516989D01*
X28706897Y9513000D01*
X27020703Y9513000D01*
X26980200Y9516989D01*
X26947148Y9527015D01*
X26916697Y9543292D01*
X26890001Y9565201D01*
X26868092Y9591897D01*
X26851815Y9622348D01*
X26841789Y9655400D01*
X26837800Y9695903D01*
X26837800Y11132097D01*
X26841789Y11172600D01*
X26851815Y11205652D01*
X26868092Y11236103D01*
X26890001Y11262799D01*
X26916697Y11284708D01*
X26947148Y11300985D01*
X26980200Y11311011D01*
X27020703Y11315000D01*
X28706897Y11315000D01*
X28747400Y11311011D01*
G37*
G36*
X26053690Y12639983D02*
G01*
X26172164Y12590909D01*
X26278788Y12519665D01*
X26369465Y12428988D01*
X26440709Y12322364D01*
X26489783Y12203890D01*
X26514800Y12078118D01*
X26514800Y11949882D01*
X26489783Y11824110D01*
X26440709Y11705636D01*
X26369465Y11599012D01*
X26278788Y11508335D01*
X26172164Y11437091D01*
X26172163Y11437090D01*
X26172162Y11437090D01*
X26053690Y11388017D01*
X25927919Y11363000D01*
X25799681Y11363000D01*
X25673910Y11388017D01*
X25555438Y11437090D01*
X25555437Y11437090D01*
X25555436Y11437091D01*
X25448812Y11508335D01*
X25358135Y11599012D01*
X25286891Y11705636D01*
X25237817Y11824110D01*
X25212800Y11949882D01*
X25212800Y12078118D01*
X25237817Y12203890D01*
X25286891Y12322364D01*
X25358135Y12428988D01*
X25448812Y12519665D01*
X25555436Y12590909D01*
X25673910Y12639983D01*
X25799681Y12665000D01*
X25927919Y12665000D01*
X26053690Y12639983D01*
G37*
G36*
X29412415Y22758627D02*
G01*
X29516279Y22727121D01*
X29543455Y22712595D01*
X29612000Y22675957D01*
X29695901Y22607101D01*
X29764757Y22523200D01*
X29801395Y22454655D01*
X29815921Y22427479D01*
X29847427Y22323615D01*
X29858066Y22215600D01*
X29847427Y22107585D01*
X29815921Y22003721D01*
X29815919Y22003718D01*
X29764757Y21908000D01*
X29695901Y21824099D01*
X29612000Y21755243D01*
X29543455Y21718605D01*
X29516279Y21704079D01*
X29412415Y21672573D01*
X29331467Y21664600D01*
X28377333Y21664600D01*
X28296385Y21672573D01*
X28192521Y21704079D01*
X28165345Y21718605D01*
X28096800Y21755243D01*
X28012899Y21824099D01*
X27944043Y21908000D01*
X27892881Y22003718D01*
X27892879Y22003721D01*
X27861373Y22107585D01*
X27850734Y22215600D01*
X27861373Y22323615D01*
X27892879Y22427479D01*
X27907405Y22454655D01*
X27944043Y22523200D01*
X28012899Y22607101D01*
X28096800Y22675957D01*
X28165345Y22712595D01*
X28192521Y22727121D01*
X28296385Y22758627D01*
X28377333Y22766600D01*
X29331467Y22766600D01*
X29412415Y22758627D01*
G37*
G36*
X26067316Y24733266D02*
G01*
X26175892Y24700329D01*
X26175895Y24700328D01*
X26212001Y24681029D01*
X26275957Y24646844D01*
X26363664Y24574864D01*
X26435644Y24487157D01*
X26469829Y24423201D01*
X26489128Y24387095D01*
X26489129Y24387092D01*
X26522066Y24278516D01*
X26533187Y24165600D01*
X26522066Y24052684D01*
X26489129Y23944108D01*
X26489128Y23944105D01*
X26469829Y23907999D01*
X26435644Y23844043D01*
X26363664Y23756336D01*
X26275957Y23684356D01*
X26212001Y23650171D01*
X26175895Y23630872D01*
X26175892Y23630871D01*
X26067316Y23597934D01*
X25982698Y23589600D01*
X25726102Y23589600D01*
X25641484Y23597934D01*
X25532908Y23630871D01*
X25532905Y23630872D01*
X25496799Y23650171D01*
X25432843Y23684356D01*
X25345136Y23756336D01*
X25273156Y23844043D01*
X25238971Y23907999D01*
X25219672Y23944105D01*
X25219671Y23944108D01*
X25186734Y24052684D01*
X25175613Y24165600D01*
X25186734Y24278516D01*
X25219671Y24387092D01*
X25219672Y24387095D01*
X25238971Y24423201D01*
X25273156Y24487157D01*
X25345136Y24574864D01*
X25432843Y24646844D01*
X25496799Y24681029D01*
X25532905Y24700328D01*
X25532908Y24700329D01*
X25641484Y24733266D01*
X25726102Y24741600D01*
X25982698Y24741600D01*
X26067316Y24733266D01*
G37*
G36*
X20339628Y27158097D02*
G01*
X20494500Y27093947D01*
X20633881Y27000815D01*
X20752415Y26882281D01*
X20845547Y26742900D01*
X20909697Y26588028D01*
X20942400Y26423616D01*
X20942400Y26255984D01*
X20909697Y26091572D01*
X20845547Y25936700D01*
X20752415Y25797319D01*
X20633881Y25678785D01*
X20494500Y25585653D01*
X20339628Y25521503D01*
X20175216Y25488800D01*
X20007584Y25488800D01*
X19843172Y25521503D01*
X19688300Y25585653D01*
X19548919Y25678785D01*
X19430385Y25797319D01*
X19337253Y25936700D01*
X19273103Y26091572D01*
X19240400Y26255984D01*
X19240400Y26423616D01*
X19273103Y26588028D01*
X19337253Y26742900D01*
X19430385Y26882281D01*
X19548919Y27000815D01*
X19688300Y27093947D01*
X19843172Y27158097D01*
X20007584Y27190800D01*
X20175216Y27190800D01*
X20339628Y27158097D01*
G37*
G36*
X12719628Y27158097D02*
G01*
X12874500Y27093947D01*
X13013881Y27000815D01*
X13132415Y26882281D01*
X13225547Y26742900D01*
X13289697Y26588028D01*
X13322400Y26423616D01*
X13322400Y26255984D01*
X13289697Y26091572D01*
X13225547Y25936700D01*
X13132415Y25797319D01*
X13013881Y25678785D01*
X12874500Y25585653D01*
X12719628Y25521503D01*
X12555216Y25488800D01*
X12387584Y25488800D01*
X12223172Y25521503D01*
X12068300Y25585653D01*
X11928919Y25678785D01*
X11810385Y25797319D01*
X11717253Y25936700D01*
X11653103Y26091572D01*
X11620400Y26255984D01*
X11620400Y26423616D01*
X11653103Y26588028D01*
X11717253Y26742900D01*
X11810385Y26882281D01*
X11928919Y27000815D01*
X12068300Y27093947D01*
X12223172Y27158097D01*
X12387584Y27190800D01*
X12555216Y27190800D01*
X12719628Y27158097D01*
G37*
G36*
X26067316Y29183266D02*
G01*
X26175892Y29150329D01*
X26175895Y29150328D01*
X26212001Y29131029D01*
X26275957Y29096844D01*
X26363664Y29024864D01*
X26435644Y28937157D01*
X26469829Y28873201D01*
X26489128Y28837095D01*
X26489129Y28837092D01*
X26522066Y28728516D01*
X26533187Y28615600D01*
X26522066Y28502684D01*
X26489129Y28394108D01*
X26489128Y28394105D01*
X26469829Y28357999D01*
X26435644Y28294043D01*
X26363664Y28206336D01*
X26275957Y28134356D01*
X26212001Y28100171D01*
X26175895Y28080872D01*
X26175892Y28080871D01*
X26067316Y28047934D01*
X25982698Y28039600D01*
X25726102Y28039600D01*
X25641484Y28047934D01*
X25532908Y28080871D01*
X25532905Y28080872D01*
X25496799Y28100171D01*
X25432843Y28134356D01*
X25345136Y28206336D01*
X25273156Y28294043D01*
X25238971Y28357999D01*
X25219672Y28394105D01*
X25219671Y28394108D01*
X25186734Y28502684D01*
X25175613Y28615600D01*
X25186734Y28728516D01*
X25219671Y28837092D01*
X25219672Y28837095D01*
X25238971Y28873201D01*
X25273156Y28937157D01*
X25345136Y29024864D01*
X25432843Y29096844D01*
X25496799Y29131029D01*
X25532905Y29150328D01*
X25532908Y29150329D01*
X25641484Y29183266D01*
X25726102Y29191600D01*
X25982698Y29191600D01*
X26067316Y29183266D01*
G37*
G36*
X11439787Y30014600D02*
G01*
X11471259Y30008340D01*
X11607932Y29951728D01*
X11730935Y29869540D01*
X11835540Y29764935D01*
X11917728Y29641932D01*
X11974340Y29505259D01*
X12003200Y29360167D01*
X12003200Y29212233D01*
X11974340Y29067141D01*
X11917728Y28930468D01*
X11835540Y28807465D01*
X11730935Y28702860D01*
X11607932Y28620672D01*
X11607931Y28620671D01*
X11607930Y28620671D01*
X11471259Y28564060D01*
X11326168Y28535200D01*
X11178232Y28535200D01*
X11033141Y28564060D01*
X10896470Y28620671D01*
X10896469Y28620671D01*
X10896468Y28620672D01*
X10773465Y28702860D01*
X10668860Y28807465D01*
X10586672Y28930468D01*
X10530060Y29067141D01*
X10501200Y29212233D01*
X10501200Y29360167D01*
X10530060Y29505259D01*
X10586672Y29641932D01*
X10668860Y29764935D01*
X10773465Y29869540D01*
X10896468Y29951728D01*
X11033141Y30008340D01*
X11064613Y30014600D01*
X11178232Y30037200D01*
X11326168Y30037200D01*
X11439787Y30014600D01*
G37*
G36*
X19059787Y30014600D02*
G01*
X19091259Y30008340D01*
X19227932Y29951728D01*
X19350935Y29869540D01*
X19455540Y29764935D01*
X19537728Y29641932D01*
X19594340Y29505259D01*
X19623200Y29360167D01*
X19623200Y29212233D01*
X19594340Y29067141D01*
X19537728Y28930468D01*
X19455540Y28807465D01*
X19350935Y28702860D01*
X19227932Y28620672D01*
X19227931Y28620671D01*
X19227930Y28620671D01*
X19091259Y28564060D01*
X18946168Y28535200D01*
X18798232Y28535200D01*
X18653141Y28564060D01*
X18516470Y28620671D01*
X18516469Y28620671D01*
X18516468Y28620672D01*
X18393465Y28702860D01*
X18288860Y28807465D01*
X18206672Y28930468D01*
X18150060Y29067141D01*
X18121200Y29212233D01*
X18121200Y29360167D01*
X18150060Y29505259D01*
X18206672Y29641932D01*
X18288860Y29764935D01*
X18393465Y29869540D01*
X18516468Y29951728D01*
X18653141Y30008340D01*
X18684613Y30014600D01*
X18798232Y30037200D01*
X18946168Y30037200D01*
X19059787Y30014600D01*
G37*
G36*
X29412415Y31108627D02*
G01*
X29516279Y31077121D01*
X29543455Y31062595D01*
X29612000Y31025957D01*
X29695901Y30957101D01*
X29764757Y30873200D01*
X29801395Y30804655D01*
X29815921Y30777479D01*
X29847427Y30673615D01*
X29858066Y30565600D01*
X29847427Y30457585D01*
X29815921Y30353721D01*
X29815919Y30353718D01*
X29764757Y30258000D01*
X29695901Y30174099D01*
X29612000Y30105243D01*
X29543455Y30068605D01*
X29516279Y30054079D01*
X29412415Y30022573D01*
X29331467Y30014600D01*
X28377333Y30014600D01*
X28296385Y30022573D01*
X28192521Y30054079D01*
X28165345Y30068605D01*
X28096800Y30105243D01*
X28012899Y30174099D01*
X27944043Y30258000D01*
X27892881Y30353718D01*
X27892879Y30353721D01*
X27861373Y30457585D01*
X27850734Y30565600D01*
X27861373Y30673615D01*
X27892879Y30777479D01*
X27907405Y30804655D01*
X27944043Y30873200D01*
X28012899Y30957101D01*
X28096800Y31025957D01*
X28165345Y31062595D01*
X28192521Y31077121D01*
X28296385Y31108627D01*
X28377333Y31116600D01*
X29331467Y31116600D01*
X29412415Y31108627D01*
G37*
G36*
X10433628Y33558897D02*
G01*
X10588500Y33494747D01*
X10727881Y33401615D01*
X10846415Y33283081D01*
X10939547Y33143700D01*
X11003697Y32988828D01*
X11036400Y32824416D01*
X11036400Y32656784D01*
X11003697Y32492372D01*
X10939547Y32337500D01*
X10846415Y32198119D01*
X10727881Y32079585D01*
X10588500Y31986453D01*
X10433628Y31922303D01*
X10269216Y31889600D01*
X10101584Y31889600D01*
X9937172Y31922303D01*
X9782300Y31986453D01*
X9642919Y32079585D01*
X9524385Y32198119D01*
X9431253Y32337500D01*
X9367103Y32492372D01*
X9334400Y32656784D01*
X9334400Y32824416D01*
X9367103Y32988828D01*
X9431253Y33143700D01*
X9524385Y33283081D01*
X9642919Y33401615D01*
X9782300Y33494747D01*
X9937172Y33558897D01*
X10101584Y33591600D01*
X10269216Y33591600D01*
X10433628Y33558897D01*
G37*
G36*
X18053628Y33558897D02*
G01*
X18208500Y33494747D01*
X18347881Y33401615D01*
X18466415Y33283081D01*
X18559547Y33143700D01*
X18623697Y32988828D01*
X18656400Y32824416D01*
X18656400Y32656784D01*
X18623697Y32492372D01*
X18559547Y32337500D01*
X18466415Y32198119D01*
X18347881Y32079585D01*
X18208500Y31986453D01*
X18053628Y31922303D01*
X17889216Y31889600D01*
X17721584Y31889600D01*
X17557172Y31922303D01*
X17402300Y31986453D01*
X17262919Y32079585D01*
X17144385Y32198119D01*
X17051253Y32337500D01*
X16987103Y32492372D01*
X16954400Y32656784D01*
X16954400Y32824416D01*
X16987103Y32988828D01*
X17051253Y33143700D01*
X17144385Y33283081D01*
X17262919Y33401615D01*
X17402300Y33494747D01*
X17557172Y33558897D01*
X17721584Y33591600D01*
X17889216Y33591600D01*
X18053628Y33558897D01*
G37*
G36*
X22574828Y33635097D02*
G01*
X22729700Y33570947D01*
X22869081Y33477815D01*
X22987615Y33359281D01*
X23080747Y33219900D01*
X23144897Y33065028D01*
X23177600Y32900616D01*
X23177600Y32732984D01*
X23144897Y32568572D01*
X23080747Y32413700D01*
X22987615Y32274319D01*
X22869081Y32155785D01*
X22729700Y32062653D01*
X22574828Y31998503D01*
X22410416Y31965800D01*
X22242784Y31965800D01*
X22078372Y31998503D01*
X21923500Y32062653D01*
X21784119Y32155785D01*
X21665585Y32274319D01*
X21572453Y32413700D01*
X21508303Y32568572D01*
X21475600Y32732984D01*
X21475600Y32900616D01*
X21508303Y33065028D01*
X21572453Y33219900D01*
X21665585Y33359281D01*
X21784119Y33477815D01*
X21923500Y33570947D01*
X22078372Y33635097D01*
X22242784Y33667800D01*
X22410416Y33667800D01*
X22574828Y33635097D01*
G37*
G36*
X18053628Y36098897D02*
G01*
X18208500Y36034747D01*
X18347881Y35941615D01*
X18466415Y35823081D01*
X18559547Y35683700D01*
X18623697Y35528828D01*
X18656400Y35364416D01*
X18656400Y35196784D01*
X18623697Y35032372D01*
X18559547Y34877500D01*
X18466415Y34738119D01*
X18347881Y34619585D01*
X18208500Y34526453D01*
X18053628Y34462303D01*
X17889216Y34429600D01*
X17721584Y34429600D01*
X17557172Y34462303D01*
X17402300Y34526453D01*
X17262919Y34619585D01*
X17144385Y34738119D01*
X17051253Y34877500D01*
X16987103Y35032372D01*
X16954400Y35196784D01*
X16954400Y35364416D01*
X16987103Y35528828D01*
X17051253Y35683700D01*
X17144385Y35823081D01*
X17262919Y35941615D01*
X17402300Y36034747D01*
X17557172Y36098897D01*
X17721584Y36131600D01*
X17889216Y36131600D01*
X18053628Y36098897D01*
G37*
G36*
X10433628Y36098897D02*
G01*
X10588500Y36034747D01*
X10727881Y35941615D01*
X10846415Y35823081D01*
X10939547Y35683700D01*
X11003697Y35528828D01*
X11036400Y35364416D01*
X11036400Y35196784D01*
X11003697Y35032372D01*
X10939547Y34877500D01*
X10846415Y34738119D01*
X10727881Y34619585D01*
X10588500Y34526453D01*
X10433628Y34462303D01*
X10269216Y34429600D01*
X10101584Y34429600D01*
X9937172Y34462303D01*
X9782300Y34526453D01*
X9642919Y34619585D01*
X9524385Y34738119D01*
X9431253Y34877500D01*
X9367103Y35032372D01*
X9334400Y35196784D01*
X9334400Y35364416D01*
X9367103Y35528828D01*
X9431253Y35683700D01*
X9524385Y35823081D01*
X9642919Y35941615D01*
X9782300Y36034747D01*
X9937172Y36098897D01*
X10101584Y36131600D01*
X10269216Y36131600D01*
X10433628Y36098897D01*
G37*
G36*
X10433628Y38638897D02*
G01*
X10588500Y38574747D01*
X10727881Y38481615D01*
X10846415Y38363081D01*
X10939547Y38223700D01*
X11003697Y38068828D01*
X11036400Y37904416D01*
X11036400Y37736784D01*
X11003697Y37572372D01*
X10939547Y37417500D01*
X10846415Y37278119D01*
X10727881Y37159585D01*
X10588500Y37066453D01*
X10433628Y37002303D01*
X10269216Y36969600D01*
X10101584Y36969600D01*
X9937172Y37002303D01*
X9782300Y37066453D01*
X9642919Y37159585D01*
X9524385Y37278119D01*
X9431253Y37417500D01*
X9367103Y37572372D01*
X9334400Y37736784D01*
X9334400Y37904416D01*
X9367103Y38068828D01*
X9431253Y38223700D01*
X9524385Y38363081D01*
X9642919Y38481615D01*
X9782300Y38574747D01*
X9937172Y38638897D01*
X10101584Y38671600D01*
X10269216Y38671600D01*
X10433628Y38638897D01*
G37*
G36*
X18053628Y38638897D02*
G01*
X18208500Y38574747D01*
X18347881Y38481615D01*
X18466415Y38363081D01*
X18559547Y38223700D01*
X18623697Y38068828D01*
X18656400Y37904416D01*
X18656400Y37736784D01*
X18623697Y37572372D01*
X18559547Y37417500D01*
X18466415Y37278119D01*
X18347881Y37159585D01*
X18208500Y37066453D01*
X18053628Y37002303D01*
X17889216Y36969600D01*
X17721584Y36969600D01*
X17557172Y37002303D01*
X17402300Y37066453D01*
X17262919Y37159585D01*
X17144385Y37278119D01*
X17051253Y37417500D01*
X16987103Y37572372D01*
X16954400Y37736784D01*
X16954400Y37904416D01*
X16987103Y38068828D01*
X17051253Y38223700D01*
X17144385Y38363081D01*
X17262919Y38481615D01*
X17402300Y38574747D01*
X17557172Y38638897D01*
X17721584Y38671600D01*
X17889216Y38671600D01*
X18053628Y38638897D01*
G37*
G36*
X11036400Y39509600D02*
G01*
X9334400Y39509600D01*
X9334400Y41211600D01*
X11036400Y41211600D01*
X11036400Y39509600D01*
G37*
G36*
X18053628Y41178897D02*
G01*
X18208500Y41114747D01*
X18347881Y41021615D01*
X18466415Y40903081D01*
X18559547Y40763700D01*
X18623697Y40608828D01*
X18656400Y40444416D01*
X18656400Y40276784D01*
X18623697Y40112372D01*
X18559547Y39957500D01*
X18466415Y39818119D01*
X18347881Y39699585D01*
X18208500Y39606453D01*
X18053628Y39542303D01*
X17889216Y39509600D01*
X17721584Y39509600D01*
X17557172Y39542303D01*
X17402300Y39606453D01*
X17262919Y39699585D01*
X17144385Y39818119D01*
X17051253Y39957500D01*
X16987103Y40112372D01*
X16954400Y40276784D01*
X16954400Y40444416D01*
X16987103Y40608828D01*
X17051253Y40763700D01*
X17144385Y40903081D01*
X17262919Y41021615D01*
X17402300Y41114747D01*
X17557172Y41178897D01*
X17721584Y41211600D01*
X17889216Y41211600D01*
X18053628Y41178897D01*
G37*
G36*
X22574828Y41255097D02*
G01*
X22729700Y41190947D01*
X22869081Y41097815D01*
X22987615Y40979281D01*
X23080747Y40839900D01*
X23144897Y40685028D01*
X23177600Y40520616D01*
X23177600Y40352984D01*
X23144897Y40188572D01*
X23080747Y40033700D01*
X22987615Y39894319D01*
X22869081Y39775785D01*
X22729700Y39682653D01*
X22574828Y39618503D01*
X22410416Y39585800D01*
X22242784Y39585800D01*
X22078372Y39618503D01*
X21923500Y39682653D01*
X21784119Y39775785D01*
X21665585Y39894319D01*
X21572453Y40033700D01*
X21508303Y40188572D01*
X21475600Y40352984D01*
X21475600Y40520616D01*
X21508303Y40685028D01*
X21572453Y40839900D01*
X21665585Y40979281D01*
X21784119Y41097815D01*
X21923500Y41190947D01*
X22078372Y41255097D01*
X22242784Y41287800D01*
X22410416Y41287800D01*
X22574828Y41255097D01*
G37*
G36*
X7809712Y47987673D02*
G01*
X7959012Y47957976D01*
X8122984Y47890056D01*
X8270554Y47791453D01*
X8396053Y47665954D01*
X8494656Y47518384D01*
X8562576Y47354412D01*
X8597200Y47180341D01*
X8597200Y47002859D01*
X8562576Y46828788D01*
X8494656Y46664816D01*
X8396053Y46517246D01*
X8270554Y46391747D01*
X8122984Y46293144D01*
X7959012Y46225224D01*
X7809712Y46195527D01*
X7784942Y46190600D01*
X7607458Y46190600D01*
X7582688Y46195527D01*
X7433388Y46225224D01*
X7269416Y46293144D01*
X7121846Y46391747D01*
X6996347Y46517246D01*
X6897744Y46664816D01*
X6829824Y46828788D01*
X6795200Y47002859D01*
X6795200Y47180341D01*
X6829824Y47354412D01*
X6897744Y47518384D01*
X6996347Y47665954D01*
X7121846Y47791453D01*
X7269416Y47890056D01*
X7433388Y47957976D01*
X7582688Y47987673D01*
X7607458Y47992600D01*
X7784942Y47992600D01*
X7809712Y47987673D01*
G37*
G36*
X10349712Y47987673D02*
G01*
X10499012Y47957976D01*
X10662984Y47890056D01*
X10810554Y47791453D01*
X10936053Y47665954D01*
X11034656Y47518384D01*
X11102576Y47354412D01*
X11137200Y47180341D01*
X11137200Y47002859D01*
X11102576Y46828788D01*
X11034656Y46664816D01*
X10936053Y46517246D01*
X10810554Y46391747D01*
X10662984Y46293144D01*
X10499012Y46225224D01*
X10349712Y46195527D01*
X10324942Y46190600D01*
X10147458Y46190600D01*
X10122688Y46195527D01*
X9973388Y46225224D01*
X9809416Y46293144D01*
X9661846Y46391747D01*
X9536347Y46517246D01*
X9437744Y46664816D01*
X9369824Y46828788D01*
X9335200Y47002859D01*
X9335200Y47180341D01*
X9369824Y47354412D01*
X9437744Y47518384D01*
X9536347Y47665954D01*
X9661846Y47791453D01*
X9809416Y47890056D01*
X9973388Y47957976D01*
X10122688Y47987673D01*
X10147458Y47992600D01*
X10324942Y47992600D01*
X10349712Y47987673D01*
G37*
G36*
X12889712Y47987673D02*
G01*
X13039012Y47957976D01*
X13202984Y47890056D01*
X13350554Y47791453D01*
X13476053Y47665954D01*
X13574656Y47518384D01*
X13642576Y47354412D01*
X13677200Y47180341D01*
X13677200Y47002859D01*
X13642576Y46828788D01*
X13574656Y46664816D01*
X13476053Y46517246D01*
X13350554Y46391747D01*
X13202984Y46293144D01*
X13039012Y46225224D01*
X12889712Y46195527D01*
X12864942Y46190600D01*
X12687458Y46190600D01*
X12662688Y46195527D01*
X12513388Y46225224D01*
X12349416Y46293144D01*
X12201846Y46391747D01*
X12076347Y46517246D01*
X11977744Y46664816D01*
X11909824Y46828788D01*
X11875200Y47002859D01*
X11875200Y47180341D01*
X11909824Y47354412D01*
X11977744Y47518384D01*
X12076347Y47665954D01*
X12201846Y47791453D01*
X12349416Y47890056D01*
X12513388Y47957976D01*
X12662688Y47987673D01*
X12687458Y47992600D01*
X12864942Y47992600D01*
X12889712Y47987673D01*
G37*
G36*
X15429712Y47987673D02*
G01*
X15579012Y47957976D01*
X15742984Y47890056D01*
X15890554Y47791453D01*
X16016053Y47665954D01*
X16114656Y47518384D01*
X16182576Y47354412D01*
X16217200Y47180341D01*
X16217200Y47002859D01*
X16182576Y46828788D01*
X16114656Y46664816D01*
X16016053Y46517246D01*
X15890554Y46391747D01*
X15742984Y46293144D01*
X15579012Y46225224D01*
X15429712Y46195527D01*
X15404942Y46190600D01*
X15227458Y46190600D01*
X15202688Y46195527D01*
X15053388Y46225224D01*
X14889416Y46293144D01*
X14741846Y46391747D01*
X14616347Y46517246D01*
X14517744Y46664816D01*
X14449824Y46828788D01*
X14415200Y47002859D01*
X14415200Y47180341D01*
X14449824Y47354412D01*
X14517744Y47518384D01*
X14616347Y47665954D01*
X14741846Y47791453D01*
X14889416Y47890056D01*
X15053388Y47957976D01*
X15202688Y47987673D01*
X15227458Y47992600D01*
X15404942Y47992600D01*
X15429712Y47987673D01*
G37*
G36*
X17969712Y47987673D02*
G01*
X18119012Y47957976D01*
X18282984Y47890056D01*
X18430554Y47791453D01*
X18556053Y47665954D01*
X18654656Y47518384D01*
X18722576Y47354412D01*
X18757200Y47180341D01*
X18757200Y47002859D01*
X18722576Y46828788D01*
X18654656Y46664816D01*
X18556053Y46517246D01*
X18430554Y46391747D01*
X18282984Y46293144D01*
X18119012Y46225224D01*
X17969712Y46195527D01*
X17944942Y46190600D01*
X17767458Y46190600D01*
X17742688Y46195527D01*
X17593388Y46225224D01*
X17429416Y46293144D01*
X17281846Y46391747D01*
X17156347Y46517246D01*
X17057744Y46664816D01*
X16989824Y46828788D01*
X16955200Y47002859D01*
X16955200Y47180341D01*
X16989824Y47354412D01*
X17057744Y47518384D01*
X17156347Y47665954D01*
X17281846Y47791453D01*
X17429416Y47890056D01*
X17593388Y47957976D01*
X17742688Y47987673D01*
X17767458Y47992600D01*
X17944942Y47992600D01*
X17969712Y47987673D01*
G37*
G36*
X21297200Y46190600D02*
G01*
X19495200Y46190600D01*
X19495200Y47992600D01*
X21297200Y47992600D01*
X21297200Y46190600D01*
G37*
M02*
