G04 #@! TF.GenerationSoftware,KiCad,Pcbnew,(5.1.5)-3*
G04 #@! TF.CreationDate,2020-03-05T17:26:28+00:00*
G04 #@! TF.ProjectId,DigiSpark.schBackup,44696769-5370-4617-926b-2e7363684261,rev?*
G04 #@! TF.SameCoordinates,PX4f296e0PY8afe530*
G04 #@! TF.FileFunction,Paste,Top*
G04 #@! TF.FilePolarity,Positive*
%FSLAX46Y46*%
G04 Gerber Fmt 4.6, Leading zero omitted, Abs format (unit mm)*
G04 Created by KiCad (PCBNEW (5.1.5)-3) date 2020-03-05 17:26:28*
%MOMM*%
%LPD*%
G04 APERTURE LIST*
%ADD10C,0.100000*%
%ADD11R,1.200000X0.900000*%
%ADD12R,1.350000X0.400000*%
%ADD13R,1.900000X2.900000*%
%ADD14R,0.850000X0.300000*%
%ADD15R,2.000000X3.800000*%
%ADD16R,2.000000X1.500000*%
G04 APERTURE END LIST*
D10*
G36*
X20667505Y14839596D02*
G01*
X20691773Y14835996D01*
X20715572Y14830035D01*
X20738671Y14821770D01*
X20760850Y14811280D01*
X20781893Y14798668D01*
X20801599Y14784053D01*
X20819777Y14767577D01*
X20836253Y14749399D01*
X20850868Y14729693D01*
X20863480Y14708650D01*
X20873970Y14686471D01*
X20882235Y14663372D01*
X20888196Y14639573D01*
X20891796Y14615305D01*
X20893000Y14590801D01*
X20893000Y13940799D01*
X20891796Y13916295D01*
X20888196Y13892027D01*
X20882235Y13868228D01*
X20873970Y13845129D01*
X20863480Y13822950D01*
X20850868Y13801907D01*
X20836253Y13782201D01*
X20819777Y13764023D01*
X20801599Y13747547D01*
X20781893Y13732932D01*
X20760850Y13720320D01*
X20738671Y13709830D01*
X20715572Y13701565D01*
X20691773Y13695604D01*
X20667505Y13692004D01*
X20643001Y13690800D01*
X19742999Y13690800D01*
X19718495Y13692004D01*
X19694227Y13695604D01*
X19670428Y13701565D01*
X19647329Y13709830D01*
X19625150Y13720320D01*
X19604107Y13732932D01*
X19584401Y13747547D01*
X19566223Y13764023D01*
X19549747Y13782201D01*
X19535132Y13801907D01*
X19522520Y13822950D01*
X19512030Y13845129D01*
X19503765Y13868228D01*
X19497804Y13892027D01*
X19494204Y13916295D01*
X19493000Y13940799D01*
X19493000Y14590801D01*
X19494204Y14615305D01*
X19497804Y14639573D01*
X19503765Y14663372D01*
X19512030Y14686471D01*
X19522520Y14708650D01*
X19535132Y14729693D01*
X19549747Y14749399D01*
X19566223Y14767577D01*
X19584401Y14784053D01*
X19604107Y14798668D01*
X19625150Y14811280D01*
X19647329Y14821770D01*
X19670428Y14830035D01*
X19694227Y14835996D01*
X19718495Y14839596D01*
X19742999Y14840800D01*
X20643001Y14840800D01*
X20667505Y14839596D01*
G37*
G36*
X20667505Y16889596D02*
G01*
X20691773Y16885996D01*
X20715572Y16880035D01*
X20738671Y16871770D01*
X20760850Y16861280D01*
X20781893Y16848668D01*
X20801599Y16834053D01*
X20819777Y16817577D01*
X20836253Y16799399D01*
X20850868Y16779693D01*
X20863480Y16758650D01*
X20873970Y16736471D01*
X20882235Y16713372D01*
X20888196Y16689573D01*
X20891796Y16665305D01*
X20893000Y16640801D01*
X20893000Y15990799D01*
X20891796Y15966295D01*
X20888196Y15942027D01*
X20882235Y15918228D01*
X20873970Y15895129D01*
X20863480Y15872950D01*
X20850868Y15851907D01*
X20836253Y15832201D01*
X20819777Y15814023D01*
X20801599Y15797547D01*
X20781893Y15782932D01*
X20760850Y15770320D01*
X20738671Y15759830D01*
X20715572Y15751565D01*
X20691773Y15745604D01*
X20667505Y15742004D01*
X20643001Y15740800D01*
X19742999Y15740800D01*
X19718495Y15742004D01*
X19694227Y15745604D01*
X19670428Y15751565D01*
X19647329Y15759830D01*
X19625150Y15770320D01*
X19604107Y15782932D01*
X19584401Y15797547D01*
X19566223Y15814023D01*
X19549747Y15832201D01*
X19535132Y15851907D01*
X19522520Y15872950D01*
X19512030Y15895129D01*
X19503765Y15918228D01*
X19497804Y15942027D01*
X19494204Y15966295D01*
X19493000Y15990799D01*
X19493000Y16640801D01*
X19494204Y16665305D01*
X19497804Y16689573D01*
X19503765Y16713372D01*
X19512030Y16736471D01*
X19522520Y16758650D01*
X19535132Y16779693D01*
X19549747Y16799399D01*
X19566223Y16817577D01*
X19584401Y16834053D01*
X19604107Y16848668D01*
X19625150Y16861280D01*
X19647329Y16871770D01*
X19670428Y16880035D01*
X19694227Y16885996D01*
X19718495Y16889596D01*
X19742999Y16890800D01*
X20643001Y16890800D01*
X20667505Y16889596D01*
G37*
G36*
X24756905Y16965796D02*
G01*
X24781173Y16962196D01*
X24804972Y16956235D01*
X24828071Y16947970D01*
X24850250Y16937480D01*
X24871293Y16924868D01*
X24890999Y16910253D01*
X24909177Y16893777D01*
X24925653Y16875599D01*
X24940268Y16855893D01*
X24952880Y16834850D01*
X24963370Y16812671D01*
X24971635Y16789572D01*
X24977596Y16765773D01*
X24981196Y16741505D01*
X24982400Y16717001D01*
X24982400Y16066999D01*
X24981196Y16042495D01*
X24977596Y16018227D01*
X24971635Y15994428D01*
X24963370Y15971329D01*
X24952880Y15949150D01*
X24940268Y15928107D01*
X24925653Y15908401D01*
X24909177Y15890223D01*
X24890999Y15873747D01*
X24871293Y15859132D01*
X24850250Y15846520D01*
X24828071Y15836030D01*
X24804972Y15827765D01*
X24781173Y15821804D01*
X24756905Y15818204D01*
X24732401Y15817000D01*
X23832399Y15817000D01*
X23807895Y15818204D01*
X23783627Y15821804D01*
X23759828Y15827765D01*
X23736729Y15836030D01*
X23714550Y15846520D01*
X23693507Y15859132D01*
X23673801Y15873747D01*
X23655623Y15890223D01*
X23639147Y15908401D01*
X23624532Y15928107D01*
X23611920Y15949150D01*
X23601430Y15971329D01*
X23593165Y15994428D01*
X23587204Y16018227D01*
X23583604Y16042495D01*
X23582400Y16066999D01*
X23582400Y16717001D01*
X23583604Y16741505D01*
X23587204Y16765773D01*
X23593165Y16789572D01*
X23601430Y16812671D01*
X23611920Y16834850D01*
X23624532Y16855893D01*
X23639147Y16875599D01*
X23655623Y16893777D01*
X23673801Y16910253D01*
X23693507Y16924868D01*
X23714550Y16937480D01*
X23736729Y16947970D01*
X23759828Y16956235D01*
X23783627Y16962196D01*
X23807895Y16965796D01*
X23832399Y16967000D01*
X24732401Y16967000D01*
X24756905Y16965796D01*
G37*
G36*
X24756905Y14915796D02*
G01*
X24781173Y14912196D01*
X24804972Y14906235D01*
X24828071Y14897970D01*
X24850250Y14887480D01*
X24871293Y14874868D01*
X24890999Y14860253D01*
X24909177Y14843777D01*
X24925653Y14825599D01*
X24940268Y14805893D01*
X24952880Y14784850D01*
X24963370Y14762671D01*
X24971635Y14739572D01*
X24977596Y14715773D01*
X24981196Y14691505D01*
X24982400Y14667001D01*
X24982400Y14016999D01*
X24981196Y13992495D01*
X24977596Y13968227D01*
X24971635Y13944428D01*
X24963370Y13921329D01*
X24952880Y13899150D01*
X24940268Y13878107D01*
X24925653Y13858401D01*
X24909177Y13840223D01*
X24890999Y13823747D01*
X24871293Y13809132D01*
X24850250Y13796520D01*
X24828071Y13786030D01*
X24804972Y13777765D01*
X24781173Y13771804D01*
X24756905Y13768204D01*
X24732401Y13767000D01*
X23832399Y13767000D01*
X23807895Y13768204D01*
X23783627Y13771804D01*
X23759828Y13777765D01*
X23736729Y13786030D01*
X23714550Y13796520D01*
X23693507Y13809132D01*
X23673801Y13823747D01*
X23655623Y13840223D01*
X23639147Y13858401D01*
X23624532Y13878107D01*
X23611920Y13899150D01*
X23601430Y13921329D01*
X23593165Y13944428D01*
X23587204Y13968227D01*
X23583604Y13992495D01*
X23582400Y14016999D01*
X23582400Y14667001D01*
X23583604Y14691505D01*
X23587204Y14715773D01*
X23593165Y14739572D01*
X23601430Y14762671D01*
X23611920Y14784850D01*
X23624532Y14805893D01*
X23639147Y14825599D01*
X23655623Y14843777D01*
X23673801Y14860253D01*
X23693507Y14874868D01*
X23714550Y14887480D01*
X23736729Y14897970D01*
X23759828Y14906235D01*
X23783627Y14912196D01*
X23807895Y14915796D01*
X23832399Y14917000D01*
X24732401Y14917000D01*
X24756905Y14915796D01*
G37*
D11*
X8153400Y27458400D03*
X8153400Y30758400D03*
X19862800Y19355800D03*
X19862800Y22655800D03*
X28016200Y33402000D03*
X28016200Y36702000D03*
D10*
G36*
X13504705Y20478396D02*
G01*
X13528973Y20474796D01*
X13552772Y20468835D01*
X13575871Y20460570D01*
X13598050Y20450080D01*
X13619093Y20437468D01*
X13638799Y20422853D01*
X13656977Y20406377D01*
X13673453Y20388199D01*
X13688068Y20368493D01*
X13700680Y20347450D01*
X13711170Y20325271D01*
X13719435Y20302172D01*
X13725396Y20278373D01*
X13728996Y20254105D01*
X13730200Y20229601D01*
X13730200Y19579599D01*
X13728996Y19555095D01*
X13725396Y19530827D01*
X13719435Y19507028D01*
X13711170Y19483929D01*
X13700680Y19461750D01*
X13688068Y19440707D01*
X13673453Y19421001D01*
X13656977Y19402823D01*
X13638799Y19386347D01*
X13619093Y19371732D01*
X13598050Y19359120D01*
X13575871Y19348630D01*
X13552772Y19340365D01*
X13528973Y19334404D01*
X13504705Y19330804D01*
X13480201Y19329600D01*
X12580199Y19329600D01*
X12555695Y19330804D01*
X12531427Y19334404D01*
X12507628Y19340365D01*
X12484529Y19348630D01*
X12462350Y19359120D01*
X12441307Y19371732D01*
X12421601Y19386347D01*
X12403423Y19402823D01*
X12386947Y19421001D01*
X12372332Y19440707D01*
X12359720Y19461750D01*
X12349230Y19483929D01*
X12340965Y19507028D01*
X12335004Y19530827D01*
X12331404Y19555095D01*
X12330200Y19579599D01*
X12330200Y20229601D01*
X12331404Y20254105D01*
X12335004Y20278373D01*
X12340965Y20302172D01*
X12349230Y20325271D01*
X12359720Y20347450D01*
X12372332Y20368493D01*
X12386947Y20388199D01*
X12403423Y20406377D01*
X12421601Y20422853D01*
X12441307Y20437468D01*
X12462350Y20450080D01*
X12484529Y20460570D01*
X12507628Y20468835D01*
X12531427Y20474796D01*
X12555695Y20478396D01*
X12580199Y20479600D01*
X13480201Y20479600D01*
X13504705Y20478396D01*
G37*
G36*
X13504705Y22528396D02*
G01*
X13528973Y22524796D01*
X13552772Y22518835D01*
X13575871Y22510570D01*
X13598050Y22500080D01*
X13619093Y22487468D01*
X13638799Y22472853D01*
X13656977Y22456377D01*
X13673453Y22438199D01*
X13688068Y22418493D01*
X13700680Y22397450D01*
X13711170Y22375271D01*
X13719435Y22352172D01*
X13725396Y22328373D01*
X13728996Y22304105D01*
X13730200Y22279601D01*
X13730200Y21629599D01*
X13728996Y21605095D01*
X13725396Y21580827D01*
X13719435Y21557028D01*
X13711170Y21533929D01*
X13700680Y21511750D01*
X13688068Y21490707D01*
X13673453Y21471001D01*
X13656977Y21452823D01*
X13638799Y21436347D01*
X13619093Y21421732D01*
X13598050Y21409120D01*
X13575871Y21398630D01*
X13552772Y21390365D01*
X13528973Y21384404D01*
X13504705Y21380804D01*
X13480201Y21379600D01*
X12580199Y21379600D01*
X12555695Y21380804D01*
X12531427Y21384404D01*
X12507628Y21390365D01*
X12484529Y21398630D01*
X12462350Y21409120D01*
X12441307Y21421732D01*
X12421601Y21436347D01*
X12403423Y21452823D01*
X12386947Y21471001D01*
X12372332Y21490707D01*
X12359720Y21511750D01*
X12349230Y21533929D01*
X12340965Y21557028D01*
X12335004Y21580827D01*
X12331404Y21605095D01*
X12330200Y21629599D01*
X12330200Y22279601D01*
X12331404Y22304105D01*
X12335004Y22328373D01*
X12340965Y22352172D01*
X12349230Y22375271D01*
X12359720Y22397450D01*
X12372332Y22418493D01*
X12386947Y22438199D01*
X12403423Y22456377D01*
X12421601Y22472853D01*
X12441307Y22487468D01*
X12462350Y22500080D01*
X12484529Y22510570D01*
X12507628Y22518835D01*
X12531427Y22524796D01*
X12555695Y22528396D01*
X12580199Y22529600D01*
X13480201Y22529600D01*
X13504705Y22528396D01*
G37*
G36*
X13606305Y17651596D02*
G01*
X13630573Y17647996D01*
X13654372Y17642035D01*
X13677471Y17633770D01*
X13699650Y17623280D01*
X13720693Y17610668D01*
X13740399Y17596053D01*
X13758577Y17579577D01*
X13775053Y17561399D01*
X13789668Y17541693D01*
X13802280Y17520650D01*
X13812770Y17498471D01*
X13821035Y17475372D01*
X13826996Y17451573D01*
X13830596Y17427305D01*
X13831800Y17402801D01*
X13831800Y16752799D01*
X13830596Y16728295D01*
X13826996Y16704027D01*
X13821035Y16680228D01*
X13812770Y16657129D01*
X13802280Y16634950D01*
X13789668Y16613907D01*
X13775053Y16594201D01*
X13758577Y16576023D01*
X13740399Y16559547D01*
X13720693Y16544932D01*
X13699650Y16532320D01*
X13677471Y16521830D01*
X13654372Y16513565D01*
X13630573Y16507604D01*
X13606305Y16504004D01*
X13581801Y16502800D01*
X12681799Y16502800D01*
X12657295Y16504004D01*
X12633027Y16507604D01*
X12609228Y16513565D01*
X12586129Y16521830D01*
X12563950Y16532320D01*
X12542907Y16544932D01*
X12523201Y16559547D01*
X12505023Y16576023D01*
X12488547Y16594201D01*
X12473932Y16613907D01*
X12461320Y16634950D01*
X12450830Y16657129D01*
X12442565Y16680228D01*
X12436604Y16704027D01*
X12433004Y16728295D01*
X12431800Y16752799D01*
X12431800Y17402801D01*
X12433004Y17427305D01*
X12436604Y17451573D01*
X12442565Y17475372D01*
X12450830Y17498471D01*
X12461320Y17520650D01*
X12473932Y17541693D01*
X12488547Y17561399D01*
X12505023Y17579577D01*
X12523201Y17596053D01*
X12542907Y17610668D01*
X12563950Y17623280D01*
X12586129Y17633770D01*
X12609228Y17642035D01*
X12633027Y17647996D01*
X12657295Y17651596D01*
X12681799Y17652800D01*
X13581801Y17652800D01*
X13606305Y17651596D01*
G37*
G36*
X13606305Y15601596D02*
G01*
X13630573Y15597996D01*
X13654372Y15592035D01*
X13677471Y15583770D01*
X13699650Y15573280D01*
X13720693Y15560668D01*
X13740399Y15546053D01*
X13758577Y15529577D01*
X13775053Y15511399D01*
X13789668Y15491693D01*
X13802280Y15470650D01*
X13812770Y15448471D01*
X13821035Y15425372D01*
X13826996Y15401573D01*
X13830596Y15377305D01*
X13831800Y15352801D01*
X13831800Y14702799D01*
X13830596Y14678295D01*
X13826996Y14654027D01*
X13821035Y14630228D01*
X13812770Y14607129D01*
X13802280Y14584950D01*
X13789668Y14563907D01*
X13775053Y14544201D01*
X13758577Y14526023D01*
X13740399Y14509547D01*
X13720693Y14494932D01*
X13699650Y14482320D01*
X13677471Y14471830D01*
X13654372Y14463565D01*
X13630573Y14457604D01*
X13606305Y14454004D01*
X13581801Y14452800D01*
X12681799Y14452800D01*
X12657295Y14454004D01*
X12633027Y14457604D01*
X12609228Y14463565D01*
X12586129Y14471830D01*
X12563950Y14482320D01*
X12542907Y14494932D01*
X12523201Y14509547D01*
X12505023Y14526023D01*
X12488547Y14544201D01*
X12473932Y14563907D01*
X12461320Y14584950D01*
X12450830Y14607129D01*
X12442565Y14630228D01*
X12436604Y14654027D01*
X12433004Y14678295D01*
X12431800Y14702799D01*
X12431800Y15352801D01*
X12433004Y15377305D01*
X12436604Y15401573D01*
X12442565Y15425372D01*
X12450830Y15448471D01*
X12461320Y15470650D01*
X12473932Y15491693D01*
X12488547Y15511399D01*
X12505023Y15529577D01*
X12523201Y15546053D01*
X12542907Y15560668D01*
X12563950Y15573280D01*
X12586129Y15583770D01*
X12609228Y15592035D01*
X12633027Y15597996D01*
X12657295Y15601596D01*
X12681799Y15602800D01*
X13581801Y15602800D01*
X13606305Y15601596D01*
G37*
D12*
X26179400Y25090600D03*
X26179400Y25740600D03*
X26179400Y26390600D03*
X26179400Y27690600D03*
X26179400Y27040600D03*
D13*
X28854400Y26390600D03*
D14*
X28854400Y29890600D03*
X28854400Y22890600D03*
D10*
G36*
X10583705Y22528396D02*
G01*
X10607973Y22524796D01*
X10631772Y22518835D01*
X10654871Y22510570D01*
X10677050Y22500080D01*
X10698093Y22487468D01*
X10717799Y22472853D01*
X10735977Y22456377D01*
X10752453Y22438199D01*
X10767068Y22418493D01*
X10779680Y22397450D01*
X10790170Y22375271D01*
X10798435Y22352172D01*
X10804396Y22328373D01*
X10807996Y22304105D01*
X10809200Y22279601D01*
X10809200Y21629599D01*
X10807996Y21605095D01*
X10804396Y21580827D01*
X10798435Y21557028D01*
X10790170Y21533929D01*
X10779680Y21511750D01*
X10767068Y21490707D01*
X10752453Y21471001D01*
X10735977Y21452823D01*
X10717799Y21436347D01*
X10698093Y21421732D01*
X10677050Y21409120D01*
X10654871Y21398630D01*
X10631772Y21390365D01*
X10607973Y21384404D01*
X10583705Y21380804D01*
X10559201Y21379600D01*
X9659199Y21379600D01*
X9634695Y21380804D01*
X9610427Y21384404D01*
X9586628Y21390365D01*
X9563529Y21398630D01*
X9541350Y21409120D01*
X9520307Y21421732D01*
X9500601Y21436347D01*
X9482423Y21452823D01*
X9465947Y21471001D01*
X9451332Y21490707D01*
X9438720Y21511750D01*
X9428230Y21533929D01*
X9419965Y21557028D01*
X9414004Y21580827D01*
X9410404Y21605095D01*
X9409200Y21629599D01*
X9409200Y22279601D01*
X9410404Y22304105D01*
X9414004Y22328373D01*
X9419965Y22352172D01*
X9428230Y22375271D01*
X9438720Y22397450D01*
X9451332Y22418493D01*
X9465947Y22438199D01*
X9482423Y22456377D01*
X9500601Y22472853D01*
X9520307Y22487468D01*
X9541350Y22500080D01*
X9563529Y22510570D01*
X9586628Y22518835D01*
X9610427Y22524796D01*
X9634695Y22528396D01*
X9659199Y22529600D01*
X10559201Y22529600D01*
X10583705Y22528396D01*
G37*
G36*
X10583705Y20478396D02*
G01*
X10607973Y20474796D01*
X10631772Y20468835D01*
X10654871Y20460570D01*
X10677050Y20450080D01*
X10698093Y20437468D01*
X10717799Y20422853D01*
X10735977Y20406377D01*
X10752453Y20388199D01*
X10767068Y20368493D01*
X10779680Y20347450D01*
X10790170Y20325271D01*
X10798435Y20302172D01*
X10804396Y20278373D01*
X10807996Y20254105D01*
X10809200Y20229601D01*
X10809200Y19579599D01*
X10807996Y19555095D01*
X10804396Y19530827D01*
X10798435Y19507028D01*
X10790170Y19483929D01*
X10779680Y19461750D01*
X10767068Y19440707D01*
X10752453Y19421001D01*
X10735977Y19402823D01*
X10717799Y19386347D01*
X10698093Y19371732D01*
X10677050Y19359120D01*
X10654871Y19348630D01*
X10631772Y19340365D01*
X10607973Y19334404D01*
X10583705Y19330804D01*
X10559201Y19329600D01*
X9659199Y19329600D01*
X9634695Y19330804D01*
X9610427Y19334404D01*
X9586628Y19340365D01*
X9563529Y19348630D01*
X9541350Y19359120D01*
X9520307Y19371732D01*
X9500601Y19386347D01*
X9482423Y19402823D01*
X9465947Y19421001D01*
X9451332Y19440707D01*
X9438720Y19461750D01*
X9428230Y19483929D01*
X9419965Y19507028D01*
X9414004Y19530827D01*
X9410404Y19555095D01*
X9409200Y19579599D01*
X9409200Y20229601D01*
X9410404Y20254105D01*
X9414004Y20278373D01*
X9419965Y20302172D01*
X9428230Y20325271D01*
X9438720Y20347450D01*
X9451332Y20368493D01*
X9465947Y20388199D01*
X9482423Y20406377D01*
X9500601Y20422853D01*
X9520307Y20437468D01*
X9541350Y20450080D01*
X9563529Y20460570D01*
X9586628Y20468835D01*
X9610427Y20474796D01*
X9634695Y20478396D01*
X9659199Y20479600D01*
X10559201Y20479600D01*
X10583705Y20478396D01*
G37*
G36*
X10583705Y15617996D02*
G01*
X10607973Y15614396D01*
X10631772Y15608435D01*
X10654871Y15600170D01*
X10677050Y15589680D01*
X10698093Y15577068D01*
X10717799Y15562453D01*
X10735977Y15545977D01*
X10752453Y15527799D01*
X10767068Y15508093D01*
X10779680Y15487050D01*
X10790170Y15464871D01*
X10798435Y15441772D01*
X10804396Y15417973D01*
X10807996Y15393705D01*
X10809200Y15369201D01*
X10809200Y14719199D01*
X10807996Y14694695D01*
X10804396Y14670427D01*
X10798435Y14646628D01*
X10790170Y14623529D01*
X10779680Y14601350D01*
X10767068Y14580307D01*
X10752453Y14560601D01*
X10735977Y14542423D01*
X10717799Y14525947D01*
X10698093Y14511332D01*
X10677050Y14498720D01*
X10654871Y14488230D01*
X10631772Y14479965D01*
X10607973Y14474004D01*
X10583705Y14470404D01*
X10559201Y14469200D01*
X9659199Y14469200D01*
X9634695Y14470404D01*
X9610427Y14474004D01*
X9586628Y14479965D01*
X9563529Y14488230D01*
X9541350Y14498720D01*
X9520307Y14511332D01*
X9500601Y14525947D01*
X9482423Y14542423D01*
X9465947Y14560601D01*
X9451332Y14580307D01*
X9438720Y14601350D01*
X9428230Y14623529D01*
X9419965Y14646628D01*
X9414004Y14670427D01*
X9410404Y14694695D01*
X9409200Y14719199D01*
X9409200Y15369201D01*
X9410404Y15393705D01*
X9414004Y15417973D01*
X9419965Y15441772D01*
X9428230Y15464871D01*
X9438720Y15487050D01*
X9451332Y15508093D01*
X9465947Y15527799D01*
X9482423Y15545977D01*
X9500601Y15562453D01*
X9520307Y15577068D01*
X9541350Y15589680D01*
X9563529Y15600170D01*
X9586628Y15608435D01*
X9610427Y15614396D01*
X9634695Y15617996D01*
X9659199Y15619200D01*
X10559201Y15619200D01*
X10583705Y15617996D01*
G37*
G36*
X10583705Y17667996D02*
G01*
X10607973Y17664396D01*
X10631772Y17658435D01*
X10654871Y17650170D01*
X10677050Y17639680D01*
X10698093Y17627068D01*
X10717799Y17612453D01*
X10735977Y17595977D01*
X10752453Y17577799D01*
X10767068Y17558093D01*
X10779680Y17537050D01*
X10790170Y17514871D01*
X10798435Y17491772D01*
X10804396Y17467973D01*
X10807996Y17443705D01*
X10809200Y17419201D01*
X10809200Y16769199D01*
X10807996Y16744695D01*
X10804396Y16720427D01*
X10798435Y16696628D01*
X10790170Y16673529D01*
X10779680Y16651350D01*
X10767068Y16630307D01*
X10752453Y16610601D01*
X10735977Y16592423D01*
X10717799Y16575947D01*
X10698093Y16561332D01*
X10677050Y16548720D01*
X10654871Y16538230D01*
X10631772Y16529965D01*
X10607973Y16524004D01*
X10583705Y16520404D01*
X10559201Y16519200D01*
X9659199Y16519200D01*
X9634695Y16520404D01*
X9610427Y16524004D01*
X9586628Y16529965D01*
X9563529Y16538230D01*
X9541350Y16548720D01*
X9520307Y16561332D01*
X9500601Y16575947D01*
X9482423Y16592423D01*
X9465947Y16610601D01*
X9451332Y16630307D01*
X9438720Y16651350D01*
X9428230Y16673529D01*
X9419965Y16696628D01*
X9414004Y16720427D01*
X9410404Y16744695D01*
X9409200Y16769199D01*
X9409200Y17419201D01*
X9410404Y17443705D01*
X9414004Y17467973D01*
X9419965Y17491772D01*
X9428230Y17514871D01*
X9438720Y17537050D01*
X9451332Y17558093D01*
X9465947Y17577799D01*
X9482423Y17595977D01*
X9500601Y17612453D01*
X9520307Y17627068D01*
X9541350Y17639680D01*
X9563529Y17650170D01*
X9586628Y17658435D01*
X9610427Y17664396D01*
X9634695Y17667996D01*
X9659199Y17669200D01*
X10559201Y17669200D01*
X10583705Y17667996D01*
G37*
D15*
X12953200Y6883400D03*
D16*
X19253200Y6883400D03*
X19253200Y9183400D03*
X19253200Y4583400D03*
M02*
