G04 ---------------------------- Layer name :TOP SILK LAYER*
G04 easyEDA 0.1*
G04 Scale: 100 percent, Rotated: No, Reflected: No *
G04 Dimensions in inches *
G04 leading zeros omitted , absolute positions ,2 integer and 4 * 
%FSLAX24Y24*%
%MOIN*%
G90*
G70D02*

%ADD10C,0.010000*%
%ADD11C,0.007000*%

%LPD*%
%LNVIA PAD TRACK COPPERAREA*%
G54D10*
G01X11800Y15400D02*
G01X11800Y11400D01*
G01X11800Y15400D02*
G01X10200Y15400D01*
G01X11800Y11400D02*
G01X9800Y11400D01*
G01X9800Y15400D02*
G01X9800Y11400D01*
G01X9800Y15400D02*
G01X10200Y15400D01*
G01X10200Y15400D02*
G01X10400Y15400D01*
G01X14460Y13430D02*
G01X14460Y14369D01*
G01X14460Y14369D02*
G01X16939Y14369D01*
G01X16939Y14369D02*
G01X16939Y13430D01*
G01X16939Y13430D02*
G01X14460Y13430D01*
G01X14460Y12430D02*
G01X14460Y13369D01*
G01X14460Y13369D02*
G01X16939Y13369D01*
G01X16939Y13369D02*
G01X16939Y12430D01*
G01X16939Y12430D02*
G01X14460Y12430D01*
G01X14460Y11430D02*
G01X14460Y12369D01*
G01X14460Y12369D02*
G01X16939Y12369D01*
G01X16939Y12369D02*
G01X16939Y11430D01*
G01X16939Y11430D02*
G01X14460Y11430D01*
G01X6750Y12630D02*
G01X6750Y14269D01*
G01X6200Y12400D02*
G01X6200Y12560D01*
G01X6200Y14340D02*
G01X6200Y14500D01*
G01X1000Y12300D02*
G01X3500Y12300D01*
G01X3500Y14500D01*
G01X1332Y14500D01*
G01X1000Y14500D01*
G01X1000Y12300D01*
G01X2960Y14830D02*
G01X2960Y15769D01*
G01X2960Y15769D02*
G01X5439Y15769D01*
G01X5439Y15769D02*
G01X5439Y14830D01*
G01X5439Y14830D02*
G01X2960Y14830D01*
G01X8269Y11160D02*
G01X7330Y11160D01*
G01X7330Y11160D02*
G01X7330Y13640D01*
G01X7330Y13640D02*
G01X8269Y13640D01*
G01X8269Y13640D02*
G01X8269Y11160D01*
G01X14460Y14430D02*
G01X14460Y15369D01*
G01X14460Y15369D02*
G01X16939Y15369D01*
G01X16939Y15369D02*
G01X16939Y14430D01*
G01X16939Y14430D02*
G01X14460Y14430D01*
G01X22700Y11080D02*
G01X22700Y10319D01*
G01X22700Y10319D02*
G01X22579Y10200D01*
G01X22579Y10200D02*
G01X21920Y10200D01*
G01X21920Y10200D02*
G01X21800Y10319D01*
G01X21800Y10319D02*
G01X21800Y11080D01*
G01X21800Y11080D02*
G01X21920Y11200D01*
G01X22579Y11200D02*
G01X22700Y11080D01*
G01X22579Y11200D02*
G01X22579Y10200D01*
G01X21920Y11200D02*
G01X21920Y10200D01*
G01X22700Y11080D02*
G01X21800Y11080D01*
G01X22700Y10319D02*
G01X21800Y10319D01*
G01X22700Y16080D02*
G01X22700Y15319D01*
G01X22700Y15319D02*
G01X22579Y15200D01*
G01X21920Y15200D02*
G01X21800Y15319D01*
G01X21800Y15319D02*
G01X21800Y16080D01*
G01X21800Y16080D02*
G01X21920Y16200D01*
G01X21920Y16200D02*
G01X22579Y16200D01*
G01X22579Y16200D02*
G01X22700Y16080D01*
G01X22579Y16200D02*
G01X22579Y15200D01*
G01X21920Y16200D02*
G01X21920Y15200D01*
G01X22700Y16080D02*
G01X21800Y16080D01*
G01X22700Y15319D02*
G01X21800Y15319D01*
G01X22700Y15080D02*
G01X22700Y14319D01*
G01X22700Y14319D02*
G01X22579Y14200D01*
G01X21920Y14200D02*
G01X21800Y14319D01*
G01X21800Y14319D02*
G01X21800Y15080D01*
G01X21800Y15080D02*
G01X21920Y15200D01*
G01X21920Y15200D02*
G01X22579Y15200D01*
G01X22579Y15200D02*
G01X22700Y15080D01*
G01X22579Y15200D02*
G01X22579Y14200D01*
G01X21920Y15200D02*
G01X21920Y14200D01*
G01X22700Y15080D02*
G01X21800Y15080D01*
G01X22700Y14319D02*
G01X21800Y14319D01*
G01X22700Y14080D02*
G01X22700Y13319D01*
G01X22700Y13319D02*
G01X22579Y13200D01*
G01X21920Y13200D02*
G01X21800Y13319D01*
G01X21800Y13319D02*
G01X21800Y14080D01*
G01X21800Y14080D02*
G01X21920Y14200D01*
G01X21920Y14200D02*
G01X22579Y14200D01*
G01X22579Y14200D02*
G01X22700Y14080D01*
G01X22579Y14200D02*
G01X22579Y13200D01*
G01X21920Y14200D02*
G01X21920Y13200D01*
G01X22700Y14080D02*
G01X21800Y14080D01*
G01X22700Y13319D02*
G01X21800Y13319D01*
G01X22700Y13080D02*
G01X22700Y12319D01*
G01X22700Y12319D02*
G01X22579Y12200D01*
G01X21920Y12200D02*
G01X21800Y12319D01*
G01X21800Y12319D02*
G01X21800Y13080D01*
G01X21800Y13080D02*
G01X21920Y13200D01*
G01X21920Y13200D02*
G01X22579Y13200D01*
G01X22579Y13200D02*
G01X22700Y13080D01*
G01X22579Y13200D02*
G01X22579Y12200D01*
G01X21920Y13200D02*
G01X21920Y12200D01*
G01X22700Y13080D02*
G01X21800Y13080D01*
G01X22700Y12319D02*
G01X21800Y12319D01*
G01X22700Y12080D02*
G01X22700Y11319D01*
G01X22700Y11319D02*
G01X22579Y11200D01*
G01X22579Y11200D02*
G01X21920Y11200D01*
G01X21920Y11200D02*
G01X21800Y11319D01*
G01X21800Y11319D02*
G01X21800Y12080D01*
G01X21800Y12080D02*
G01X21920Y12200D01*
G01X21920Y12200D02*
G01X22579Y12200D01*
G01X22579Y12200D02*
G01X22700Y12080D01*
G01X22579Y12200D02*
G01X22579Y11200D01*
G01X21920Y12200D02*
G01X21920Y11200D01*
G01X22700Y12080D02*
G01X21800Y12080D01*
G01X22700Y11319D02*
G01X21800Y11319D01*
G54D11*
G01X13444Y13400D02*
G01X13138Y13400D01*
G01X13076Y13380D01*
G01X13036Y13338D01*
G01X13016Y13277D01*
G01X13016Y13236D01*
G01X13036Y13175D01*
G01X13076Y13134D01*
G01X13138Y13113D01*
G01X13444Y13113D01*
G01X13363Y12979D02*
G01X13383Y12938D01*
G01X13444Y12876D01*
G01X13016Y12876D01*
G01X15600Y15144D02*
G01X15600Y14838D01*
G01X15619Y14777D01*
G01X15661Y14736D01*
G01X15723Y14716D01*
G01X15763Y14716D01*
G01X15825Y14736D01*
G01X15866Y14777D01*
G01X15886Y14838D01*
G01X15886Y15144D01*
G01X16062Y15144D02*
G01X16287Y15144D01*
G01X16164Y14982D01*
G01X16226Y14982D01*
G01X16267Y14961D01*
G01X16287Y14941D01*
G01X16307Y14880D01*
G01X16307Y14838D01*
G01X16287Y14777D01*
G01X16245Y14736D01*
G01X16185Y14716D01*
G01X16124Y14716D01*
G01X16062Y14736D01*
G01X16042Y14757D01*
G01X16020Y14797D01*
G01X15600Y14144D02*
G01X15600Y13838D01*
G01X15619Y13777D01*
G01X15661Y13736D01*
G01X15723Y13716D01*
G01X15763Y13716D01*
G01X15825Y13736D01*
G01X15866Y13777D01*
G01X15886Y13838D01*
G01X15886Y14144D01*
G01X16226Y14144D02*
G01X16020Y13859D01*
G01X16327Y13859D01*
G01X16226Y14144D02*
G01X16226Y13716D01*
G01X15600Y13144D02*
G01X15600Y12838D01*
G01X15619Y12777D01*
G01X15661Y12736D01*
G01X15723Y12716D01*
G01X15763Y12716D01*
G01X15825Y12736D01*
G01X15866Y12777D01*
G01X15886Y12838D01*
G01X15886Y13144D01*
G01X16267Y13144D02*
G01X16062Y13144D01*
G01X16042Y12961D01*
G01X16062Y12982D01*
G01X16124Y13002D01*
G01X16185Y13002D01*
G01X16245Y12982D01*
G01X16287Y12941D01*
G01X16307Y12880D01*
G01X16307Y12838D01*
G01X16287Y12777D01*
G01X16245Y12736D01*
G01X16185Y12716D01*
G01X16124Y12716D01*
G01X16062Y12736D01*
G01X16042Y12757D01*
G01X16020Y12797D01*
G01X4255Y13450D02*
G01X4561Y13450D01*
G01X4623Y13469D01*
G01X4663Y13511D01*
G01X4683Y13572D01*
G01X4683Y13613D01*
G01X4663Y13675D01*
G01X4623Y13716D01*
G01X4561Y13736D01*
G01X4255Y13736D01*
G01X4316Y14116D02*
G01X4275Y14096D01*
G01X4255Y14035D01*
G01X4255Y13994D01*
G01X4275Y13933D01*
G01X4336Y13891D01*
G01X4438Y13871D01*
G01X4541Y13871D01*
G01X4623Y13891D01*
G01X4663Y13933D01*
G01X4683Y13994D01*
G01X4683Y14015D01*
G01X4663Y14076D01*
G01X4623Y14116D01*
G01X4561Y14137D01*
G01X4541Y14137D01*
G01X4480Y14116D01*
G01X4438Y14076D01*
G01X4418Y14015D01*
G01X4418Y13994D01*
G01X4438Y13933D01*
G01X4480Y13891D01*
G01X4541Y13871D01*
G01X2200Y15244D02*
G01X2200Y14938D01*
G01X2219Y14877D01*
G01X2261Y14836D01*
G01X2323Y14816D01*
G01X2363Y14816D01*
G01X2425Y14836D01*
G01X2466Y14877D01*
G01X2486Y14938D01*
G01X2486Y15244D01*
G01X2724Y15244D02*
G01X2662Y15225D01*
G01X2642Y15184D01*
G01X2642Y15143D01*
G01X2662Y15102D01*
G01X2702Y15082D01*
G01X2785Y15061D01*
G01X2845Y15041D01*
G01X2887Y15000D01*
G01X2907Y14959D01*
G01X2907Y14897D01*
G01X2887Y14857D01*
G01X2867Y14836D01*
G01X2805Y14816D01*
G01X2724Y14816D01*
G01X2662Y14836D01*
G01X2642Y14857D01*
G01X2620Y14897D01*
G01X2620Y14959D01*
G01X2642Y15000D01*
G01X2682Y15041D01*
G01X2744Y15061D01*
G01X2825Y15082D01*
G01X2867Y15102D01*
G01X2887Y15143D01*
G01X2887Y15184D01*
G01X2867Y15225D01*
G01X2805Y15244D01*
G01X2724Y15244D01*
G01X4100Y16545D02*
G01X4100Y16238D01*
G01X4119Y16177D01*
G01X4161Y16136D01*
G01X4223Y16116D01*
G01X4263Y16116D01*
G01X4325Y16136D01*
G01X4366Y16177D01*
G01X4386Y16238D01*
G01X4386Y16545D01*
G01X4787Y16402D02*
G01X4767Y16341D01*
G01X4725Y16300D01*
G01X4664Y16280D01*
G01X4644Y16280D01*
G01X4582Y16300D01*
G01X4542Y16341D01*
G01X4520Y16402D01*
G01X4520Y16423D01*
G01X4542Y16484D01*
G01X4582Y16525D01*
G01X4644Y16545D01*
G01X4664Y16545D01*
G01X4725Y16525D01*
G01X4767Y16484D01*
G01X4787Y16402D01*
G01X4787Y16300D01*
G01X4767Y16197D01*
G01X4725Y16136D01*
G01X4664Y16116D01*
G01X4624Y16116D01*
G01X4562Y16136D01*
G01X4542Y16177D01*
G01X6555Y12300D02*
G01X6861Y12300D01*
G01X6923Y12319D01*
G01X6963Y12361D01*
G01X6983Y12422D01*
G01X6983Y12463D01*
G01X6963Y12525D01*
G01X6923Y12566D01*
G01X6861Y12586D01*
G01X6555Y12586D01*
G01X6636Y12721D02*
G01X6616Y12762D01*
G01X6555Y12824D01*
G01X6983Y12824D01*
G01X6555Y13081D02*
G01X6575Y13019D01*
G01X6636Y12979D01*
G01X6738Y12959D01*
G01X6800Y12959D01*
G01X6901Y12979D01*
G01X6963Y13019D01*
G01X6983Y13081D01*
G01X6983Y13122D01*
G01X6963Y13184D01*
G01X6901Y13225D01*
G01X6800Y13244D01*
G01X6738Y13244D01*
G01X6636Y13225D01*
G01X6575Y13184D01*
G01X6555Y13122D01*
G01X6555Y13081D01*
G01X15600Y16144D02*
G01X15600Y15838D01*
G01X15619Y15777D01*
G01X15661Y15736D01*
G01X15723Y15716D01*
G01X15763Y15716D01*
G01X15825Y15736D01*
G01X15866Y15777D01*
G01X15886Y15838D01*
G01X15886Y16144D01*
G01X16020Y16063D02*
G01X16062Y16084D01*
G01X16124Y16144D01*
G01X16124Y15716D01*
G01X16258Y16063D02*
G01X16300Y16084D01*
G01X16361Y16144D01*
G01X16361Y15716D01*
G01X22195Y13200D02*
G01X21889Y13200D01*
G01X21827Y13180D01*
G01X21786Y13138D01*
G01X21765Y13077D01*
G01X21765Y13036D01*
G01X21786Y12975D01*
G01X21827Y12934D01*
G01X21889Y12913D01*
G01X22195Y12913D01*
G01X22114Y12779D02*
G01X22134Y12738D01*
G01X22195Y12676D01*
G01X21765Y12676D01*
G01X22092Y12521D02*
G01X22114Y12521D01*
G01X22154Y12500D01*
G01X22175Y12480D01*
G01X22195Y12438D01*
G01X22195Y12357D01*
G01X22175Y12316D01*
G01X22154Y12296D01*
G01X22114Y12275D01*
G01X22073Y12275D01*
G01X22032Y12296D01*
G01X21970Y12337D01*
G01X21765Y12541D01*
G01X21765Y12255D01*
G54D10*
G75*
G01X6750Y12625D02*
G02X5097Y13140I-650J824D01*
G01*
G75*
G01X5097Y13760D02*
G02X6750Y14275I1003J-310D01*
G01*
G75*
G01X10580Y14900D02*
G03X10580Y14900I-280J0D01*
G01*

M00*
M02*