;PTH Drill file created by EasyEDA 
M48
;Holesize 1 = 0.032 INCH
T01C0.032
;Holesize 2 = 0.035 INCH
T02C0.035
;Holesize 3 = 0.040 INCH
T03C0.040
;Holesize 4 = 0.040 INCH
T04C0.040
;Holesize 5 = 0.036 INCH
T05C0.036
INCH,00.0000
%
G05
G90
T01
X009300Y014900
X009300Y013900
X009300Y012900
X009300Y011900
X012300Y011900
X012300Y012900
X012300Y013900
X012300Y014900
X006100Y012600
X006100Y013450
X006100Y014300
T02
X013700Y013900
X017700Y013900
X013700Y012900
X017700Y012900
X013700Y011900
X017700Y011900
X002200Y015300
X006200Y015300
X007800Y010400
X007800Y014400
X013700Y014900
X017700Y014900
T03
X002200Y013900
X002200Y012900
T04
X021100Y015700
X021100Y014700
X021100Y013700
X021100Y012700
X021100Y011700
X021100Y010700
T05
X021100Y009700
M30
