G04 #@! TF.GenerationSoftware,KiCad,Pcbnew,(5.1.5)-3*
G04 #@! TF.CreationDate,2020-03-04T17:43:17+00:00*
G04 #@! TF.ProjectId,test pieces,74657374-2070-4696-9563-65732e6b6963,rev?*
G04 #@! TF.SameCoordinates,Original*
G04 #@! TF.FileFunction,Legend,Top*
G04 #@! TF.FilePolarity,Positive*
%FSLAX46Y46*%
G04 Gerber Fmt 4.6, Leading zero omitted, Abs format (unit mm)*
G04 Created by KiCad (PCBNEW (5.1.5)-3) date 2020-03-04 17:43:17*
%MOMM*%
%LPD*%
G04 APERTURE LIST*
%ADD10C,0.120000*%
%ADD11C,0.150000*%
G04 APERTURE END LIST*
D10*
X152390000Y-138160000D02*
X152390000Y-138760000D01*
X152090000Y-138460000D02*
X152390000Y-138760000D01*
X152090000Y-138460000D02*
X152390000Y-138160000D01*
X151860000Y-133290000D02*
X151860000Y-134160000D01*
X151860000Y-141030000D02*
X149790000Y-141030000D01*
X151860000Y-133290000D02*
X149790000Y-133290000D01*
X151860000Y-140160000D02*
X151860000Y-141030000D01*
X147390000Y-141030000D02*
X147140000Y-141030000D01*
X147390000Y-133290000D02*
X147140000Y-133290000D01*
X172660000Y-142320000D02*
X172660000Y-136570000D01*
X172710000Y-135220000D02*
X172710000Y-132020000D01*
X172710000Y-132020000D02*
X178660000Y-132020000D01*
X178660000Y-132020000D02*
X178660000Y-142320000D01*
X178660000Y-142320000D02*
X172660000Y-142320000D01*
X178560000Y-140970000D02*
X177550000Y-140970000D01*
X177550000Y-140970000D02*
X177550000Y-135890000D01*
X177550000Y-135890000D02*
X178560000Y-135890000D01*
D11*
X152842380Y-137493333D02*
X153556666Y-137493333D01*
X153699523Y-137540952D01*
X153794761Y-137636190D01*
X153842380Y-137779047D01*
X153842380Y-137874285D01*
X153842380Y-136493333D02*
X153842380Y-137064761D01*
X153842380Y-136779047D02*
X152842380Y-136779047D01*
X152985238Y-136874285D01*
X153080476Y-136969523D01*
X153128095Y-137064761D01*
X171162380Y-137303333D02*
X171876666Y-137303333D01*
X172019523Y-137350952D01*
X172114761Y-137446190D01*
X172162380Y-137589047D01*
X172162380Y-137684285D01*
X171257619Y-136874761D02*
X171210000Y-136827142D01*
X171162380Y-136731904D01*
X171162380Y-136493809D01*
X171210000Y-136398571D01*
X171257619Y-136350952D01*
X171352857Y-136303333D01*
X171448095Y-136303333D01*
X171590952Y-136350952D01*
X172162380Y-136922380D01*
X172162380Y-136303333D01*
M02*
