G04 #@! TF.GenerationSoftware,KiCad,Pcbnew,(5.1.5)-3*
G04 #@! TF.CreationDate,2020-03-04T17:43:17+00:00*
G04 #@! TF.ProjectId,test pieces,74657374-2070-4696-9563-65732e6b6963,rev?*
G04 #@! TF.SameCoordinates,Original*
G04 #@! TF.FileFunction,Copper,L1,Top*
G04 #@! TF.FilePolarity,Positive*
%FSLAX46Y46*%
G04 Gerber Fmt 4.6, Leading zero omitted, Abs format (unit mm)*
G04 Created by KiCad (PCBNEW (5.1.5)-3) date 2020-03-04 17:43:17*
%MOMM*%
%LPD*%
G04 APERTURE LIST*
%ADD10O,1.250000X1.050000*%
%ADD11R,1.350000X0.400000*%
%ADD12O,1.900000X1.000000*%
%ADD13R,1.900000X2.900000*%
%ADD14R,1.900000X0.875000*%
%ADD15R,2.030000X1.730000*%
%ADD16O,2.030000X1.730000*%
%ADD17C,0.250000*%
%ADD18C,0.254000*%
G04 APERTURE END LIST*
D10*
X151590000Y-134935000D03*
D11*
X151265000Y-135860000D03*
X151265000Y-136510000D03*
X151265000Y-137160000D03*
X151265000Y-138460000D03*
D10*
X151590000Y-139385000D03*
D12*
X148590000Y-132985000D03*
X148590000Y-141335000D03*
D11*
X151265000Y-137810000D03*
D13*
X148590000Y-137160000D03*
D14*
X148590000Y-140897500D03*
X148590000Y-133422500D03*
D15*
X175260000Y-140970000D03*
D16*
X175260000Y-138430000D03*
X175260000Y-135890000D03*
X175260000Y-133350000D03*
D17*
X175110000Y-135890000D02*
X175260000Y-135890000D01*
X173995000Y-134775000D02*
X175110000Y-135890000D01*
X153925000Y-134775000D02*
X173995000Y-134775000D01*
X152190000Y-136510000D02*
X153925000Y-134775000D01*
X151265000Y-136510000D02*
X152190000Y-136510000D01*
X176525000Y-140970000D02*
X175260000Y-140970000D01*
X176600010Y-140894990D02*
X176525000Y-140970000D01*
X176600010Y-137937082D02*
X176600010Y-140894990D01*
X175822928Y-137160000D02*
X176600010Y-137937082D01*
X151265000Y-137160000D02*
X175822928Y-137160000D01*
X151265000Y-137810000D02*
X154320000Y-137810000D01*
X154940000Y-138430000D02*
X175260000Y-138430000D01*
X154320000Y-137810000D02*
X154940000Y-138430000D01*
D18*
G36*
X180950001Y-144120000D02*
G01*
X144170000Y-144120000D01*
X144170000Y-134360000D01*
X146451686Y-134360000D01*
X146464912Y-134494283D01*
X146504081Y-134623406D01*
X146567688Y-134742407D01*
X146602644Y-134785000D01*
X146567688Y-134827593D01*
X146504081Y-134946594D01*
X146464912Y-135075717D01*
X146451686Y-135210000D01*
X146455000Y-135243647D01*
X146455001Y-139076343D01*
X146451686Y-139110000D01*
X146464912Y-139244283D01*
X146504081Y-139373406D01*
X146567688Y-139492407D01*
X146602644Y-139535000D01*
X146567688Y-139577593D01*
X146504081Y-139696594D01*
X146464912Y-139825717D01*
X146451686Y-139960000D01*
X146455000Y-139993648D01*
X146455001Y-140943647D01*
X146464913Y-141044283D01*
X146504082Y-141173406D01*
X146567689Y-141292407D01*
X146653290Y-141396711D01*
X146757594Y-141482312D01*
X146876595Y-141545919D01*
X147005718Y-141585088D01*
X147056320Y-141590072D01*
X147066247Y-141608645D01*
X147045881Y-141636874D01*
X147125724Y-141859976D01*
X147247631Y-142047764D01*
X147403831Y-142208161D01*
X147588322Y-142335003D01*
X147794013Y-142423415D01*
X148013000Y-142470000D01*
X148463000Y-142470000D01*
X148463000Y-141188000D01*
X148717000Y-141188000D01*
X148717000Y-142470000D01*
X149167000Y-142470000D01*
X149385987Y-142423415D01*
X149591678Y-142335003D01*
X149776169Y-142208161D01*
X149932369Y-142047764D01*
X150054276Y-141859976D01*
X150134119Y-141636874D01*
X150113753Y-141608645D01*
X150129502Y-141579180D01*
X150165048Y-141462002D01*
X150175000Y-141462002D01*
X150175000Y-141366192D01*
X150178072Y-141335000D01*
X150175000Y-141183250D01*
X150088335Y-141096585D01*
X150134119Y-141033126D01*
X150054276Y-140810024D01*
X150023750Y-140763000D01*
X150175000Y-140611750D01*
X150178072Y-140460000D01*
X150165812Y-140335518D01*
X150129502Y-140215820D01*
X150070537Y-140105506D01*
X149991185Y-140008815D01*
X149894494Y-139929463D01*
X149784180Y-139870498D01*
X149772282Y-139866889D01*
X149789602Y-139808040D01*
X149801236Y-139747051D01*
X149812781Y-139690810D01*
X150371036Y-139690810D01*
X150426592Y-139845507D01*
X150536866Y-140044119D01*
X150683768Y-140217401D01*
X150861653Y-140358695D01*
X151063685Y-140462570D01*
X151282100Y-140525035D01*
X151463000Y-140384772D01*
X151463000Y-139512000D01*
X151717000Y-139512000D01*
X151717000Y-140384772D01*
X151897900Y-140525035D01*
X152116315Y-140462570D01*
X152318347Y-140358695D01*
X152496232Y-140217401D01*
X152643134Y-140044119D01*
X152753408Y-139845507D01*
X152808964Y-139690810D01*
X152683163Y-139512000D01*
X151717000Y-139512000D01*
X151463000Y-139512000D01*
X150496837Y-139512000D01*
X150371036Y-139690810D01*
X149812781Y-139690810D01*
X149813719Y-139686243D01*
X149814652Y-139676724D01*
X149814653Y-139676719D01*
X149814653Y-139676713D01*
X149822170Y-139594120D01*
X149821737Y-139532031D01*
X149822170Y-139469942D01*
X149821237Y-139460424D01*
X149812566Y-139377933D01*
X149800078Y-139317102D01*
X149788450Y-139256143D01*
X149785686Y-139246987D01*
X149772120Y-139203160D01*
X149784180Y-139199502D01*
X149894494Y-139140537D01*
X149991185Y-139061185D01*
X150047646Y-138992387D01*
X150059463Y-139014494D01*
X150138815Y-139111185D01*
X150235506Y-139190537D01*
X150345820Y-139249502D01*
X150465518Y-139285812D01*
X150590000Y-139298072D01*
X151940000Y-139298072D01*
X152064482Y-139285812D01*
X152156166Y-139258000D01*
X152683163Y-139258000D01*
X152808964Y-139079190D01*
X152753408Y-138924493D01*
X152643134Y-138725881D01*
X152578072Y-138649135D01*
X152578072Y-138570000D01*
X154005198Y-138570000D01*
X154376205Y-138941008D01*
X154399999Y-138970001D01*
X154428992Y-138993795D01*
X154428996Y-138993799D01*
X154474164Y-139030867D01*
X154515724Y-139064974D01*
X154647753Y-139135546D01*
X154791014Y-139179003D01*
X154902667Y-139190000D01*
X154902676Y-139190000D01*
X154939999Y-139193676D01*
X154977322Y-139190000D01*
X173815398Y-139190000D01*
X173856762Y-139267387D01*
X174044208Y-139495792D01*
X174050030Y-139500570D01*
X174000820Y-139515498D01*
X173890506Y-139574463D01*
X173793815Y-139653815D01*
X173714463Y-139750506D01*
X173655498Y-139860820D01*
X173619188Y-139980518D01*
X173606928Y-140105000D01*
X173606928Y-141835000D01*
X173619188Y-141959482D01*
X173655498Y-142079180D01*
X173714463Y-142189494D01*
X173793815Y-142286185D01*
X173890506Y-142365537D01*
X174000820Y-142424502D01*
X174120518Y-142460812D01*
X174245000Y-142473072D01*
X176275000Y-142473072D01*
X176399482Y-142460812D01*
X176519180Y-142424502D01*
X176629494Y-142365537D01*
X176726185Y-142286185D01*
X176805537Y-142189494D01*
X176864502Y-142079180D01*
X176900812Y-141959482D01*
X176913072Y-141835000D01*
X176913072Y-141624326D01*
X176949276Y-141604974D01*
X177065001Y-141510001D01*
X177088804Y-141480997D01*
X177111007Y-141458794D01*
X177140011Y-141434991D01*
X177234984Y-141319266D01*
X177305556Y-141187237D01*
X177349013Y-141043976D01*
X177360010Y-140932323D01*
X177360010Y-140932313D01*
X177363686Y-140894991D01*
X177360010Y-140857668D01*
X177360010Y-137974405D01*
X177363686Y-137937082D01*
X177360010Y-137899759D01*
X177360010Y-137899749D01*
X177349013Y-137788096D01*
X177305556Y-137644835D01*
X177283825Y-137604180D01*
X177234984Y-137512805D01*
X177163809Y-137426079D01*
X177140011Y-137397081D01*
X177111014Y-137373284D01*
X176573934Y-136836205D01*
X176663238Y-136727387D01*
X176802524Y-136466802D01*
X176888295Y-136184051D01*
X176917257Y-135890000D01*
X176888295Y-135595949D01*
X176802524Y-135313198D01*
X176663238Y-135052613D01*
X176475792Y-134824208D01*
X176247387Y-134636762D01*
X176209297Y-134616402D01*
X176411972Y-134467810D01*
X176610793Y-134250857D01*
X176763469Y-133999284D01*
X176864131Y-133722759D01*
X176866346Y-133709246D01*
X176745224Y-133477000D01*
X175387000Y-133477000D01*
X175387000Y-133497000D01*
X175133000Y-133497000D01*
X175133000Y-133477000D01*
X173774776Y-133477000D01*
X173653654Y-133709246D01*
X173655869Y-133722759D01*
X173756531Y-133999284D01*
X173766069Y-134015000D01*
X153962333Y-134015000D01*
X153925000Y-134011323D01*
X153887667Y-134015000D01*
X153776014Y-134025997D01*
X153632753Y-134069454D01*
X153500724Y-134140026D01*
X153384999Y-134234999D01*
X153361201Y-134263997D01*
X152817200Y-134807998D01*
X152683164Y-134807998D01*
X152808964Y-134629190D01*
X152753408Y-134474493D01*
X152643134Y-134275881D01*
X152496232Y-134102599D01*
X152318347Y-133961305D01*
X152116315Y-133857430D01*
X151897900Y-133794965D01*
X151717000Y-133935228D01*
X151717000Y-134808000D01*
X151737000Y-134808000D01*
X151737000Y-135023531D01*
X151550750Y-135025000D01*
X151493750Y-135082000D01*
X151463000Y-135082000D01*
X151463000Y-135062000D01*
X151016250Y-135062000D01*
X150979250Y-135025000D01*
X150600205Y-135022010D01*
X150475543Y-135032278D01*
X150355279Y-135066669D01*
X150244036Y-135123861D01*
X150146088Y-135201657D01*
X150065200Y-135297067D01*
X150048000Y-135328044D01*
X149991185Y-135258815D01*
X149894494Y-135179463D01*
X149784180Y-135120498D01*
X149772282Y-135116889D01*
X149789602Y-135058040D01*
X149801236Y-134997051D01*
X149813719Y-134936243D01*
X149814652Y-134926724D01*
X149814653Y-134926719D01*
X149814653Y-134926713D01*
X149822170Y-134844120D01*
X149821737Y-134782031D01*
X149822170Y-134719942D01*
X149821237Y-134710424D01*
X149812699Y-134629190D01*
X150371036Y-134629190D01*
X150496837Y-134808000D01*
X151463000Y-134808000D01*
X151463000Y-133935228D01*
X151282100Y-133794965D01*
X151063685Y-133857430D01*
X150861653Y-133961305D01*
X150683768Y-134102599D01*
X150536866Y-134275881D01*
X150426592Y-134474493D01*
X150371036Y-134629190D01*
X149812699Y-134629190D01*
X149812566Y-134627933D01*
X149800078Y-134567102D01*
X149788450Y-134506143D01*
X149785686Y-134496987D01*
X149772120Y-134453160D01*
X149784180Y-134449502D01*
X149894494Y-134390537D01*
X149991185Y-134311185D01*
X150070537Y-134214494D01*
X150129502Y-134104180D01*
X150165812Y-133984482D01*
X150178072Y-133860000D01*
X150175000Y-133708250D01*
X150023750Y-133557000D01*
X150054276Y-133509976D01*
X150134119Y-133286874D01*
X150088335Y-133223415D01*
X150175000Y-133136750D01*
X150177955Y-132990754D01*
X173653654Y-132990754D01*
X173774776Y-133223000D01*
X175133000Y-133223000D01*
X175133000Y-132007778D01*
X175387000Y-132007778D01*
X175387000Y-133223000D01*
X176745224Y-133223000D01*
X176866346Y-132990754D01*
X176864131Y-132977241D01*
X176763469Y-132700716D01*
X176610793Y-132449143D01*
X176411972Y-132232190D01*
X176174645Y-132058193D01*
X175907934Y-131933840D01*
X175622087Y-131863909D01*
X175387000Y-132007778D01*
X175133000Y-132007778D01*
X174897913Y-131863909D01*
X174612066Y-131933840D01*
X174345355Y-132058193D01*
X174108028Y-132232190D01*
X173909207Y-132449143D01*
X173756531Y-132700716D01*
X173655869Y-132977241D01*
X173653654Y-132990754D01*
X150177955Y-132990754D01*
X150178072Y-132985000D01*
X150175000Y-132953808D01*
X150175000Y-132857998D01*
X150165048Y-132857998D01*
X150129502Y-132740820D01*
X150113753Y-132711355D01*
X150134119Y-132683126D01*
X150054276Y-132460024D01*
X149932369Y-132272236D01*
X149776169Y-132111839D01*
X149591678Y-131984997D01*
X149385987Y-131896585D01*
X149167000Y-131850000D01*
X148717000Y-131850000D01*
X148717000Y-133132000D01*
X148463000Y-133132000D01*
X148463000Y-131850000D01*
X148013000Y-131850000D01*
X147794013Y-131896585D01*
X147588322Y-131984997D01*
X147403831Y-132111839D01*
X147247631Y-132272236D01*
X147125724Y-132460024D01*
X147045881Y-132683126D01*
X147066247Y-132711355D01*
X147056320Y-132729928D01*
X147005717Y-132734912D01*
X146876594Y-132774081D01*
X146757593Y-132837688D01*
X146653289Y-132923290D01*
X146567688Y-133027594D01*
X146504081Y-133146595D01*
X146464912Y-133275718D01*
X146455000Y-133376354D01*
X146455001Y-134326344D01*
X146451686Y-134360000D01*
X144170000Y-134360000D01*
X144170000Y-130200000D01*
X180950000Y-130200000D01*
X180950001Y-144120000D01*
G37*
X180950001Y-144120000D02*
X144170000Y-144120000D01*
X144170000Y-134360000D01*
X146451686Y-134360000D01*
X146464912Y-134494283D01*
X146504081Y-134623406D01*
X146567688Y-134742407D01*
X146602644Y-134785000D01*
X146567688Y-134827593D01*
X146504081Y-134946594D01*
X146464912Y-135075717D01*
X146451686Y-135210000D01*
X146455000Y-135243647D01*
X146455001Y-139076343D01*
X146451686Y-139110000D01*
X146464912Y-139244283D01*
X146504081Y-139373406D01*
X146567688Y-139492407D01*
X146602644Y-139535000D01*
X146567688Y-139577593D01*
X146504081Y-139696594D01*
X146464912Y-139825717D01*
X146451686Y-139960000D01*
X146455000Y-139993648D01*
X146455001Y-140943647D01*
X146464913Y-141044283D01*
X146504082Y-141173406D01*
X146567689Y-141292407D01*
X146653290Y-141396711D01*
X146757594Y-141482312D01*
X146876595Y-141545919D01*
X147005718Y-141585088D01*
X147056320Y-141590072D01*
X147066247Y-141608645D01*
X147045881Y-141636874D01*
X147125724Y-141859976D01*
X147247631Y-142047764D01*
X147403831Y-142208161D01*
X147588322Y-142335003D01*
X147794013Y-142423415D01*
X148013000Y-142470000D01*
X148463000Y-142470000D01*
X148463000Y-141188000D01*
X148717000Y-141188000D01*
X148717000Y-142470000D01*
X149167000Y-142470000D01*
X149385987Y-142423415D01*
X149591678Y-142335003D01*
X149776169Y-142208161D01*
X149932369Y-142047764D01*
X150054276Y-141859976D01*
X150134119Y-141636874D01*
X150113753Y-141608645D01*
X150129502Y-141579180D01*
X150165048Y-141462002D01*
X150175000Y-141462002D01*
X150175000Y-141366192D01*
X150178072Y-141335000D01*
X150175000Y-141183250D01*
X150088335Y-141096585D01*
X150134119Y-141033126D01*
X150054276Y-140810024D01*
X150023750Y-140763000D01*
X150175000Y-140611750D01*
X150178072Y-140460000D01*
X150165812Y-140335518D01*
X150129502Y-140215820D01*
X150070537Y-140105506D01*
X149991185Y-140008815D01*
X149894494Y-139929463D01*
X149784180Y-139870498D01*
X149772282Y-139866889D01*
X149789602Y-139808040D01*
X149801236Y-139747051D01*
X149812781Y-139690810D01*
X150371036Y-139690810D01*
X150426592Y-139845507D01*
X150536866Y-140044119D01*
X150683768Y-140217401D01*
X150861653Y-140358695D01*
X151063685Y-140462570D01*
X151282100Y-140525035D01*
X151463000Y-140384772D01*
X151463000Y-139512000D01*
X151717000Y-139512000D01*
X151717000Y-140384772D01*
X151897900Y-140525035D01*
X152116315Y-140462570D01*
X152318347Y-140358695D01*
X152496232Y-140217401D01*
X152643134Y-140044119D01*
X152753408Y-139845507D01*
X152808964Y-139690810D01*
X152683163Y-139512000D01*
X151717000Y-139512000D01*
X151463000Y-139512000D01*
X150496837Y-139512000D01*
X150371036Y-139690810D01*
X149812781Y-139690810D01*
X149813719Y-139686243D01*
X149814652Y-139676724D01*
X149814653Y-139676719D01*
X149814653Y-139676713D01*
X149822170Y-139594120D01*
X149821737Y-139532031D01*
X149822170Y-139469942D01*
X149821237Y-139460424D01*
X149812566Y-139377933D01*
X149800078Y-139317102D01*
X149788450Y-139256143D01*
X149785686Y-139246987D01*
X149772120Y-139203160D01*
X149784180Y-139199502D01*
X149894494Y-139140537D01*
X149991185Y-139061185D01*
X150047646Y-138992387D01*
X150059463Y-139014494D01*
X150138815Y-139111185D01*
X150235506Y-139190537D01*
X150345820Y-139249502D01*
X150465518Y-139285812D01*
X150590000Y-139298072D01*
X151940000Y-139298072D01*
X152064482Y-139285812D01*
X152156166Y-139258000D01*
X152683163Y-139258000D01*
X152808964Y-139079190D01*
X152753408Y-138924493D01*
X152643134Y-138725881D01*
X152578072Y-138649135D01*
X152578072Y-138570000D01*
X154005198Y-138570000D01*
X154376205Y-138941008D01*
X154399999Y-138970001D01*
X154428992Y-138993795D01*
X154428996Y-138993799D01*
X154474164Y-139030867D01*
X154515724Y-139064974D01*
X154647753Y-139135546D01*
X154791014Y-139179003D01*
X154902667Y-139190000D01*
X154902676Y-139190000D01*
X154939999Y-139193676D01*
X154977322Y-139190000D01*
X173815398Y-139190000D01*
X173856762Y-139267387D01*
X174044208Y-139495792D01*
X174050030Y-139500570D01*
X174000820Y-139515498D01*
X173890506Y-139574463D01*
X173793815Y-139653815D01*
X173714463Y-139750506D01*
X173655498Y-139860820D01*
X173619188Y-139980518D01*
X173606928Y-140105000D01*
X173606928Y-141835000D01*
X173619188Y-141959482D01*
X173655498Y-142079180D01*
X173714463Y-142189494D01*
X173793815Y-142286185D01*
X173890506Y-142365537D01*
X174000820Y-142424502D01*
X174120518Y-142460812D01*
X174245000Y-142473072D01*
X176275000Y-142473072D01*
X176399482Y-142460812D01*
X176519180Y-142424502D01*
X176629494Y-142365537D01*
X176726185Y-142286185D01*
X176805537Y-142189494D01*
X176864502Y-142079180D01*
X176900812Y-141959482D01*
X176913072Y-141835000D01*
X176913072Y-141624326D01*
X176949276Y-141604974D01*
X177065001Y-141510001D01*
X177088804Y-141480997D01*
X177111007Y-141458794D01*
X177140011Y-141434991D01*
X177234984Y-141319266D01*
X177305556Y-141187237D01*
X177349013Y-141043976D01*
X177360010Y-140932323D01*
X177360010Y-140932313D01*
X177363686Y-140894991D01*
X177360010Y-140857668D01*
X177360010Y-137974405D01*
X177363686Y-137937082D01*
X177360010Y-137899759D01*
X177360010Y-137899749D01*
X177349013Y-137788096D01*
X177305556Y-137644835D01*
X177283825Y-137604180D01*
X177234984Y-137512805D01*
X177163809Y-137426079D01*
X177140011Y-137397081D01*
X177111014Y-137373284D01*
X176573934Y-136836205D01*
X176663238Y-136727387D01*
X176802524Y-136466802D01*
X176888295Y-136184051D01*
X176917257Y-135890000D01*
X176888295Y-135595949D01*
X176802524Y-135313198D01*
X176663238Y-135052613D01*
X176475792Y-134824208D01*
X176247387Y-134636762D01*
X176209297Y-134616402D01*
X176411972Y-134467810D01*
X176610793Y-134250857D01*
X176763469Y-133999284D01*
X176864131Y-133722759D01*
X176866346Y-133709246D01*
X176745224Y-133477000D01*
X175387000Y-133477000D01*
X175387000Y-133497000D01*
X175133000Y-133497000D01*
X175133000Y-133477000D01*
X173774776Y-133477000D01*
X173653654Y-133709246D01*
X173655869Y-133722759D01*
X173756531Y-133999284D01*
X173766069Y-134015000D01*
X153962333Y-134015000D01*
X153925000Y-134011323D01*
X153887667Y-134015000D01*
X153776014Y-134025997D01*
X153632753Y-134069454D01*
X153500724Y-134140026D01*
X153384999Y-134234999D01*
X153361201Y-134263997D01*
X152817200Y-134807998D01*
X152683164Y-134807998D01*
X152808964Y-134629190D01*
X152753408Y-134474493D01*
X152643134Y-134275881D01*
X152496232Y-134102599D01*
X152318347Y-133961305D01*
X152116315Y-133857430D01*
X151897900Y-133794965D01*
X151717000Y-133935228D01*
X151717000Y-134808000D01*
X151737000Y-134808000D01*
X151737000Y-135023531D01*
X151550750Y-135025000D01*
X151493750Y-135082000D01*
X151463000Y-135082000D01*
X151463000Y-135062000D01*
X151016250Y-135062000D01*
X150979250Y-135025000D01*
X150600205Y-135022010D01*
X150475543Y-135032278D01*
X150355279Y-135066669D01*
X150244036Y-135123861D01*
X150146088Y-135201657D01*
X150065200Y-135297067D01*
X150048000Y-135328044D01*
X149991185Y-135258815D01*
X149894494Y-135179463D01*
X149784180Y-135120498D01*
X149772282Y-135116889D01*
X149789602Y-135058040D01*
X149801236Y-134997051D01*
X149813719Y-134936243D01*
X149814652Y-134926724D01*
X149814653Y-134926719D01*
X149814653Y-134926713D01*
X149822170Y-134844120D01*
X149821737Y-134782031D01*
X149822170Y-134719942D01*
X149821237Y-134710424D01*
X149812699Y-134629190D01*
X150371036Y-134629190D01*
X150496837Y-134808000D01*
X151463000Y-134808000D01*
X151463000Y-133935228D01*
X151282100Y-133794965D01*
X151063685Y-133857430D01*
X150861653Y-133961305D01*
X150683768Y-134102599D01*
X150536866Y-134275881D01*
X150426592Y-134474493D01*
X150371036Y-134629190D01*
X149812699Y-134629190D01*
X149812566Y-134627933D01*
X149800078Y-134567102D01*
X149788450Y-134506143D01*
X149785686Y-134496987D01*
X149772120Y-134453160D01*
X149784180Y-134449502D01*
X149894494Y-134390537D01*
X149991185Y-134311185D01*
X150070537Y-134214494D01*
X150129502Y-134104180D01*
X150165812Y-133984482D01*
X150178072Y-133860000D01*
X150175000Y-133708250D01*
X150023750Y-133557000D01*
X150054276Y-133509976D01*
X150134119Y-133286874D01*
X150088335Y-133223415D01*
X150175000Y-133136750D01*
X150177955Y-132990754D01*
X173653654Y-132990754D01*
X173774776Y-133223000D01*
X175133000Y-133223000D01*
X175133000Y-132007778D01*
X175387000Y-132007778D01*
X175387000Y-133223000D01*
X176745224Y-133223000D01*
X176866346Y-132990754D01*
X176864131Y-132977241D01*
X176763469Y-132700716D01*
X176610793Y-132449143D01*
X176411972Y-132232190D01*
X176174645Y-132058193D01*
X175907934Y-131933840D01*
X175622087Y-131863909D01*
X175387000Y-132007778D01*
X175133000Y-132007778D01*
X174897913Y-131863909D01*
X174612066Y-131933840D01*
X174345355Y-132058193D01*
X174108028Y-132232190D01*
X173909207Y-132449143D01*
X173756531Y-132700716D01*
X173655869Y-132977241D01*
X173653654Y-132990754D01*
X150177955Y-132990754D01*
X150178072Y-132985000D01*
X150175000Y-132953808D01*
X150175000Y-132857998D01*
X150165048Y-132857998D01*
X150129502Y-132740820D01*
X150113753Y-132711355D01*
X150134119Y-132683126D01*
X150054276Y-132460024D01*
X149932369Y-132272236D01*
X149776169Y-132111839D01*
X149591678Y-131984997D01*
X149385987Y-131896585D01*
X149167000Y-131850000D01*
X148717000Y-131850000D01*
X148717000Y-133132000D01*
X148463000Y-133132000D01*
X148463000Y-131850000D01*
X148013000Y-131850000D01*
X147794013Y-131896585D01*
X147588322Y-131984997D01*
X147403831Y-132111839D01*
X147247631Y-132272236D01*
X147125724Y-132460024D01*
X147045881Y-132683126D01*
X147066247Y-132711355D01*
X147056320Y-132729928D01*
X147005717Y-132734912D01*
X146876594Y-132774081D01*
X146757593Y-132837688D01*
X146653289Y-132923290D01*
X146567688Y-133027594D01*
X146504081Y-133146595D01*
X146464912Y-133275718D01*
X146455000Y-133376354D01*
X146455001Y-134326344D01*
X146451686Y-134360000D01*
X144170000Y-134360000D01*
X144170000Y-130200000D01*
X180950000Y-130200000D01*
X180950001Y-144120000D01*
G36*
X148717000Y-137033000D02*
G01*
X148737000Y-137033000D01*
X148737000Y-137287000D01*
X148717000Y-137287000D01*
X148717000Y-137307000D01*
X148463000Y-137307000D01*
X148463000Y-137287000D01*
X148443000Y-137287000D01*
X148443000Y-137033000D01*
X148463000Y-137033000D01*
X148463000Y-137013000D01*
X148717000Y-137013000D01*
X148717000Y-137033000D01*
G37*
X148717000Y-137033000D02*
X148737000Y-137033000D01*
X148737000Y-137287000D01*
X148717000Y-137287000D01*
X148717000Y-137307000D01*
X148463000Y-137307000D01*
X148463000Y-137287000D01*
X148443000Y-137287000D01*
X148443000Y-137033000D01*
X148463000Y-137033000D01*
X148463000Y-137013000D01*
X148717000Y-137013000D01*
X148717000Y-137033000D01*
M02*
