G04 #@! TF.GenerationSoftware,KiCad,Pcbnew,(5.1.5)-3*
G04 #@! TF.CreationDate,2020-03-07T17:44:20+00:00*
G04 #@! TF.ProjectId,DigiSpark v3,44696769-5370-4617-926b-2076332e6b69,rev?*
G04 #@! TF.SameCoordinates,PX291b638PY79240f8*
G04 #@! TF.FileFunction,Copper,L2,Bot*
G04 #@! TF.FilePolarity,Positive*
%FSLAX46Y46*%
G04 Gerber Fmt 4.6, Leading zero omitted, Abs format (unit mm)*
G04 Created by KiCad (PCBNEW (5.1.5)-3) date 2020-03-07 17:44:20*
%MOMM*%
%LPD*%
G04 APERTURE LIST*
%ADD10R,1.700000X1.700000*%
%ADD11O,1.700000X1.700000*%
%ADD12C,0.100000*%
%ADD13O,1.700000X1.950000*%
%ADD14C,1.400000*%
%ADD15O,1.400000X1.400000*%
%ADD16C,1.600000*%
%ADD17O,1.600000X1.600000*%
%ADD18R,1.600000X1.600000*%
%ADD19C,0.800000*%
%ADD20C,0.400000*%
%ADD21C,0.500000*%
G04 APERTURE END LIST*
D10*
X11861800Y13766800D03*
D11*
X11861800Y16306800D03*
X11861800Y18846800D03*
X29641800Y27914600D03*
X27101800Y27914600D03*
D10*
X24561800Y27914600D03*
G04 #@! TA.AperFunction,ComponentPad*
D12*
G36*
X26507104Y36533796D02*
G01*
X26531373Y36530196D01*
X26555171Y36524235D01*
X26578271Y36515970D01*
X26600449Y36505480D01*
X26621493Y36492867D01*
X26641198Y36478253D01*
X26659377Y36461777D01*
X26675853Y36443598D01*
X26690467Y36423893D01*
X26703080Y36402849D01*
X26713570Y36380671D01*
X26721835Y36357571D01*
X26727796Y36333773D01*
X26731396Y36309504D01*
X26732600Y36285000D01*
X26732600Y34835000D01*
X26731396Y34810496D01*
X26727796Y34786227D01*
X26721835Y34762429D01*
X26713570Y34739329D01*
X26703080Y34717151D01*
X26690467Y34696107D01*
X26675853Y34676402D01*
X26659377Y34658223D01*
X26641198Y34641747D01*
X26621493Y34627133D01*
X26600449Y34614520D01*
X26578271Y34604030D01*
X26555171Y34595765D01*
X26531373Y34589804D01*
X26507104Y34586204D01*
X26482600Y34585000D01*
X25282600Y34585000D01*
X25258096Y34586204D01*
X25233827Y34589804D01*
X25210029Y34595765D01*
X25186929Y34604030D01*
X25164751Y34614520D01*
X25143707Y34627133D01*
X25124002Y34641747D01*
X25105823Y34658223D01*
X25089347Y34676402D01*
X25074733Y34696107D01*
X25062120Y34717151D01*
X25051630Y34739329D01*
X25043365Y34762429D01*
X25037404Y34786227D01*
X25033804Y34810496D01*
X25032600Y34835000D01*
X25032600Y36285000D01*
X25033804Y36309504D01*
X25037404Y36333773D01*
X25043365Y36357571D01*
X25051630Y36380671D01*
X25062120Y36402849D01*
X25074733Y36423893D01*
X25089347Y36443598D01*
X25105823Y36461777D01*
X25124002Y36478253D01*
X25143707Y36492867D01*
X25164751Y36505480D01*
X25186929Y36515970D01*
X25210029Y36524235D01*
X25233827Y36530196D01*
X25258096Y36533796D01*
X25282600Y36535000D01*
X26482600Y36535000D01*
X26507104Y36533796D01*
G37*
G04 #@! TD.AperFunction*
D13*
X28382600Y35560000D03*
X30882600Y35560000D03*
D10*
X9372600Y6400800D03*
D11*
X9372600Y8940800D03*
D14*
X30937200Y9753600D03*
D15*
X23317200Y9753600D03*
D16*
X31572200Y15671800D03*
D17*
X31572200Y23291800D03*
X29464000Y6248400D03*
D16*
X21844000Y6248400D03*
D18*
X25298400Y21412200D03*
D17*
X17678400Y13792200D03*
X25298400Y18872200D03*
X17678400Y16332200D03*
X25298400Y16332200D03*
X17678400Y18872200D03*
X25298400Y13792200D03*
X17678400Y21412200D03*
D19*
X37236400Y14859000D03*
X33985200Y16357600D03*
D20*
X36836401Y15258999D02*
X36836401Y16605199D01*
X37236400Y14859000D02*
X36836401Y15258999D01*
X34181999Y16503599D02*
X34036000Y16357600D01*
X34036000Y16357600D02*
X33985200Y16357600D01*
D21*
X35623602Y16357600D02*
X33985200Y16357600D01*
X35871201Y16605199D02*
X35623602Y16357600D01*
D20*
X35871201Y16605199D02*
X35401199Y16605199D01*
X36836401Y16605199D02*
X35871201Y16605199D01*
M02*
