G04 #@! TF.GenerationSoftware,KiCad,Pcbnew,(5.1.5)-3*
G04 #@! TF.CreationDate,2020-03-07T17:44:20+00:00*
G04 #@! TF.ProjectId,DigiSpark v3,44696769-5370-4617-926b-2076332e6b69,rev?*
G04 #@! TF.SameCoordinates,PX291b638PY79240f8*
G04 #@! TF.FileFunction,Legend,Top*
G04 #@! TF.FilePolarity,Positive*
%FSLAX46Y46*%
G04 Gerber Fmt 4.6, Leading zero omitted, Abs format (unit mm)*
G04 Created by KiCad (PCBNEW (5.1.5)-3) date 2020-03-07 17:44:20*
%MOMM*%
%LPD*%
G04 APERTURE LIST*
%ADD10C,0.120000*%
%ADD11C,0.150000*%
G04 APERTURE END LIST*
D10*
X42621200Y38210800D02*
X42621200Y37950800D01*
X42621200Y35670800D02*
X42621200Y33900800D01*
X42621200Y33900800D02*
X42241200Y33900800D01*
X35001200Y33900800D02*
X35001200Y35670800D01*
X35001200Y37950800D02*
X35001200Y38210800D01*
X35001200Y33900800D02*
X35381200Y33900800D01*
X40418652Y12419400D02*
X39896148Y12419400D01*
X40418652Y10999400D02*
X39896148Y10999400D01*
X40520252Y14428400D02*
X39997748Y14428400D01*
X40520252Y15848400D02*
X39997748Y15848400D01*
X35367400Y29168600D02*
X35367400Y27168600D01*
X35367400Y27168600D02*
X39267400Y27168600D01*
X35367400Y29168600D02*
X39267400Y29168600D01*
X36483800Y22189000D02*
X34483800Y22189000D01*
X34483800Y22189000D02*
X34483800Y18289000D01*
X36483800Y22189000D02*
X36483800Y18289000D01*
X42325800Y24424200D02*
X42325800Y20524200D01*
X40325800Y24424200D02*
X40325800Y20524200D01*
X42325800Y24424200D02*
X40325800Y24424200D01*
X11319000Y24313000D02*
X14179000Y24313000D01*
X14179000Y24313000D02*
X14179000Y26233000D01*
X14179000Y26233000D02*
X11319000Y26233000D01*
X14370600Y5796400D02*
X17230600Y5796400D01*
X14370600Y7716400D02*
X14370600Y5796400D01*
X17230600Y7716400D02*
X14370600Y7716400D01*
X29047200Y8833600D02*
X29047200Y10673600D01*
X29047200Y10673600D02*
X25207200Y10673600D01*
X25207200Y10673600D02*
X25207200Y8833600D01*
X25207200Y8833600D02*
X29047200Y8833600D01*
X29997200Y9753600D02*
X29047200Y9753600D01*
X24257200Y9753600D02*
X25207200Y9753600D01*
X30532200Y16211800D02*
X30202200Y16211800D01*
X30202200Y16211800D02*
X30202200Y22751800D01*
X30202200Y22751800D02*
X30532200Y22751800D01*
X32612200Y16211800D02*
X32942200Y16211800D01*
X32942200Y16211800D02*
X32942200Y22751800D01*
X32942200Y22751800D02*
X32612200Y22751800D01*
X28924000Y4878400D02*
X28924000Y5208400D01*
X22384000Y4878400D02*
X28924000Y4878400D01*
X22384000Y5208400D02*
X22384000Y4878400D01*
X28924000Y7618400D02*
X28924000Y7288400D01*
X22384000Y7618400D02*
X28924000Y7618400D01*
X22384000Y7288400D02*
X22384000Y7618400D01*
X12235548Y29539000D02*
X12758052Y29539000D01*
X12235548Y28119000D02*
X12758052Y28119000D01*
X13657948Y8535600D02*
X14180452Y8535600D01*
X13657948Y9955600D02*
X14180452Y9955600D01*
X10840800Y38512800D02*
X10840800Y37252800D01*
X10840800Y31692800D02*
X10840800Y32952800D01*
X14600800Y38512800D02*
X10840800Y38512800D01*
X16850800Y31692800D02*
X10840800Y31692800D01*
D11*
X38477866Y31358420D02*
X38477866Y30644134D01*
X38430247Y30501277D01*
X38335009Y30406039D01*
X38192152Y30358420D01*
X38096914Y30358420D01*
X39477866Y30358420D02*
X38906438Y30358420D01*
X39192152Y30358420D02*
X39192152Y31358420D01*
X39096914Y31215562D01*
X39001676Y31120324D01*
X38906438Y31072705D01*
X39990733Y9702258D02*
X39943114Y9654639D01*
X39800257Y9607020D01*
X39705019Y9607020D01*
X39562161Y9654639D01*
X39466923Y9749877D01*
X39419304Y9845115D01*
X39371685Y10035591D01*
X39371685Y10178448D01*
X39419304Y10368924D01*
X39466923Y10464162D01*
X39562161Y10559400D01*
X39705019Y10607020D01*
X39800257Y10607020D01*
X39943114Y10559400D01*
X39990733Y10511781D01*
X40943114Y9607020D02*
X40371685Y9607020D01*
X40657400Y9607020D02*
X40657400Y10607020D01*
X40562161Y10464162D01*
X40466923Y10368924D01*
X40371685Y10321305D01*
X40092333Y13131258D02*
X40044714Y13083639D01*
X39901857Y13036020D01*
X39806619Y13036020D01*
X39663761Y13083639D01*
X39568523Y13178877D01*
X39520904Y13274115D01*
X39473285Y13464591D01*
X39473285Y13607448D01*
X39520904Y13797924D01*
X39568523Y13893162D01*
X39663761Y13988400D01*
X39806619Y14036020D01*
X39901857Y14036020D01*
X40044714Y13988400D01*
X40092333Y13940781D01*
X40473285Y13940781D02*
X40520904Y13988400D01*
X40616142Y14036020D01*
X40854238Y14036020D01*
X40949476Y13988400D01*
X40997095Y13940781D01*
X41044714Y13845543D01*
X41044714Y13750305D01*
X40997095Y13607448D01*
X40425666Y13036020D01*
X41044714Y13036020D01*
X36879304Y29716220D02*
X36879304Y30716220D01*
X37117400Y30716220D01*
X37260257Y30668600D01*
X37355495Y30573362D01*
X37403114Y30478124D01*
X37450733Y30287648D01*
X37450733Y30144791D01*
X37403114Y29954315D01*
X37355495Y29859077D01*
X37260257Y29763839D01*
X37117400Y29716220D01*
X36879304Y29716220D01*
X38403114Y29716220D02*
X37831685Y29716220D01*
X38117400Y29716220D02*
X38117400Y30716220D01*
X38022161Y30573362D01*
X37926923Y30478124D01*
X37831685Y30430505D01*
X37936180Y19200905D02*
X36936180Y19200905D01*
X36936180Y19439000D01*
X36983800Y19581858D01*
X37079038Y19677096D01*
X37174276Y19724715D01*
X37364752Y19772334D01*
X37507609Y19772334D01*
X37698085Y19724715D01*
X37793323Y19677096D01*
X37888561Y19581858D01*
X37936180Y19439000D01*
X37936180Y19200905D01*
X37031419Y20153286D02*
X36983800Y20200905D01*
X36936180Y20296143D01*
X36936180Y20534239D01*
X36983800Y20629477D01*
X37031419Y20677096D01*
X37126657Y20724715D01*
X37221895Y20724715D01*
X37364752Y20677096D01*
X37936180Y20105667D01*
X37936180Y20724715D01*
X43778180Y21436105D02*
X42778180Y21436105D01*
X42778180Y21674200D01*
X42825800Y21817058D01*
X42921038Y21912296D01*
X43016276Y21959915D01*
X43206752Y22007534D01*
X43349609Y22007534D01*
X43540085Y21959915D01*
X43635323Y21912296D01*
X43730561Y21817058D01*
X43778180Y21674200D01*
X43778180Y21436105D01*
X42778180Y22340867D02*
X42778180Y22959915D01*
X43159133Y22626581D01*
X43159133Y22769439D01*
X43206752Y22864677D01*
X43254371Y22912296D01*
X43349609Y22959915D01*
X43587704Y22959915D01*
X43682942Y22912296D01*
X43730561Y22864677D01*
X43778180Y22769439D01*
X43778180Y22483724D01*
X43730561Y22388486D01*
X43682942Y22340867D01*
X11580904Y23170620D02*
X11580904Y24170620D01*
X11819000Y24170620D01*
X11961857Y24123000D01*
X12057095Y24027762D01*
X12104714Y23932524D01*
X12152333Y23742048D01*
X12152333Y23599191D01*
X12104714Y23408715D01*
X12057095Y23313477D01*
X11961857Y23218239D01*
X11819000Y23170620D01*
X11580904Y23170620D01*
X13009476Y23837286D02*
X13009476Y23170620D01*
X12771380Y24218239D02*
X12533285Y23503953D01*
X13152333Y23503953D01*
X16787904Y8336020D02*
X16787904Y9336020D01*
X17026000Y9336020D01*
X17168857Y9288400D01*
X17264095Y9193162D01*
X17311714Y9097924D01*
X17359333Y8907448D01*
X17359333Y8764591D01*
X17311714Y8574115D01*
X17264095Y8478877D01*
X17168857Y8383639D01*
X17026000Y8336020D01*
X16787904Y8336020D01*
X18264095Y9336020D02*
X17787904Y9336020D01*
X17740285Y8859829D01*
X17787904Y8907448D01*
X17883142Y8955067D01*
X18121238Y8955067D01*
X18216476Y8907448D01*
X18264095Y8859829D01*
X18311714Y8764591D01*
X18311714Y8526496D01*
X18264095Y8431258D01*
X18216476Y8383639D01*
X18121238Y8336020D01*
X17883142Y8336020D01*
X17787904Y8383639D01*
X17740285Y8431258D01*
X26960533Y7381220D02*
X26627200Y7857410D01*
X26389104Y7381220D02*
X26389104Y8381220D01*
X26770057Y8381220D01*
X26865295Y8333600D01*
X26912914Y8285981D01*
X26960533Y8190743D01*
X26960533Y8047886D01*
X26912914Y7952648D01*
X26865295Y7905029D01*
X26770057Y7857410D01*
X26389104Y7857410D01*
X27912914Y7381220D02*
X27341485Y7381220D01*
X27627200Y7381220D02*
X27627200Y8381220D01*
X27531961Y8238362D01*
X27436723Y8143124D01*
X27341485Y8095505D01*
X29654580Y19315134D02*
X29178390Y18981800D01*
X29654580Y18743705D02*
X28654580Y18743705D01*
X28654580Y19124658D01*
X28702200Y19219896D01*
X28749819Y19267515D01*
X28845057Y19315134D01*
X28987914Y19315134D01*
X29083152Y19267515D01*
X29130771Y19219896D01*
X29178390Y19124658D01*
X29178390Y18743705D01*
X28749819Y19696086D02*
X28702200Y19743705D01*
X28654580Y19838943D01*
X28654580Y20077039D01*
X28702200Y20172277D01*
X28749819Y20219896D01*
X28845057Y20267515D01*
X28940295Y20267515D01*
X29083152Y20219896D01*
X29654580Y19648467D01*
X29654580Y20267515D01*
X25487333Y8166020D02*
X25154000Y8642210D01*
X24915904Y8166020D02*
X24915904Y9166020D01*
X25296857Y9166020D01*
X25392095Y9118400D01*
X25439714Y9070781D01*
X25487333Y8975543D01*
X25487333Y8832686D01*
X25439714Y8737448D01*
X25392095Y8689829D01*
X25296857Y8642210D01*
X24915904Y8642210D01*
X25820666Y9166020D02*
X26439714Y9166020D01*
X26106380Y8785067D01*
X26249238Y8785067D01*
X26344476Y8737448D01*
X26392095Y8689829D01*
X26439714Y8594591D01*
X26439714Y8356496D01*
X26392095Y8261258D01*
X26344476Y8213639D01*
X26249238Y8166020D01*
X25963523Y8166020D01*
X25868285Y8213639D01*
X25820666Y8261258D01*
X15581333Y28249620D02*
X15248000Y28725810D01*
X15009904Y28249620D02*
X15009904Y29249620D01*
X15390857Y29249620D01*
X15486095Y29202000D01*
X15533714Y29154381D01*
X15581333Y29059143D01*
X15581333Y28916286D01*
X15533714Y28821048D01*
X15486095Y28773429D01*
X15390857Y28725810D01*
X15009904Y28725810D01*
X16438476Y28916286D02*
X16438476Y28249620D01*
X16200380Y29297239D02*
X15962285Y28582953D01*
X16581333Y28582953D01*
X13752533Y10443220D02*
X13419200Y10919410D01*
X13181104Y10443220D02*
X13181104Y11443220D01*
X13562057Y11443220D01*
X13657295Y11395600D01*
X13704914Y11347981D01*
X13752533Y11252743D01*
X13752533Y11109886D01*
X13704914Y11014648D01*
X13657295Y10967029D01*
X13562057Y10919410D01*
X13181104Y10919410D01*
X14657295Y11443220D02*
X14181104Y11443220D01*
X14133485Y10967029D01*
X14181104Y11014648D01*
X14276342Y11062267D01*
X14514438Y11062267D01*
X14609676Y11014648D01*
X14657295Y10967029D01*
X14704914Y10871791D01*
X14704914Y10633696D01*
X14657295Y10538458D01*
X14609676Y10490839D01*
X14514438Y10443220D01*
X14276342Y10443220D01*
X14181104Y10490839D01*
X14133485Y10538458D01*
X11988895Y31150420D02*
X11988895Y30340896D01*
X12036514Y30245658D01*
X12084133Y30198039D01*
X12179371Y30150420D01*
X12369847Y30150420D01*
X12465085Y30198039D01*
X12512704Y30245658D01*
X12560323Y30340896D01*
X12560323Y31150420D01*
X13560323Y30150420D02*
X12988895Y30150420D01*
X13274609Y30150420D02*
X13274609Y31150420D01*
X13179371Y31007562D01*
X13084133Y30912324D01*
X12988895Y30864705D01*
M02*
