G04 #@! TF.GenerationSoftware,KiCad,Pcbnew,(5.1.5)-3*
G04 #@! TF.CreationDate,2020-03-07T17:44:20+00:00*
G04 #@! TF.ProjectId,DigiSpark v3,44696769-5370-4617-926b-2076332e6b69,rev?*
G04 #@! TF.SameCoordinates,PX291b638PY79240f8*
G04 #@! TF.FileFunction,Soldermask,Bot*
G04 #@! TF.FilePolarity,Negative*
%FSLAX46Y46*%
G04 Gerber Fmt 4.6, Leading zero omitted, Abs format (unit mm)*
G04 Created by KiCad (PCBNEW (5.1.5)-3) date 2020-03-07 17:44:20*
%MOMM*%
%LPD*%
G04 APERTURE LIST*
%ADD10C,0.100000*%
G04 APERTURE END LIST*
D10*
G36*
X29712228Y7066697D02*
G01*
X29867100Y7002547D01*
X30006481Y6909415D01*
X30125015Y6790881D01*
X30218147Y6651500D01*
X30282297Y6496628D01*
X30315000Y6332216D01*
X30315000Y6164584D01*
X30282297Y6000172D01*
X30218147Y5845300D01*
X30125015Y5705919D01*
X30006481Y5587385D01*
X29867100Y5494253D01*
X29712228Y5430103D01*
X29547816Y5397400D01*
X29380184Y5397400D01*
X29215772Y5430103D01*
X29060900Y5494253D01*
X28921519Y5587385D01*
X28802985Y5705919D01*
X28709853Y5845300D01*
X28645703Y6000172D01*
X28613000Y6164584D01*
X28613000Y6332216D01*
X28645703Y6496628D01*
X28709853Y6651500D01*
X28802985Y6790881D01*
X28921519Y6909415D01*
X29060900Y7002547D01*
X29215772Y7066697D01*
X29380184Y7099400D01*
X29547816Y7099400D01*
X29712228Y7066697D01*
G37*
G36*
X22092228Y7066697D02*
G01*
X22247100Y7002547D01*
X22386481Y6909415D01*
X22505015Y6790881D01*
X22598147Y6651500D01*
X22662297Y6496628D01*
X22695000Y6332216D01*
X22695000Y6164584D01*
X22662297Y6000172D01*
X22598147Y5845300D01*
X22505015Y5705919D01*
X22386481Y5587385D01*
X22247100Y5494253D01*
X22092228Y5430103D01*
X21927816Y5397400D01*
X21760184Y5397400D01*
X21595772Y5430103D01*
X21440900Y5494253D01*
X21301519Y5587385D01*
X21182985Y5705919D01*
X21089853Y5845300D01*
X21025703Y6000172D01*
X20993000Y6164584D01*
X20993000Y6332216D01*
X21025703Y6496628D01*
X21089853Y6651500D01*
X21182985Y6790881D01*
X21301519Y6909415D01*
X21440900Y7002547D01*
X21595772Y7066697D01*
X21760184Y7099400D01*
X21927816Y7099400D01*
X22092228Y7066697D01*
G37*
G36*
X10273600Y5499800D02*
G01*
X8471600Y5499800D01*
X8471600Y7301800D01*
X10273600Y7301800D01*
X10273600Y5499800D01*
G37*
G36*
X9486112Y9836873D02*
G01*
X9635412Y9807176D01*
X9799384Y9739256D01*
X9946954Y9640653D01*
X10072453Y9515154D01*
X10171056Y9367584D01*
X10238976Y9203612D01*
X10273600Y9029541D01*
X10273600Y8852059D01*
X10238976Y8677988D01*
X10171056Y8514016D01*
X10072453Y8366446D01*
X9946954Y8240947D01*
X9799384Y8142344D01*
X9635412Y8074424D01*
X9486112Y8044727D01*
X9461342Y8039800D01*
X9283858Y8039800D01*
X9259088Y8044727D01*
X9109788Y8074424D01*
X8945816Y8142344D01*
X8798246Y8240947D01*
X8672747Y8366446D01*
X8574144Y8514016D01*
X8506224Y8677988D01*
X8471600Y8852059D01*
X8471600Y9029541D01*
X8506224Y9203612D01*
X8574144Y9367584D01*
X8672747Y9515154D01*
X8798246Y9640653D01*
X8945816Y9739256D01*
X9109788Y9807176D01*
X9259088Y9836873D01*
X9283858Y9841800D01*
X9461342Y9841800D01*
X9486112Y9836873D01*
G37*
G36*
X31156259Y10475740D02*
G01*
X31292932Y10419128D01*
X31415935Y10336940D01*
X31520540Y10232335D01*
X31520541Y10232333D01*
X31602729Y10109330D01*
X31659340Y9972659D01*
X31688200Y9827568D01*
X31688200Y9679632D01*
X31659340Y9534541D01*
X31602728Y9397868D01*
X31520540Y9274865D01*
X31415935Y9170260D01*
X31292932Y9088072D01*
X31292931Y9088071D01*
X31292930Y9088071D01*
X31156259Y9031460D01*
X31011168Y9002600D01*
X30863232Y9002600D01*
X30718141Y9031460D01*
X30581470Y9088071D01*
X30581469Y9088071D01*
X30581468Y9088072D01*
X30458465Y9170260D01*
X30353860Y9274865D01*
X30271672Y9397868D01*
X30215060Y9534541D01*
X30186200Y9679632D01*
X30186200Y9827568D01*
X30215060Y9972659D01*
X30271671Y10109330D01*
X30353859Y10232333D01*
X30353860Y10232335D01*
X30458465Y10336940D01*
X30581468Y10419128D01*
X30718141Y10475740D01*
X30863232Y10504600D01*
X31011168Y10504600D01*
X31156259Y10475740D01*
G37*
G36*
X23536259Y10475740D02*
G01*
X23672932Y10419128D01*
X23795935Y10336940D01*
X23900540Y10232335D01*
X23900541Y10232333D01*
X23982729Y10109330D01*
X24039340Y9972659D01*
X24068200Y9827568D01*
X24068200Y9679632D01*
X24039340Y9534541D01*
X23982728Y9397868D01*
X23900540Y9274865D01*
X23795935Y9170260D01*
X23672932Y9088072D01*
X23672931Y9088071D01*
X23672930Y9088071D01*
X23536259Y9031460D01*
X23391168Y9002600D01*
X23243232Y9002600D01*
X23098141Y9031460D01*
X22961470Y9088071D01*
X22961469Y9088071D01*
X22961468Y9088072D01*
X22838465Y9170260D01*
X22733860Y9274865D01*
X22651672Y9397868D01*
X22595060Y9534541D01*
X22566200Y9679632D01*
X22566200Y9827568D01*
X22595060Y9972659D01*
X22651671Y10109330D01*
X22733859Y10232333D01*
X22733860Y10232335D01*
X22838465Y10336940D01*
X22961468Y10419128D01*
X23098141Y10475740D01*
X23243232Y10504600D01*
X23391168Y10504600D01*
X23536259Y10475740D01*
G37*
G36*
X12762800Y12865800D02*
G01*
X10960800Y12865800D01*
X10960800Y14667800D01*
X12762800Y14667800D01*
X12762800Y12865800D01*
G37*
G36*
X25546628Y14610497D02*
G01*
X25701500Y14546347D01*
X25840881Y14453215D01*
X25959415Y14334681D01*
X26052547Y14195300D01*
X26116697Y14040428D01*
X26149400Y13876016D01*
X26149400Y13708384D01*
X26116697Y13543972D01*
X26052547Y13389100D01*
X25959415Y13249719D01*
X25840881Y13131185D01*
X25701500Y13038053D01*
X25546628Y12973903D01*
X25382216Y12941200D01*
X25214584Y12941200D01*
X25050172Y12973903D01*
X24895300Y13038053D01*
X24755919Y13131185D01*
X24637385Y13249719D01*
X24544253Y13389100D01*
X24480103Y13543972D01*
X24447400Y13708384D01*
X24447400Y13876016D01*
X24480103Y14040428D01*
X24544253Y14195300D01*
X24637385Y14334681D01*
X24755919Y14453215D01*
X24895300Y14546347D01*
X25050172Y14610497D01*
X25214584Y14643200D01*
X25382216Y14643200D01*
X25546628Y14610497D01*
G37*
G36*
X17926628Y14610497D02*
G01*
X18081500Y14546347D01*
X18220881Y14453215D01*
X18339415Y14334681D01*
X18432547Y14195300D01*
X18496697Y14040428D01*
X18529400Y13876016D01*
X18529400Y13708384D01*
X18496697Y13543972D01*
X18432547Y13389100D01*
X18339415Y13249719D01*
X18220881Y13131185D01*
X18081500Y13038053D01*
X17926628Y12973903D01*
X17762216Y12941200D01*
X17594584Y12941200D01*
X17430172Y12973903D01*
X17275300Y13038053D01*
X17135919Y13131185D01*
X17017385Y13249719D01*
X16924253Y13389100D01*
X16860103Y13543972D01*
X16827400Y13708384D01*
X16827400Y13876016D01*
X16860103Y14040428D01*
X16924253Y14195300D01*
X17017385Y14334681D01*
X17135919Y14453215D01*
X17275300Y14546347D01*
X17430172Y14610497D01*
X17594584Y14643200D01*
X17762216Y14643200D01*
X17926628Y14610497D01*
G37*
G36*
X31820428Y16490097D02*
G01*
X31975300Y16425947D01*
X32114681Y16332815D01*
X32233215Y16214281D01*
X32326347Y16074900D01*
X32390497Y15920028D01*
X32423200Y15755616D01*
X32423200Y15587984D01*
X32390497Y15423572D01*
X32326347Y15268700D01*
X32233215Y15129319D01*
X32114681Y15010785D01*
X31975300Y14917653D01*
X31820428Y14853503D01*
X31656016Y14820800D01*
X31488384Y14820800D01*
X31323972Y14853503D01*
X31169100Y14917653D01*
X31029719Y15010785D01*
X30911185Y15129319D01*
X30818053Y15268700D01*
X30753903Y15423572D01*
X30721200Y15587984D01*
X30721200Y15755616D01*
X30753903Y15920028D01*
X30818053Y16074900D01*
X30911185Y16214281D01*
X31029719Y16332815D01*
X31169100Y16425947D01*
X31323972Y16490097D01*
X31488384Y16522800D01*
X31656016Y16522800D01*
X31820428Y16490097D01*
G37*
G36*
X11975312Y17202873D02*
G01*
X12124612Y17173176D01*
X12288584Y17105256D01*
X12436154Y17006653D01*
X12561653Y16881154D01*
X12660256Y16733584D01*
X12728176Y16569612D01*
X12762800Y16395541D01*
X12762800Y16218059D01*
X12728176Y16043988D01*
X12660256Y15880016D01*
X12561653Y15732446D01*
X12436154Y15606947D01*
X12288584Y15508344D01*
X12124612Y15440424D01*
X11975312Y15410727D01*
X11950542Y15405800D01*
X11773058Y15405800D01*
X11748288Y15410727D01*
X11598988Y15440424D01*
X11435016Y15508344D01*
X11287446Y15606947D01*
X11161947Y15732446D01*
X11063344Y15880016D01*
X10995424Y16043988D01*
X10960800Y16218059D01*
X10960800Y16395541D01*
X10995424Y16569612D01*
X11063344Y16733584D01*
X11161947Y16881154D01*
X11287446Y17006653D01*
X11435016Y17105256D01*
X11598988Y17173176D01*
X11748288Y17202873D01*
X11773058Y17207800D01*
X11950542Y17207800D01*
X11975312Y17202873D01*
G37*
G36*
X25546628Y17150497D02*
G01*
X25701500Y17086347D01*
X25840881Y16993215D01*
X25959415Y16874681D01*
X26052547Y16735300D01*
X26116697Y16580428D01*
X26149400Y16416016D01*
X26149400Y16248384D01*
X26116697Y16083972D01*
X26052547Y15929100D01*
X25959415Y15789719D01*
X25840881Y15671185D01*
X25701500Y15578053D01*
X25546628Y15513903D01*
X25382216Y15481200D01*
X25214584Y15481200D01*
X25050172Y15513903D01*
X24895300Y15578053D01*
X24755919Y15671185D01*
X24637385Y15789719D01*
X24544253Y15929100D01*
X24480103Y16083972D01*
X24447400Y16248384D01*
X24447400Y16416016D01*
X24480103Y16580428D01*
X24544253Y16735300D01*
X24637385Y16874681D01*
X24755919Y16993215D01*
X24895300Y17086347D01*
X25050172Y17150497D01*
X25214584Y17183200D01*
X25382216Y17183200D01*
X25546628Y17150497D01*
G37*
G36*
X17926628Y17150497D02*
G01*
X18081500Y17086347D01*
X18220881Y16993215D01*
X18339415Y16874681D01*
X18432547Y16735300D01*
X18496697Y16580428D01*
X18529400Y16416016D01*
X18529400Y16248384D01*
X18496697Y16083972D01*
X18432547Y15929100D01*
X18339415Y15789719D01*
X18220881Y15671185D01*
X18081500Y15578053D01*
X17926628Y15513903D01*
X17762216Y15481200D01*
X17594584Y15481200D01*
X17430172Y15513903D01*
X17275300Y15578053D01*
X17135919Y15671185D01*
X17017385Y15789719D01*
X16924253Y15929100D01*
X16860103Y16083972D01*
X16827400Y16248384D01*
X16827400Y16416016D01*
X16860103Y16580428D01*
X16924253Y16735300D01*
X17017385Y16874681D01*
X17135919Y16993215D01*
X17275300Y17086347D01*
X17430172Y17150497D01*
X17594584Y17183200D01*
X17762216Y17183200D01*
X17926628Y17150497D01*
G37*
G36*
X11975312Y19742873D02*
G01*
X12124612Y19713176D01*
X12288584Y19645256D01*
X12436154Y19546653D01*
X12561653Y19421154D01*
X12660256Y19273584D01*
X12728176Y19109612D01*
X12762800Y18935541D01*
X12762800Y18758059D01*
X12728176Y18583988D01*
X12660256Y18420016D01*
X12561653Y18272446D01*
X12436154Y18146947D01*
X12288584Y18048344D01*
X12124612Y17980424D01*
X11975312Y17950727D01*
X11950542Y17945800D01*
X11773058Y17945800D01*
X11748288Y17950727D01*
X11598988Y17980424D01*
X11435016Y18048344D01*
X11287446Y18146947D01*
X11161947Y18272446D01*
X11063344Y18420016D01*
X10995424Y18583988D01*
X10960800Y18758059D01*
X10960800Y18935541D01*
X10995424Y19109612D01*
X11063344Y19273584D01*
X11161947Y19421154D01*
X11287446Y19546653D01*
X11435016Y19645256D01*
X11598988Y19713176D01*
X11748288Y19742873D01*
X11773058Y19747800D01*
X11950542Y19747800D01*
X11975312Y19742873D01*
G37*
G36*
X25546628Y19690497D02*
G01*
X25701500Y19626347D01*
X25840881Y19533215D01*
X25959415Y19414681D01*
X26052547Y19275300D01*
X26116697Y19120428D01*
X26149400Y18956016D01*
X26149400Y18788384D01*
X26116697Y18623972D01*
X26052547Y18469100D01*
X25959415Y18329719D01*
X25840881Y18211185D01*
X25701500Y18118053D01*
X25546628Y18053903D01*
X25382216Y18021200D01*
X25214584Y18021200D01*
X25050172Y18053903D01*
X24895300Y18118053D01*
X24755919Y18211185D01*
X24637385Y18329719D01*
X24544253Y18469100D01*
X24480103Y18623972D01*
X24447400Y18788384D01*
X24447400Y18956016D01*
X24480103Y19120428D01*
X24544253Y19275300D01*
X24637385Y19414681D01*
X24755919Y19533215D01*
X24895300Y19626347D01*
X25050172Y19690497D01*
X25214584Y19723200D01*
X25382216Y19723200D01*
X25546628Y19690497D01*
G37*
G36*
X17926628Y19690497D02*
G01*
X18081500Y19626347D01*
X18220881Y19533215D01*
X18339415Y19414681D01*
X18432547Y19275300D01*
X18496697Y19120428D01*
X18529400Y18956016D01*
X18529400Y18788384D01*
X18496697Y18623972D01*
X18432547Y18469100D01*
X18339415Y18329719D01*
X18220881Y18211185D01*
X18081500Y18118053D01*
X17926628Y18053903D01*
X17762216Y18021200D01*
X17594584Y18021200D01*
X17430172Y18053903D01*
X17275300Y18118053D01*
X17135919Y18211185D01*
X17017385Y18329719D01*
X16924253Y18469100D01*
X16860103Y18623972D01*
X16827400Y18788384D01*
X16827400Y18956016D01*
X16860103Y19120428D01*
X16924253Y19275300D01*
X17017385Y19414681D01*
X17135919Y19533215D01*
X17275300Y19626347D01*
X17430172Y19690497D01*
X17594584Y19723200D01*
X17762216Y19723200D01*
X17926628Y19690497D01*
G37*
G36*
X26149400Y20561200D02*
G01*
X24447400Y20561200D01*
X24447400Y22263200D01*
X26149400Y22263200D01*
X26149400Y20561200D01*
G37*
G36*
X17926628Y22230497D02*
G01*
X18081500Y22166347D01*
X18220881Y22073215D01*
X18339415Y21954681D01*
X18432547Y21815300D01*
X18496697Y21660428D01*
X18529400Y21496016D01*
X18529400Y21328384D01*
X18496697Y21163972D01*
X18432547Y21009100D01*
X18339415Y20869719D01*
X18220881Y20751185D01*
X18081500Y20658053D01*
X17926628Y20593903D01*
X17762216Y20561200D01*
X17594584Y20561200D01*
X17430172Y20593903D01*
X17275300Y20658053D01*
X17135919Y20751185D01*
X17017385Y20869719D01*
X16924253Y21009100D01*
X16860103Y21163972D01*
X16827400Y21328384D01*
X16827400Y21496016D01*
X16860103Y21660428D01*
X16924253Y21815300D01*
X17017385Y21954681D01*
X17135919Y22073215D01*
X17275300Y22166347D01*
X17430172Y22230497D01*
X17594584Y22263200D01*
X17762216Y22263200D01*
X17926628Y22230497D01*
G37*
G36*
X31820428Y24110097D02*
G01*
X31975300Y24045947D01*
X32114681Y23952815D01*
X32233215Y23834281D01*
X32326347Y23694900D01*
X32390497Y23540028D01*
X32423200Y23375616D01*
X32423200Y23207984D01*
X32390497Y23043572D01*
X32326347Y22888700D01*
X32233215Y22749319D01*
X32114681Y22630785D01*
X31975300Y22537653D01*
X31820428Y22473503D01*
X31656016Y22440800D01*
X31488384Y22440800D01*
X31323972Y22473503D01*
X31169100Y22537653D01*
X31029719Y22630785D01*
X30911185Y22749319D01*
X30818053Y22888700D01*
X30753903Y23043572D01*
X30721200Y23207984D01*
X30721200Y23375616D01*
X30753903Y23540028D01*
X30818053Y23694900D01*
X30911185Y23834281D01*
X31029719Y23952815D01*
X31169100Y24045947D01*
X31323972Y24110097D01*
X31488384Y24142800D01*
X31656016Y24142800D01*
X31820428Y24110097D01*
G37*
G36*
X25462800Y27013600D02*
G01*
X23660800Y27013600D01*
X23660800Y28815600D01*
X25462800Y28815600D01*
X25462800Y27013600D01*
G37*
G36*
X27215312Y28810673D02*
G01*
X27364612Y28780976D01*
X27528584Y28713056D01*
X27676154Y28614453D01*
X27801653Y28488954D01*
X27900256Y28341384D01*
X27968176Y28177412D01*
X28002800Y28003341D01*
X28002800Y27825859D01*
X27968176Y27651788D01*
X27900256Y27487816D01*
X27801653Y27340246D01*
X27676154Y27214747D01*
X27528584Y27116144D01*
X27364612Y27048224D01*
X27215312Y27018527D01*
X27190542Y27013600D01*
X27013058Y27013600D01*
X26988288Y27018527D01*
X26838988Y27048224D01*
X26675016Y27116144D01*
X26527446Y27214747D01*
X26401947Y27340246D01*
X26303344Y27487816D01*
X26235424Y27651788D01*
X26200800Y27825859D01*
X26200800Y28003341D01*
X26235424Y28177412D01*
X26303344Y28341384D01*
X26401947Y28488954D01*
X26527446Y28614453D01*
X26675016Y28713056D01*
X26838988Y28780976D01*
X26988288Y28810673D01*
X27013058Y28815600D01*
X27190542Y28815600D01*
X27215312Y28810673D01*
G37*
G36*
X29755312Y28810673D02*
G01*
X29904612Y28780976D01*
X30068584Y28713056D01*
X30216154Y28614453D01*
X30341653Y28488954D01*
X30440256Y28341384D01*
X30508176Y28177412D01*
X30542800Y28003341D01*
X30542800Y27825859D01*
X30508176Y27651788D01*
X30440256Y27487816D01*
X30341653Y27340246D01*
X30216154Y27214747D01*
X30068584Y27116144D01*
X29904612Y27048224D01*
X29755312Y27018527D01*
X29730542Y27013600D01*
X29553058Y27013600D01*
X29528288Y27018527D01*
X29378988Y27048224D01*
X29215016Y27116144D01*
X29067446Y27214747D01*
X28941947Y27340246D01*
X28843344Y27487816D01*
X28775424Y27651788D01*
X28740800Y27825859D01*
X28740800Y28003341D01*
X28775424Y28177412D01*
X28843344Y28341384D01*
X28941947Y28488954D01*
X29067446Y28614453D01*
X29215016Y28713056D01*
X29378988Y28780976D01*
X29528288Y28810673D01*
X29553058Y28815600D01*
X29730542Y28815600D01*
X29755312Y28810673D01*
G37*
G36*
X28559226Y36572963D02*
G01*
X28729065Y36521443D01*
X28729067Y36521442D01*
X28885589Y36437779D01*
X29022786Y36325186D01*
X29106048Y36223729D01*
X29135378Y36187991D01*
X29219043Y36031466D01*
X29270563Y35861627D01*
X29283600Y35729258D01*
X29283600Y35390743D01*
X29270563Y35258374D01*
X29219043Y35088534D01*
X29135378Y34932009D01*
X29106048Y34896271D01*
X29022786Y34794814D01*
X28927850Y34716903D01*
X28885591Y34682222D01*
X28729066Y34598557D01*
X28559227Y34547037D01*
X28382600Y34529641D01*
X28205974Y34547037D01*
X28036135Y34598557D01*
X27879610Y34682222D01*
X27742415Y34794815D01*
X27629822Y34932009D01*
X27546157Y35088534D01*
X27494637Y35258373D01*
X27481600Y35390742D01*
X27481600Y35729257D01*
X27494637Y35861626D01*
X27546157Y36031465D01*
X27629822Y36187990D01*
X27629823Y36187991D01*
X27742414Y36325186D01*
X27843871Y36408448D01*
X27879609Y36437778D01*
X28036134Y36521443D01*
X28205973Y36572963D01*
X28382600Y36590359D01*
X28559226Y36572963D01*
G37*
G36*
X31059226Y36572963D02*
G01*
X31229065Y36521443D01*
X31229067Y36521442D01*
X31385589Y36437779D01*
X31522786Y36325186D01*
X31606048Y36223729D01*
X31635378Y36187991D01*
X31719043Y36031466D01*
X31770563Y35861627D01*
X31783600Y35729258D01*
X31783600Y35390743D01*
X31770563Y35258374D01*
X31719043Y35088534D01*
X31635378Y34932009D01*
X31606048Y34896271D01*
X31522786Y34794814D01*
X31427850Y34716903D01*
X31385591Y34682222D01*
X31229066Y34598557D01*
X31059227Y34547037D01*
X30882600Y34529641D01*
X30705974Y34547037D01*
X30536135Y34598557D01*
X30379610Y34682222D01*
X30242415Y34794815D01*
X30129822Y34932009D01*
X30046157Y35088534D01*
X29994637Y35258373D01*
X29981600Y35390742D01*
X29981600Y35729257D01*
X29994637Y35861626D01*
X30046157Y36031465D01*
X30129822Y36187990D01*
X30129823Y36187991D01*
X30242414Y36325186D01*
X30343871Y36408448D01*
X30379609Y36437778D01*
X30536134Y36521443D01*
X30705973Y36572963D01*
X30882600Y36590359D01*
X31059226Y36572963D01*
G37*
G36*
X26641200Y36582011D02*
G01*
X26674252Y36571985D01*
X26704703Y36555708D01*
X26731399Y36533799D01*
X26753308Y36507103D01*
X26769585Y36476652D01*
X26779611Y36443600D01*
X26783600Y36403097D01*
X26783600Y34716903D01*
X26779611Y34676400D01*
X26769585Y34643348D01*
X26753308Y34612897D01*
X26731399Y34586201D01*
X26704703Y34564292D01*
X26674252Y34548015D01*
X26641200Y34537989D01*
X26600697Y34534000D01*
X25164503Y34534000D01*
X25124000Y34537989D01*
X25090948Y34548015D01*
X25060497Y34564292D01*
X25033801Y34586201D01*
X25011892Y34612897D01*
X24995615Y34643348D01*
X24985589Y34676400D01*
X24981600Y34716903D01*
X24981600Y36403097D01*
X24985589Y36443600D01*
X24995615Y36476652D01*
X25011892Y36507103D01*
X25033801Y36533799D01*
X25060497Y36555708D01*
X25090948Y36571985D01*
X25124000Y36582011D01*
X25164503Y36586000D01*
X26600697Y36586000D01*
X26641200Y36582011D01*
G37*
G36*
X24472490Y38185983D02*
G01*
X24590964Y38136909D01*
X24697588Y38065665D01*
X24788265Y37974988D01*
X24859509Y37868364D01*
X24908583Y37749890D01*
X24933600Y37624118D01*
X24933600Y37495882D01*
X24908583Y37370110D01*
X24859509Y37251636D01*
X24788265Y37145012D01*
X24697588Y37054335D01*
X24590964Y36983091D01*
X24590963Y36983090D01*
X24590962Y36983090D01*
X24472490Y36934017D01*
X24346719Y36909000D01*
X24218481Y36909000D01*
X24092710Y36934017D01*
X23974238Y36983090D01*
X23974237Y36983090D01*
X23974236Y36983091D01*
X23867612Y37054335D01*
X23776935Y37145012D01*
X23705691Y37251636D01*
X23656617Y37370110D01*
X23631600Y37495882D01*
X23631600Y37624118D01*
X23656617Y37749890D01*
X23705691Y37868364D01*
X23776935Y37974988D01*
X23867612Y38065665D01*
X23974236Y38136909D01*
X24092710Y38185983D01*
X24218481Y38211000D01*
X24346719Y38211000D01*
X24472490Y38185983D01*
G37*
M02*
