G04 #@! TF.GenerationSoftware,KiCad,Pcbnew,(5.1.5)-3*
G04 #@! TF.CreationDate,2020-03-07T17:44:20+00:00*
G04 #@! TF.ProjectId,DigiSpark v3,44696769-5370-4617-926b-2076332e6b69,rev?*
G04 #@! TF.SameCoordinates,PX291b638PY79240f8*
G04 #@! TF.FileFunction,Paste,Top*
G04 #@! TF.FilePolarity,Positive*
%FSLAX46Y46*%
G04 Gerber Fmt 4.6, Leading zero omitted, Abs format (unit mm)*
G04 Created by KiCad (PCBNEW (5.1.5)-3) date 2020-03-07 17:44:20*
%MOMM*%
%LPD*%
G04 APERTURE LIST*
%ADD10R,1.000000X1.900000*%
%ADD11R,1.800000X1.900000*%
%ADD12R,1.650000X1.300000*%
%ADD13R,1.425000X1.550000*%
%ADD14R,0.450000X1.380000*%
%ADD15C,0.100000*%
%ADD16R,0.900000X1.200000*%
%ADD17R,1.200000X0.900000*%
%ADD18R,2.000000X3.800000*%
%ADD19R,2.000000X1.500000*%
G04 APERTURE END LIST*
D10*
X37261200Y36810800D03*
D11*
X39961200Y36810800D03*
D12*
X35436200Y36810800D03*
X42186200Y36810800D03*
D13*
X36323700Y34235800D03*
X41298700Y34235800D03*
D14*
X37511200Y34150800D03*
X38161200Y34150800D03*
X38811200Y34150800D03*
X39461200Y34150800D03*
X40111200Y34150800D03*
D15*
G36*
X39481905Y12408196D02*
G01*
X39506173Y12404596D01*
X39529972Y12398635D01*
X39553071Y12390370D01*
X39575250Y12379880D01*
X39596293Y12367268D01*
X39615999Y12352653D01*
X39634177Y12336177D01*
X39650653Y12317999D01*
X39665268Y12298293D01*
X39677880Y12277250D01*
X39688370Y12255071D01*
X39696635Y12231972D01*
X39702596Y12208173D01*
X39706196Y12183905D01*
X39707400Y12159401D01*
X39707400Y11259399D01*
X39706196Y11234895D01*
X39702596Y11210627D01*
X39696635Y11186828D01*
X39688370Y11163729D01*
X39677880Y11141550D01*
X39665268Y11120507D01*
X39650653Y11100801D01*
X39634177Y11082623D01*
X39615999Y11066147D01*
X39596293Y11051532D01*
X39575250Y11038920D01*
X39553071Y11028430D01*
X39529972Y11020165D01*
X39506173Y11014204D01*
X39481905Y11010604D01*
X39457401Y11009400D01*
X38807399Y11009400D01*
X38782895Y11010604D01*
X38758627Y11014204D01*
X38734828Y11020165D01*
X38711729Y11028430D01*
X38689550Y11038920D01*
X38668507Y11051532D01*
X38648801Y11066147D01*
X38630623Y11082623D01*
X38614147Y11100801D01*
X38599532Y11120507D01*
X38586920Y11141550D01*
X38576430Y11163729D01*
X38568165Y11186828D01*
X38562204Y11210627D01*
X38558604Y11234895D01*
X38557400Y11259399D01*
X38557400Y12159401D01*
X38558604Y12183905D01*
X38562204Y12208173D01*
X38568165Y12231972D01*
X38576430Y12255071D01*
X38586920Y12277250D01*
X38599532Y12298293D01*
X38614147Y12317999D01*
X38630623Y12336177D01*
X38648801Y12352653D01*
X38668507Y12367268D01*
X38689550Y12379880D01*
X38711729Y12390370D01*
X38734828Y12398635D01*
X38758627Y12404596D01*
X38782895Y12408196D01*
X38807399Y12409400D01*
X39457401Y12409400D01*
X39481905Y12408196D01*
G37*
G36*
X41531905Y12408196D02*
G01*
X41556173Y12404596D01*
X41579972Y12398635D01*
X41603071Y12390370D01*
X41625250Y12379880D01*
X41646293Y12367268D01*
X41665999Y12352653D01*
X41684177Y12336177D01*
X41700653Y12317999D01*
X41715268Y12298293D01*
X41727880Y12277250D01*
X41738370Y12255071D01*
X41746635Y12231972D01*
X41752596Y12208173D01*
X41756196Y12183905D01*
X41757400Y12159401D01*
X41757400Y11259399D01*
X41756196Y11234895D01*
X41752596Y11210627D01*
X41746635Y11186828D01*
X41738370Y11163729D01*
X41727880Y11141550D01*
X41715268Y11120507D01*
X41700653Y11100801D01*
X41684177Y11082623D01*
X41665999Y11066147D01*
X41646293Y11051532D01*
X41625250Y11038920D01*
X41603071Y11028430D01*
X41579972Y11020165D01*
X41556173Y11014204D01*
X41531905Y11010604D01*
X41507401Y11009400D01*
X40857399Y11009400D01*
X40832895Y11010604D01*
X40808627Y11014204D01*
X40784828Y11020165D01*
X40761729Y11028430D01*
X40739550Y11038920D01*
X40718507Y11051532D01*
X40698801Y11066147D01*
X40680623Y11082623D01*
X40664147Y11100801D01*
X40649532Y11120507D01*
X40636920Y11141550D01*
X40626430Y11163729D01*
X40618165Y11186828D01*
X40612204Y11210627D01*
X40608604Y11234895D01*
X40607400Y11259399D01*
X40607400Y12159401D01*
X40608604Y12183905D01*
X40612204Y12208173D01*
X40618165Y12231972D01*
X40626430Y12255071D01*
X40636920Y12277250D01*
X40649532Y12298293D01*
X40664147Y12317999D01*
X40680623Y12336177D01*
X40698801Y12352653D01*
X40718507Y12367268D01*
X40739550Y12379880D01*
X40761729Y12390370D01*
X40784828Y12398635D01*
X40808627Y12404596D01*
X40832895Y12408196D01*
X40857399Y12409400D01*
X41507401Y12409400D01*
X41531905Y12408196D01*
G37*
G36*
X41633505Y15837196D02*
G01*
X41657773Y15833596D01*
X41681572Y15827635D01*
X41704671Y15819370D01*
X41726850Y15808880D01*
X41747893Y15796268D01*
X41767599Y15781653D01*
X41785777Y15765177D01*
X41802253Y15746999D01*
X41816868Y15727293D01*
X41829480Y15706250D01*
X41839970Y15684071D01*
X41848235Y15660972D01*
X41854196Y15637173D01*
X41857796Y15612905D01*
X41859000Y15588401D01*
X41859000Y14688399D01*
X41857796Y14663895D01*
X41854196Y14639627D01*
X41848235Y14615828D01*
X41839970Y14592729D01*
X41829480Y14570550D01*
X41816868Y14549507D01*
X41802253Y14529801D01*
X41785777Y14511623D01*
X41767599Y14495147D01*
X41747893Y14480532D01*
X41726850Y14467920D01*
X41704671Y14457430D01*
X41681572Y14449165D01*
X41657773Y14443204D01*
X41633505Y14439604D01*
X41609001Y14438400D01*
X40958999Y14438400D01*
X40934495Y14439604D01*
X40910227Y14443204D01*
X40886428Y14449165D01*
X40863329Y14457430D01*
X40841150Y14467920D01*
X40820107Y14480532D01*
X40800401Y14495147D01*
X40782223Y14511623D01*
X40765747Y14529801D01*
X40751132Y14549507D01*
X40738520Y14570550D01*
X40728030Y14592729D01*
X40719765Y14615828D01*
X40713804Y14639627D01*
X40710204Y14663895D01*
X40709000Y14688399D01*
X40709000Y15588401D01*
X40710204Y15612905D01*
X40713804Y15637173D01*
X40719765Y15660972D01*
X40728030Y15684071D01*
X40738520Y15706250D01*
X40751132Y15727293D01*
X40765747Y15746999D01*
X40782223Y15765177D01*
X40800401Y15781653D01*
X40820107Y15796268D01*
X40841150Y15808880D01*
X40863329Y15819370D01*
X40886428Y15827635D01*
X40910227Y15833596D01*
X40934495Y15837196D01*
X40958999Y15838400D01*
X41609001Y15838400D01*
X41633505Y15837196D01*
G37*
G36*
X39583505Y15837196D02*
G01*
X39607773Y15833596D01*
X39631572Y15827635D01*
X39654671Y15819370D01*
X39676850Y15808880D01*
X39697893Y15796268D01*
X39717599Y15781653D01*
X39735777Y15765177D01*
X39752253Y15746999D01*
X39766868Y15727293D01*
X39779480Y15706250D01*
X39789970Y15684071D01*
X39798235Y15660972D01*
X39804196Y15637173D01*
X39807796Y15612905D01*
X39809000Y15588401D01*
X39809000Y14688399D01*
X39807796Y14663895D01*
X39804196Y14639627D01*
X39798235Y14615828D01*
X39789970Y14592729D01*
X39779480Y14570550D01*
X39766868Y14549507D01*
X39752253Y14529801D01*
X39735777Y14511623D01*
X39717599Y14495147D01*
X39697893Y14480532D01*
X39676850Y14467920D01*
X39654671Y14457430D01*
X39631572Y14449165D01*
X39607773Y14443204D01*
X39583505Y14439604D01*
X39559001Y14438400D01*
X38908999Y14438400D01*
X38884495Y14439604D01*
X38860227Y14443204D01*
X38836428Y14449165D01*
X38813329Y14457430D01*
X38791150Y14467920D01*
X38770107Y14480532D01*
X38750401Y14495147D01*
X38732223Y14511623D01*
X38715747Y14529801D01*
X38701132Y14549507D01*
X38688520Y14570550D01*
X38678030Y14592729D01*
X38669765Y14615828D01*
X38663804Y14639627D01*
X38660204Y14663895D01*
X38659000Y14688399D01*
X38659000Y15588401D01*
X38660204Y15612905D01*
X38663804Y15637173D01*
X38669765Y15660972D01*
X38678030Y15684071D01*
X38688520Y15706250D01*
X38701132Y15727293D01*
X38715747Y15746999D01*
X38732223Y15765177D01*
X38750401Y15781653D01*
X38770107Y15796268D01*
X38791150Y15808880D01*
X38813329Y15819370D01*
X38836428Y15827635D01*
X38860227Y15833596D01*
X38884495Y15837196D01*
X38908999Y15838400D01*
X39559001Y15838400D01*
X39583505Y15837196D01*
G37*
D16*
X35967400Y28168600D03*
X39267400Y28168600D03*
D17*
X35483800Y21589000D03*
X35483800Y18289000D03*
X41325800Y20524200D03*
X41325800Y23824200D03*
D15*
G36*
X13693505Y25971796D02*
G01*
X13717773Y25968196D01*
X13741572Y25962235D01*
X13764671Y25953970D01*
X13786850Y25943480D01*
X13807893Y25930868D01*
X13827599Y25916253D01*
X13845777Y25899777D01*
X13862253Y25881599D01*
X13876868Y25861893D01*
X13889480Y25840850D01*
X13899970Y25818671D01*
X13908235Y25795572D01*
X13914196Y25771773D01*
X13917796Y25747505D01*
X13919000Y25723001D01*
X13919000Y24822999D01*
X13917796Y24798495D01*
X13914196Y24774227D01*
X13908235Y24750428D01*
X13899970Y24727329D01*
X13889480Y24705150D01*
X13876868Y24684107D01*
X13862253Y24664401D01*
X13845777Y24646223D01*
X13827599Y24629747D01*
X13807893Y24615132D01*
X13786850Y24602520D01*
X13764671Y24592030D01*
X13741572Y24583765D01*
X13717773Y24577804D01*
X13693505Y24574204D01*
X13669001Y24573000D01*
X13018999Y24573000D01*
X12994495Y24574204D01*
X12970227Y24577804D01*
X12946428Y24583765D01*
X12923329Y24592030D01*
X12901150Y24602520D01*
X12880107Y24615132D01*
X12860401Y24629747D01*
X12842223Y24646223D01*
X12825747Y24664401D01*
X12811132Y24684107D01*
X12798520Y24705150D01*
X12788030Y24727329D01*
X12779765Y24750428D01*
X12773804Y24774227D01*
X12770204Y24798495D01*
X12769000Y24822999D01*
X12769000Y25723001D01*
X12770204Y25747505D01*
X12773804Y25771773D01*
X12779765Y25795572D01*
X12788030Y25818671D01*
X12798520Y25840850D01*
X12811132Y25861893D01*
X12825747Y25881599D01*
X12842223Y25899777D01*
X12860401Y25916253D01*
X12880107Y25930868D01*
X12901150Y25943480D01*
X12923329Y25953970D01*
X12946428Y25962235D01*
X12970227Y25968196D01*
X12994495Y25971796D01*
X13018999Y25973000D01*
X13669001Y25973000D01*
X13693505Y25971796D01*
G37*
G36*
X11643505Y25971796D02*
G01*
X11667773Y25968196D01*
X11691572Y25962235D01*
X11714671Y25953970D01*
X11736850Y25943480D01*
X11757893Y25930868D01*
X11777599Y25916253D01*
X11795777Y25899777D01*
X11812253Y25881599D01*
X11826868Y25861893D01*
X11839480Y25840850D01*
X11849970Y25818671D01*
X11858235Y25795572D01*
X11864196Y25771773D01*
X11867796Y25747505D01*
X11869000Y25723001D01*
X11869000Y24822999D01*
X11867796Y24798495D01*
X11864196Y24774227D01*
X11858235Y24750428D01*
X11849970Y24727329D01*
X11839480Y24705150D01*
X11826868Y24684107D01*
X11812253Y24664401D01*
X11795777Y24646223D01*
X11777599Y24629747D01*
X11757893Y24615132D01*
X11736850Y24602520D01*
X11714671Y24592030D01*
X11691572Y24583765D01*
X11667773Y24577804D01*
X11643505Y24574204D01*
X11619001Y24573000D01*
X10968999Y24573000D01*
X10944495Y24574204D01*
X10920227Y24577804D01*
X10896428Y24583765D01*
X10873329Y24592030D01*
X10851150Y24602520D01*
X10830107Y24615132D01*
X10810401Y24629747D01*
X10792223Y24646223D01*
X10775747Y24664401D01*
X10761132Y24684107D01*
X10748520Y24705150D01*
X10738030Y24727329D01*
X10729765Y24750428D01*
X10723804Y24774227D01*
X10720204Y24798495D01*
X10719000Y24822999D01*
X10719000Y25723001D01*
X10720204Y25747505D01*
X10723804Y25771773D01*
X10729765Y25795572D01*
X10738030Y25818671D01*
X10748520Y25840850D01*
X10761132Y25861893D01*
X10775747Y25881599D01*
X10792223Y25899777D01*
X10810401Y25916253D01*
X10830107Y25930868D01*
X10851150Y25943480D01*
X10873329Y25953970D01*
X10896428Y25962235D01*
X10920227Y25968196D01*
X10944495Y25971796D01*
X10968999Y25973000D01*
X11619001Y25973000D01*
X11643505Y25971796D01*
G37*
G36*
X17605105Y7455196D02*
G01*
X17629373Y7451596D01*
X17653172Y7445635D01*
X17676271Y7437370D01*
X17698450Y7426880D01*
X17719493Y7414268D01*
X17739199Y7399653D01*
X17757377Y7383177D01*
X17773853Y7364999D01*
X17788468Y7345293D01*
X17801080Y7324250D01*
X17811570Y7302071D01*
X17819835Y7278972D01*
X17825796Y7255173D01*
X17829396Y7230905D01*
X17830600Y7206401D01*
X17830600Y6306399D01*
X17829396Y6281895D01*
X17825796Y6257627D01*
X17819835Y6233828D01*
X17811570Y6210729D01*
X17801080Y6188550D01*
X17788468Y6167507D01*
X17773853Y6147801D01*
X17757377Y6129623D01*
X17739199Y6113147D01*
X17719493Y6098532D01*
X17698450Y6085920D01*
X17676271Y6075430D01*
X17653172Y6067165D01*
X17629373Y6061204D01*
X17605105Y6057604D01*
X17580601Y6056400D01*
X16930599Y6056400D01*
X16906095Y6057604D01*
X16881827Y6061204D01*
X16858028Y6067165D01*
X16834929Y6075430D01*
X16812750Y6085920D01*
X16791707Y6098532D01*
X16772001Y6113147D01*
X16753823Y6129623D01*
X16737347Y6147801D01*
X16722732Y6167507D01*
X16710120Y6188550D01*
X16699630Y6210729D01*
X16691365Y6233828D01*
X16685404Y6257627D01*
X16681804Y6281895D01*
X16680600Y6306399D01*
X16680600Y7206401D01*
X16681804Y7230905D01*
X16685404Y7255173D01*
X16691365Y7278972D01*
X16699630Y7302071D01*
X16710120Y7324250D01*
X16722732Y7345293D01*
X16737347Y7364999D01*
X16753823Y7383177D01*
X16772001Y7399653D01*
X16791707Y7414268D01*
X16812750Y7426880D01*
X16834929Y7437370D01*
X16858028Y7445635D01*
X16881827Y7451596D01*
X16906095Y7455196D01*
X16930599Y7456400D01*
X17580601Y7456400D01*
X17605105Y7455196D01*
G37*
G36*
X15555105Y7455196D02*
G01*
X15579373Y7451596D01*
X15603172Y7445635D01*
X15626271Y7437370D01*
X15648450Y7426880D01*
X15669493Y7414268D01*
X15689199Y7399653D01*
X15707377Y7383177D01*
X15723853Y7364999D01*
X15738468Y7345293D01*
X15751080Y7324250D01*
X15761570Y7302071D01*
X15769835Y7278972D01*
X15775796Y7255173D01*
X15779396Y7230905D01*
X15780600Y7206401D01*
X15780600Y6306399D01*
X15779396Y6281895D01*
X15775796Y6257627D01*
X15769835Y6233828D01*
X15761570Y6210729D01*
X15751080Y6188550D01*
X15738468Y6167507D01*
X15723853Y6147801D01*
X15707377Y6129623D01*
X15689199Y6113147D01*
X15669493Y6098532D01*
X15648450Y6085920D01*
X15626271Y6075430D01*
X15603172Y6067165D01*
X15579373Y6061204D01*
X15555105Y6057604D01*
X15530601Y6056400D01*
X14880599Y6056400D01*
X14856095Y6057604D01*
X14831827Y6061204D01*
X14808028Y6067165D01*
X14784929Y6075430D01*
X14762750Y6085920D01*
X14741707Y6098532D01*
X14722001Y6113147D01*
X14703823Y6129623D01*
X14687347Y6147801D01*
X14672732Y6167507D01*
X14660120Y6188550D01*
X14649630Y6210729D01*
X14641365Y6233828D01*
X14635404Y6257627D01*
X14631804Y6281895D01*
X14630600Y6306399D01*
X14630600Y7206401D01*
X14631804Y7230905D01*
X14635404Y7255173D01*
X14641365Y7278972D01*
X14649630Y7302071D01*
X14660120Y7324250D01*
X14672732Y7345293D01*
X14687347Y7364999D01*
X14703823Y7383177D01*
X14722001Y7399653D01*
X14741707Y7414268D01*
X14762750Y7426880D01*
X14784929Y7437370D01*
X14808028Y7445635D01*
X14831827Y7451596D01*
X14856095Y7455196D01*
X14880599Y7456400D01*
X15530601Y7456400D01*
X15555105Y7455196D01*
G37*
G36*
X11821305Y29527796D02*
G01*
X11845573Y29524196D01*
X11869372Y29518235D01*
X11892471Y29509970D01*
X11914650Y29499480D01*
X11935693Y29486868D01*
X11955399Y29472253D01*
X11973577Y29455777D01*
X11990053Y29437599D01*
X12004668Y29417893D01*
X12017280Y29396850D01*
X12027770Y29374671D01*
X12036035Y29351572D01*
X12041996Y29327773D01*
X12045596Y29303505D01*
X12046800Y29279001D01*
X12046800Y28378999D01*
X12045596Y28354495D01*
X12041996Y28330227D01*
X12036035Y28306428D01*
X12027770Y28283329D01*
X12017280Y28261150D01*
X12004668Y28240107D01*
X11990053Y28220401D01*
X11973577Y28202223D01*
X11955399Y28185747D01*
X11935693Y28171132D01*
X11914650Y28158520D01*
X11892471Y28148030D01*
X11869372Y28139765D01*
X11845573Y28133804D01*
X11821305Y28130204D01*
X11796801Y28129000D01*
X11146799Y28129000D01*
X11122295Y28130204D01*
X11098027Y28133804D01*
X11074228Y28139765D01*
X11051129Y28148030D01*
X11028950Y28158520D01*
X11007907Y28171132D01*
X10988201Y28185747D01*
X10970023Y28202223D01*
X10953547Y28220401D01*
X10938932Y28240107D01*
X10926320Y28261150D01*
X10915830Y28283329D01*
X10907565Y28306428D01*
X10901604Y28330227D01*
X10898004Y28354495D01*
X10896800Y28378999D01*
X10896800Y29279001D01*
X10898004Y29303505D01*
X10901604Y29327773D01*
X10907565Y29351572D01*
X10915830Y29374671D01*
X10926320Y29396850D01*
X10938932Y29417893D01*
X10953547Y29437599D01*
X10970023Y29455777D01*
X10988201Y29472253D01*
X11007907Y29486868D01*
X11028950Y29499480D01*
X11051129Y29509970D01*
X11074228Y29518235D01*
X11098027Y29524196D01*
X11122295Y29527796D01*
X11146799Y29529000D01*
X11796801Y29529000D01*
X11821305Y29527796D01*
G37*
G36*
X13871305Y29527796D02*
G01*
X13895573Y29524196D01*
X13919372Y29518235D01*
X13942471Y29509970D01*
X13964650Y29499480D01*
X13985693Y29486868D01*
X14005399Y29472253D01*
X14023577Y29455777D01*
X14040053Y29437599D01*
X14054668Y29417893D01*
X14067280Y29396850D01*
X14077770Y29374671D01*
X14086035Y29351572D01*
X14091996Y29327773D01*
X14095596Y29303505D01*
X14096800Y29279001D01*
X14096800Y28378999D01*
X14095596Y28354495D01*
X14091996Y28330227D01*
X14086035Y28306428D01*
X14077770Y28283329D01*
X14067280Y28261150D01*
X14054668Y28240107D01*
X14040053Y28220401D01*
X14023577Y28202223D01*
X14005399Y28185747D01*
X13985693Y28171132D01*
X13964650Y28158520D01*
X13942471Y28148030D01*
X13919372Y28139765D01*
X13895573Y28133804D01*
X13871305Y28130204D01*
X13846801Y28129000D01*
X13196799Y28129000D01*
X13172295Y28130204D01*
X13148027Y28133804D01*
X13124228Y28139765D01*
X13101129Y28148030D01*
X13078950Y28158520D01*
X13057907Y28171132D01*
X13038201Y28185747D01*
X13020023Y28202223D01*
X13003547Y28220401D01*
X12988932Y28240107D01*
X12976320Y28261150D01*
X12965830Y28283329D01*
X12957565Y28306428D01*
X12951604Y28330227D01*
X12948004Y28354495D01*
X12946800Y28378999D01*
X12946800Y29279001D01*
X12948004Y29303505D01*
X12951604Y29327773D01*
X12957565Y29351572D01*
X12965830Y29374671D01*
X12976320Y29396850D01*
X12988932Y29417893D01*
X13003547Y29437599D01*
X13020023Y29455777D01*
X13038201Y29472253D01*
X13057907Y29486868D01*
X13078950Y29499480D01*
X13101129Y29509970D01*
X13124228Y29518235D01*
X13148027Y29524196D01*
X13172295Y29527796D01*
X13196799Y29529000D01*
X13846801Y29529000D01*
X13871305Y29527796D01*
G37*
G36*
X15293705Y9944396D02*
G01*
X15317973Y9940796D01*
X15341772Y9934835D01*
X15364871Y9926570D01*
X15387050Y9916080D01*
X15408093Y9903468D01*
X15427799Y9888853D01*
X15445977Y9872377D01*
X15462453Y9854199D01*
X15477068Y9834493D01*
X15489680Y9813450D01*
X15500170Y9791271D01*
X15508435Y9768172D01*
X15514396Y9744373D01*
X15517996Y9720105D01*
X15519200Y9695601D01*
X15519200Y8795599D01*
X15517996Y8771095D01*
X15514396Y8746827D01*
X15508435Y8723028D01*
X15500170Y8699929D01*
X15489680Y8677750D01*
X15477068Y8656707D01*
X15462453Y8637001D01*
X15445977Y8618823D01*
X15427799Y8602347D01*
X15408093Y8587732D01*
X15387050Y8575120D01*
X15364871Y8564630D01*
X15341772Y8556365D01*
X15317973Y8550404D01*
X15293705Y8546804D01*
X15269201Y8545600D01*
X14619199Y8545600D01*
X14594695Y8546804D01*
X14570427Y8550404D01*
X14546628Y8556365D01*
X14523529Y8564630D01*
X14501350Y8575120D01*
X14480307Y8587732D01*
X14460601Y8602347D01*
X14442423Y8618823D01*
X14425947Y8637001D01*
X14411332Y8656707D01*
X14398720Y8677750D01*
X14388230Y8699929D01*
X14379965Y8723028D01*
X14374004Y8746827D01*
X14370404Y8771095D01*
X14369200Y8795599D01*
X14369200Y9695601D01*
X14370404Y9720105D01*
X14374004Y9744373D01*
X14379965Y9768172D01*
X14388230Y9791271D01*
X14398720Y9813450D01*
X14411332Y9834493D01*
X14425947Y9854199D01*
X14442423Y9872377D01*
X14460601Y9888853D01*
X14480307Y9903468D01*
X14501350Y9916080D01*
X14523529Y9926570D01*
X14546628Y9934835D01*
X14570427Y9940796D01*
X14594695Y9944396D01*
X14619199Y9945600D01*
X15269201Y9945600D01*
X15293705Y9944396D01*
G37*
G36*
X13243705Y9944396D02*
G01*
X13267973Y9940796D01*
X13291772Y9934835D01*
X13314871Y9926570D01*
X13337050Y9916080D01*
X13358093Y9903468D01*
X13377799Y9888853D01*
X13395977Y9872377D01*
X13412453Y9854199D01*
X13427068Y9834493D01*
X13439680Y9813450D01*
X13450170Y9791271D01*
X13458435Y9768172D01*
X13464396Y9744373D01*
X13467996Y9720105D01*
X13469200Y9695601D01*
X13469200Y8795599D01*
X13467996Y8771095D01*
X13464396Y8746827D01*
X13458435Y8723028D01*
X13450170Y8699929D01*
X13439680Y8677750D01*
X13427068Y8656707D01*
X13412453Y8637001D01*
X13395977Y8618823D01*
X13377799Y8602347D01*
X13358093Y8587732D01*
X13337050Y8575120D01*
X13314871Y8564630D01*
X13291772Y8556365D01*
X13267973Y8550404D01*
X13243705Y8546804D01*
X13219201Y8545600D01*
X12569199Y8545600D01*
X12544695Y8546804D01*
X12520427Y8550404D01*
X12496628Y8556365D01*
X12473529Y8564630D01*
X12451350Y8575120D01*
X12430307Y8587732D01*
X12410601Y8602347D01*
X12392423Y8618823D01*
X12375947Y8637001D01*
X12361332Y8656707D01*
X12348720Y8677750D01*
X12338230Y8699929D01*
X12329965Y8723028D01*
X12324004Y8746827D01*
X12320404Y8771095D01*
X12319200Y8795599D01*
X12319200Y9695601D01*
X12320404Y9720105D01*
X12324004Y9744373D01*
X12329965Y9768172D01*
X12338230Y9791271D01*
X12348720Y9813450D01*
X12361332Y9834493D01*
X12375947Y9854199D01*
X12392423Y9872377D01*
X12410601Y9888853D01*
X12430307Y9903468D01*
X12451350Y9916080D01*
X12473529Y9926570D01*
X12496628Y9934835D01*
X12520427Y9940796D01*
X12544695Y9944396D01*
X12569199Y9945600D01*
X13219201Y9945600D01*
X13243705Y9944396D01*
G37*
D18*
X9600800Y35102800D03*
D19*
X15900800Y35102800D03*
X15900800Y37402800D03*
X15900800Y32802800D03*
M02*
