M48
; DRILL file {KiCad (5.1.5)-3} date 07/03/2020 17:44:01
; FORMAT={-:-/ absolute / metric / decimal}
; #@! TF.CreationDate,2020-03-07T17:44:01+00:00
; #@! TF.GenerationSoftware,Kicad,Pcbnew,(5.1.5)-3
; #@! TF.FileFunction,Plated,1,2,PTH
FMAT,2
METRIC
T1C0.400
T2C0.700
T3C0.800
T4C0.950
T5C1.000
%
G90
G05
T1
X33.985Y16.358
X37.236Y14.859
T2
X23.317Y9.754
X30.937Y9.754
T3
X21.844Y6.248
X29.464Y6.248
X17.678Y21.412
X17.678Y18.872
X17.678Y16.332
X17.678Y13.792
X25.298Y21.412
X25.298Y18.872
X25.298Y16.332
X25.298Y13.792
X31.572Y23.292
X31.572Y15.672
T4
X25.883Y35.56
X28.383Y35.56
X30.883Y35.56
T5
X9.373Y8.941
X9.373Y6.401
X11.862Y18.847
X11.862Y16.307
X11.862Y13.767
X24.562Y27.915
X27.102Y27.915
X29.642Y27.915
T0
M30
