G04 #@! TF.GenerationSoftware,KiCad,Pcbnew,(5.1.5)-3*
G04 #@! TF.CreationDate,2020-03-07T17:44:20+00:00*
G04 #@! TF.ProjectId,DigiSpark v3,44696769-5370-4617-926b-2076332e6b69,rev?*
G04 #@! TF.SameCoordinates,PX291b638PY79240f8*
G04 #@! TF.FileFunction,Legend,Bot*
G04 #@! TF.FilePolarity,Positive*
%FSLAX46Y46*%
G04 Gerber Fmt 4.6, Leading zero omitted, Abs format (unit mm)*
G04 Created by KiCad (PCBNEW (5.1.5)-3) date 2020-03-07 17:44:20*
%MOMM*%
%LPD*%
G04 APERTURE LIST*
%ADD10C,0.150000*%
%ADD11C,0.120000*%
G04 APERTURE END LIST*
D10*
X21646095Y3728981D02*
X21646095Y2728981D01*
X21979428Y3443267D01*
X22312761Y2728981D01*
X22312761Y3728981D01*
X23217523Y3728981D02*
X23217523Y3205172D01*
X23169904Y3109934D01*
X23074666Y3062315D01*
X22884190Y3062315D01*
X22788952Y3109934D01*
X23217523Y3681362D02*
X23122285Y3728981D01*
X22884190Y3728981D01*
X22788952Y3681362D01*
X22741333Y3586124D01*
X22741333Y3490886D01*
X22788952Y3395648D01*
X22884190Y3348029D01*
X23122285Y3348029D01*
X23217523Y3300410D01*
X23693714Y3728981D02*
X23693714Y3062315D01*
X23693714Y3252791D02*
X23741333Y3157553D01*
X23788952Y3109934D01*
X23884190Y3062315D01*
X23979428Y3062315D01*
X24741333Y3681362D02*
X24646095Y3728981D01*
X24455619Y3728981D01*
X24360380Y3681362D01*
X24312761Y3633743D01*
X24265142Y3538505D01*
X24265142Y3252791D01*
X24312761Y3157553D01*
X24360380Y3109934D01*
X24455619Y3062315D01*
X24646095Y3062315D01*
X24741333Y3109934D01*
X25169904Y3728981D02*
X25169904Y2728981D01*
X25598476Y3728981D02*
X25598476Y3205172D01*
X25550857Y3109934D01*
X25455619Y3062315D01*
X25312761Y3062315D01*
X25217523Y3109934D01*
X25169904Y3157553D01*
X26788952Y2824220D02*
X26836571Y2776600D01*
X26931809Y2728981D01*
X27169904Y2728981D01*
X27265142Y2776600D01*
X27312761Y2824220D01*
X27360380Y2919458D01*
X27360380Y3014696D01*
X27312761Y3157553D01*
X26741333Y3728981D01*
X27360380Y3728981D01*
X27979428Y2728981D02*
X28074666Y2728981D01*
X28169904Y2776600D01*
X28217523Y2824220D01*
X28265142Y2919458D01*
X28312761Y3109934D01*
X28312761Y3348029D01*
X28265142Y3538505D01*
X28217523Y3633743D01*
X28169904Y3681362D01*
X28074666Y3728981D01*
X27979428Y3728981D01*
X27884190Y3681362D01*
X27836571Y3633743D01*
X27788952Y3538505D01*
X27741333Y3348029D01*
X27741333Y3109934D01*
X27788952Y2919458D01*
X27836571Y2824220D01*
X27884190Y2776600D01*
X27979428Y2728981D01*
X28693714Y2824220D02*
X28741333Y2776600D01*
X28836571Y2728981D01*
X29074666Y2728981D01*
X29169904Y2776600D01*
X29217523Y2824220D01*
X29265142Y2919458D01*
X29265142Y3014696D01*
X29217523Y3157553D01*
X28646095Y3728981D01*
X29265142Y3728981D01*
X29884190Y2728981D02*
X29979428Y2728981D01*
X30074666Y2776600D01*
X30122285Y2824220D01*
X30169904Y2919458D01*
X30217523Y3109934D01*
X30217523Y3348029D01*
X30169904Y3538505D01*
X30122285Y3633743D01*
X30074666Y3681362D01*
X29979428Y3728981D01*
X29884190Y3728981D01*
X29788952Y3681362D01*
X29741333Y3633743D01*
X29693714Y3538505D01*
X29646095Y3348029D01*
X29646095Y3109934D01*
X29693714Y2919458D01*
X29741333Y2824220D01*
X29788952Y2776600D01*
X29884190Y2728981D01*
X40860266Y35754820D02*
X40860266Y36754820D01*
X40288838Y35754820D01*
X40288838Y36754820D01*
X39241219Y35850058D02*
X39288838Y35802439D01*
X39431695Y35754820D01*
X39526933Y35754820D01*
X39669790Y35802439D01*
X39765028Y35897677D01*
X39812647Y35992915D01*
X39860266Y36183391D01*
X39860266Y36326248D01*
X39812647Y36516724D01*
X39765028Y36611962D01*
X39669790Y36707200D01*
X39526933Y36754820D01*
X39431695Y36754820D01*
X39288838Y36707200D01*
X39241219Y36659581D01*
X37288838Y36135772D02*
X36526933Y36135772D01*
X35288838Y36135772D02*
X34526933Y36135772D01*
X34907885Y35754820D02*
X34907885Y36516724D01*
X40098361Y34104820D02*
X40098361Y35104820D01*
X39717409Y35104820D01*
X39622171Y35057200D01*
X39574552Y35009581D01*
X39526933Y34914343D01*
X39526933Y34771486D01*
X39574552Y34676248D01*
X39622171Y34628629D01*
X39717409Y34581010D01*
X40098361Y34581010D01*
X39193600Y35104820D02*
X38955504Y34104820D01*
X38765028Y34819105D01*
X38574552Y34104820D01*
X38336457Y35104820D01*
X37384076Y34104820D02*
X37717409Y34581010D01*
X37955504Y34104820D02*
X37955504Y35104820D01*
X37574552Y35104820D01*
X37479314Y35057200D01*
X37431695Y35009581D01*
X37384076Y34914343D01*
X37384076Y34771486D01*
X37431695Y34676248D01*
X37479314Y34628629D01*
X37574552Y34581010D01*
X37955504Y34581010D01*
X36193600Y34104820D02*
X36193600Y35104820D01*
X35717409Y34771486D02*
X35717409Y34104820D01*
X35717409Y34676248D02*
X35669790Y34723867D01*
X35574552Y34771486D01*
X35431695Y34771486D01*
X35336457Y34723867D01*
X35288838Y34628629D01*
X35288838Y34104820D01*
X23457304Y23497115D02*
X23457304Y24497115D01*
X23457304Y23544734D02*
X23552542Y23497115D01*
X23743019Y23497115D01*
X23838257Y23544734D01*
X23885876Y23592353D01*
X23933495Y23687591D01*
X23933495Y23973305D01*
X23885876Y24068543D01*
X23838257Y24116162D01*
X23743019Y24163781D01*
X23552542Y24163781D01*
X23457304Y24116162D01*
X24362066Y24163781D02*
X24362066Y23163781D01*
X24362066Y23544734D02*
X24457304Y23497115D01*
X24647780Y23497115D01*
X24743019Y23544734D01*
X24790638Y23592353D01*
X24838257Y23687591D01*
X24838257Y23973305D01*
X24790638Y24068543D01*
X24743019Y24116162D01*
X24647780Y24163781D01*
X24457304Y24163781D01*
X24362066Y24116162D01*
X26028733Y23497115D02*
X26028733Y24497115D01*
X26028733Y23544734D02*
X26123971Y23497115D01*
X26314447Y23497115D01*
X26409685Y23544734D01*
X26457304Y23592353D01*
X26504923Y23687591D01*
X26504923Y23973305D01*
X26457304Y24068543D01*
X26409685Y24116162D01*
X26314447Y24163781D01*
X26123971Y24163781D01*
X26028733Y24116162D01*
X26933495Y24163781D02*
X26933495Y23163781D01*
X26933495Y23544734D02*
X27028733Y23497115D01*
X27219209Y23497115D01*
X27314447Y23544734D01*
X27362066Y23592353D01*
X27409685Y23687591D01*
X27409685Y23973305D01*
X27362066Y24068543D01*
X27314447Y24116162D01*
X27219209Y24163781D01*
X27028733Y24163781D01*
X26933495Y24116162D01*
X28600161Y23497115D02*
X28600161Y24497115D01*
X28600161Y23544734D02*
X28695400Y23497115D01*
X28885876Y23497115D01*
X28981114Y23544734D01*
X29028733Y23592353D01*
X29076352Y23687591D01*
X29076352Y23973305D01*
X29028733Y24068543D01*
X28981114Y24116162D01*
X28885876Y24163781D01*
X28695400Y24163781D01*
X28600161Y24116162D01*
X29504923Y24163781D02*
X29504923Y23163781D01*
X29504923Y23544734D02*
X29600161Y23497115D01*
X29790638Y23497115D01*
X29885876Y23544734D01*
X29933495Y23592353D01*
X29981114Y23687591D01*
X29981114Y23973305D01*
X29933495Y24068543D01*
X29885876Y24116162D01*
X29790638Y24163781D01*
X29600161Y24163781D01*
X29504923Y24116162D01*
X22743019Y24813781D02*
X23362066Y24813781D01*
X23028733Y25194734D01*
X23171590Y25194734D01*
X23266828Y25242353D01*
X23314447Y25289972D01*
X23362066Y25385210D01*
X23362066Y25623305D01*
X23314447Y25718543D01*
X23266828Y25766162D01*
X23171590Y25813781D01*
X22885876Y25813781D01*
X22790638Y25766162D01*
X22743019Y25718543D01*
X27266828Y25147115D02*
X27266828Y25813781D01*
X27028733Y24766162D02*
X26790638Y25480448D01*
X27409685Y25480448D01*
X31314447Y24813781D02*
X30838257Y24813781D01*
X30790638Y25289972D01*
X30838257Y25242353D01*
X30933495Y25194734D01*
X31171590Y25194734D01*
X31266828Y25242353D01*
X31314447Y25289972D01*
X31362066Y25385210D01*
X31362066Y25623305D01*
X31314447Y25718543D01*
X31266828Y25766162D01*
X31171590Y25813781D01*
X30933495Y25813781D01*
X30838257Y25766162D01*
X30790638Y25718543D01*
X9522885Y13043305D02*
X8522885Y13043305D01*
X9475266Y13043305D02*
X9522885Y13138543D01*
X9522885Y13329020D01*
X9475266Y13424258D01*
X9427647Y13471877D01*
X9332409Y13519496D01*
X9046695Y13519496D01*
X8951457Y13471877D01*
X8903838Y13424258D01*
X8856219Y13329020D01*
X8856219Y13138543D01*
X8903838Y13043305D01*
X8856219Y13948067D02*
X9856219Y13948067D01*
X9475266Y13948067D02*
X9522885Y14043305D01*
X9522885Y14233781D01*
X9475266Y14329020D01*
X9427647Y14376639D01*
X9332409Y14424258D01*
X9046695Y14424258D01*
X8951457Y14376639D01*
X8903838Y14329020D01*
X8856219Y14233781D01*
X8856219Y14043305D01*
X8903838Y13948067D01*
X9522885Y15614734D02*
X8522885Y15614734D01*
X9475266Y15614734D02*
X9522885Y15709972D01*
X9522885Y15900448D01*
X9475266Y15995686D01*
X9427647Y16043305D01*
X9332409Y16090924D01*
X9046695Y16090924D01*
X8951457Y16043305D01*
X8903838Y15995686D01*
X8856219Y15900448D01*
X8856219Y15709972D01*
X8903838Y15614734D01*
X8856219Y16519496D02*
X9856219Y16519496D01*
X9475266Y16519496D02*
X9522885Y16614734D01*
X9522885Y16805210D01*
X9475266Y16900448D01*
X9427647Y16948067D01*
X9332409Y16995686D01*
X9046695Y16995686D01*
X8951457Y16948067D01*
X8903838Y16900448D01*
X8856219Y16805210D01*
X8856219Y16614734D01*
X8903838Y16519496D01*
X9522885Y18186162D02*
X8522885Y18186162D01*
X9475266Y18186162D02*
X9522885Y18281400D01*
X9522885Y18471877D01*
X9475266Y18567115D01*
X9427647Y18614734D01*
X9332409Y18662353D01*
X9046695Y18662353D01*
X8951457Y18614734D01*
X8903838Y18567115D01*
X8856219Y18471877D01*
X8856219Y18281400D01*
X8903838Y18186162D01*
X8856219Y19090924D02*
X9856219Y19090924D01*
X9475266Y19090924D02*
X9522885Y19186162D01*
X9522885Y19376639D01*
X9475266Y19471877D01*
X9427647Y19519496D01*
X9332409Y19567115D01*
X9046695Y19567115D01*
X8951457Y19519496D01*
X8903838Y19471877D01*
X8856219Y19376639D01*
X8856219Y19186162D01*
X8903838Y19090924D01*
X8206219Y12614734D02*
X8206219Y12709972D01*
X8158600Y12805210D01*
X8110980Y12852829D01*
X8015742Y12900448D01*
X7825266Y12948067D01*
X7587171Y12948067D01*
X7396695Y12900448D01*
X7301457Y12852829D01*
X7253838Y12805210D01*
X7206219Y12709972D01*
X7206219Y12614734D01*
X7253838Y12519496D01*
X7301457Y12471877D01*
X7396695Y12424258D01*
X7587171Y12376639D01*
X7825266Y12376639D01*
X8015742Y12424258D01*
X8110980Y12471877D01*
X8158600Y12519496D01*
X8206219Y12614734D01*
X7206219Y16948067D02*
X7206219Y16376639D01*
X7206219Y16662353D02*
X8206219Y16662353D01*
X8063361Y16567115D01*
X7968123Y16471877D01*
X7920504Y16376639D01*
X8110980Y20376639D02*
X8158600Y20424258D01*
X8206219Y20519496D01*
X8206219Y20757591D01*
X8158600Y20852829D01*
X8110980Y20900448D01*
X8015742Y20948067D01*
X7920504Y20948067D01*
X7777647Y20900448D01*
X7206219Y20329020D01*
X7206219Y20948067D01*
X14583419Y3848362D02*
X15583419Y3848362D01*
X15583419Y4229315D01*
X15535800Y4324553D01*
X15488180Y4372172D01*
X15392942Y4419791D01*
X15250085Y4419791D01*
X15154847Y4372172D01*
X15107228Y4324553D01*
X15059609Y4229315D01*
X15059609Y3848362D01*
X14583419Y4991220D02*
X14631038Y4895981D01*
X14678657Y4848362D01*
X14773895Y4800743D01*
X15059609Y4800743D01*
X15154847Y4848362D01*
X15202466Y4895981D01*
X15250085Y4991220D01*
X15250085Y5134077D01*
X15202466Y5229315D01*
X15154847Y5276934D01*
X15059609Y5324553D01*
X14773895Y5324553D01*
X14678657Y5276934D01*
X14631038Y5229315D01*
X14583419Y5134077D01*
X14583419Y4991220D01*
X15250085Y5657886D02*
X14583419Y5848362D01*
X15059609Y6038839D01*
X14583419Y6229315D01*
X15250085Y6419791D01*
X14631038Y7181696D02*
X14583419Y7086458D01*
X14583419Y6895981D01*
X14631038Y6800743D01*
X14726276Y6753124D01*
X15107228Y6753124D01*
X15202466Y6800743D01*
X15250085Y6895981D01*
X15250085Y7086458D01*
X15202466Y7181696D01*
X15107228Y7229315D01*
X15011990Y7229315D01*
X14916752Y6753124D01*
X14583419Y7657886D02*
X15250085Y7657886D01*
X15059609Y7657886D02*
X15154847Y7705505D01*
X15202466Y7753124D01*
X15250085Y7848362D01*
X15250085Y7943600D01*
X15583419Y9229315D02*
X15583419Y9419791D01*
X15535800Y9515029D01*
X15440561Y9610267D01*
X15250085Y9657886D01*
X14916752Y9657886D01*
X14726276Y9610267D01*
X14631038Y9515029D01*
X14583419Y9419791D01*
X14583419Y9229315D01*
X14631038Y9134077D01*
X14726276Y9038839D01*
X14916752Y8991220D01*
X15250085Y8991220D01*
X15440561Y9038839D01*
X15535800Y9134077D01*
X15583419Y9229315D01*
X15250085Y10515029D02*
X14583419Y10515029D01*
X15250085Y10086458D02*
X14726276Y10086458D01*
X14631038Y10134077D01*
X14583419Y10229315D01*
X14583419Y10372172D01*
X14631038Y10467410D01*
X14678657Y10515029D01*
X15250085Y10848362D02*
X15250085Y11229315D01*
X15583419Y10991220D02*
X14726276Y10991220D01*
X14631038Y11038839D01*
X14583419Y11134077D01*
X14583419Y11229315D01*
X13933419Y7276934D02*
X13933419Y6800743D01*
X13457228Y6753124D01*
X13504847Y6800743D01*
X13552466Y6895981D01*
X13552466Y7134077D01*
X13504847Y7229315D01*
X13457228Y7276934D01*
X13361990Y7324553D01*
X13123895Y7324553D01*
X13028657Y7276934D01*
X12981038Y7229315D01*
X12933419Y7134077D01*
X12933419Y6895981D01*
X12981038Y6800743D01*
X13028657Y6753124D01*
X13933419Y7610267D02*
X12933419Y7943600D01*
X13933419Y8276934D01*
X11664371Y5705505D02*
X11664371Y6467410D01*
X11283419Y6086458D02*
X12045323Y6086458D01*
X11664371Y8467410D02*
X11664371Y9229315D01*
X42309171Y30544886D02*
X40809171Y30544886D01*
X40809171Y30187743D01*
X40880600Y29973458D01*
X41023457Y29830600D01*
X41166314Y29759172D01*
X41452028Y29687743D01*
X41666314Y29687743D01*
X41952028Y29759172D01*
X42094885Y29830600D01*
X42237742Y29973458D01*
X42309171Y30187743D01*
X42309171Y30544886D01*
X42309171Y29044886D02*
X41309171Y29044886D01*
X40809171Y29044886D02*
X40880600Y29116315D01*
X40952028Y29044886D01*
X40880600Y28973458D01*
X40809171Y29044886D01*
X40952028Y29044886D01*
X41309171Y27687743D02*
X42523457Y27687743D01*
X42666314Y27759172D01*
X42737742Y27830600D01*
X42809171Y27973458D01*
X42809171Y28187743D01*
X42737742Y28330600D01*
X42237742Y27687743D02*
X42309171Y27830600D01*
X42309171Y28116315D01*
X42237742Y28259172D01*
X42166314Y28330600D01*
X42023457Y28402029D01*
X41594885Y28402029D01*
X41452028Y28330600D01*
X41380600Y28259172D01*
X41309171Y28116315D01*
X41309171Y27830600D01*
X41380600Y27687743D01*
X42309171Y26973458D02*
X41309171Y26973458D01*
X40809171Y26973458D02*
X40880600Y27044886D01*
X40952028Y26973458D01*
X40880600Y26902029D01*
X40809171Y26973458D01*
X40952028Y26973458D01*
X42309171Y26259172D02*
X40809171Y26259172D01*
X40809171Y25687743D01*
X40880600Y25544886D01*
X40952028Y25473458D01*
X41094885Y25402029D01*
X41309171Y25402029D01*
X41452028Y25473458D01*
X41523457Y25544886D01*
X41594885Y25687743D01*
X41594885Y26259172D01*
X42309171Y24759172D02*
X41309171Y24759172D01*
X40809171Y24759172D02*
X40880600Y24830600D01*
X40952028Y24759172D01*
X40880600Y24687743D01*
X40809171Y24759172D01*
X40952028Y24759172D01*
X42309171Y24187743D02*
X41309171Y23402029D01*
X41309171Y24187743D02*
X42309171Y23402029D01*
X42237742Y22259172D02*
X42309171Y22402029D01*
X42309171Y22687743D01*
X42237742Y22830600D01*
X42094885Y22902029D01*
X41523457Y22902029D01*
X41380600Y22830600D01*
X41309171Y22687743D01*
X41309171Y22402029D01*
X41380600Y22259172D01*
X41523457Y22187743D01*
X41666314Y22187743D01*
X41809171Y22902029D01*
X42309171Y21330600D02*
X42237742Y21473458D01*
X42094885Y21544886D01*
X40809171Y21544886D01*
X42309171Y19616315D02*
X40809171Y19616315D01*
X40809171Y19259172D01*
X40880600Y19044886D01*
X41023457Y18902029D01*
X41166314Y18830600D01*
X41452028Y18759172D01*
X41666314Y18759172D01*
X41952028Y18830600D01*
X42094885Y18902029D01*
X42237742Y19044886D01*
X42309171Y19259172D01*
X42309171Y19616315D01*
X41523457Y17616315D02*
X41594885Y17402029D01*
X41666314Y17330600D01*
X41809171Y17259172D01*
X42023457Y17259172D01*
X42166314Y17330600D01*
X42237742Y17402029D01*
X42309171Y17544886D01*
X42309171Y18116315D01*
X40809171Y18116315D01*
X40809171Y17616315D01*
X40880600Y17473458D01*
X40952028Y17402029D01*
X41094885Y17330600D01*
X41237742Y17330600D01*
X41380600Y17402029D01*
X41452028Y17473458D01*
X41523457Y17616315D01*
X41523457Y18116315D01*
X40809171Y16830600D02*
X42309171Y16330600D01*
X40809171Y15830600D01*
X40809171Y15473458D02*
X40809171Y14544886D01*
X41380600Y15044886D01*
X41380600Y14830600D01*
X41452028Y14687743D01*
X41523457Y14616315D01*
X41666314Y14544886D01*
X42023457Y14544886D01*
X42166314Y14616315D01*
X42237742Y14687743D01*
X42309171Y14830600D01*
X42309171Y15259172D01*
X42237742Y15402029D01*
X42166314Y15473458D01*
D11*
X10531800Y15036800D02*
X13191800Y15036800D01*
X10531800Y15036800D02*
X10531800Y20176800D01*
X10531800Y20176800D02*
X13191800Y20176800D01*
X13191800Y15036800D02*
X13191800Y20176800D01*
X13191800Y12436800D02*
X13191800Y13766800D01*
X11861800Y12436800D02*
X13191800Y12436800D01*
X23231800Y27914600D02*
X23231800Y26584600D01*
X23231800Y26584600D02*
X24561800Y26584600D01*
X25831800Y26584600D02*
X30971800Y26584600D01*
X30971800Y29244600D02*
X30971800Y26584600D01*
X25831800Y29244600D02*
X30971800Y29244600D01*
X25831800Y29244600D02*
X25831800Y26584600D01*
X23322600Y33100000D02*
X23322600Y39070000D01*
X23322600Y39070000D02*
X33442600Y39070000D01*
X33442600Y39070000D02*
X33442600Y33100000D01*
X33442600Y33100000D02*
X23322600Y33100000D01*
X26632600Y33110000D02*
X26632600Y33860000D01*
X26632600Y33860000D02*
X30132600Y33860000D01*
X30132600Y33860000D02*
X30132600Y33110000D01*
X30132600Y33110000D02*
X26632600Y33110000D01*
X23332600Y33110000D02*
X23332600Y33860000D01*
X23332600Y33860000D02*
X25132600Y33860000D01*
X25132600Y33860000D02*
X25132600Y33110000D01*
X25132600Y33110000D02*
X23332600Y33110000D01*
X31632600Y33110000D02*
X31632600Y33860000D01*
X31632600Y33860000D02*
X33432600Y33860000D01*
X33432600Y33860000D02*
X33432600Y33110000D01*
X33432600Y33110000D02*
X31632600Y33110000D01*
X23332600Y35360000D02*
X24082600Y35360000D01*
X24082600Y35360000D02*
X24082600Y36700000D01*
X28382600Y38310000D02*
X25142600Y38310000D01*
X33432600Y35360000D02*
X32682600Y35360000D01*
X32682600Y35360000D02*
X32682600Y38310000D01*
X32682600Y38310000D02*
X28382600Y38310000D01*
X24282600Y32810000D02*
X23032600Y32810000D01*
X23032600Y32810000D02*
X23032600Y34060000D01*
X8042600Y10270800D02*
X10702600Y10270800D01*
X8042600Y7670800D02*
X8042600Y10270800D01*
X10702600Y7670800D02*
X10702600Y10270800D01*
X8042600Y7670800D02*
X10702600Y7670800D01*
X8042600Y6400800D02*
X8042600Y5070800D01*
X8042600Y5070800D02*
X9372600Y5070800D01*
X20488400Y22742200D02*
G75*
G03X22488400Y22742200I1000000J0D01*
G01*
X22488400Y22742200D02*
X24138400Y22742200D01*
X24138400Y22742200D02*
X24138400Y12462200D01*
X24138400Y12462200D02*
X18838400Y12462200D01*
X18838400Y12462200D02*
X18838400Y22742200D01*
X18838400Y22742200D02*
X20488400Y22742200D01*
D10*
X14938333Y16829020D02*
X14938333Y16114734D01*
X14985952Y15971877D01*
X15081190Y15876639D01*
X15224047Y15829020D01*
X15319285Y15829020D01*
X14557380Y16829020D02*
X13938333Y16829020D01*
X14271666Y16448067D01*
X14128809Y16448067D01*
X14033571Y16400448D01*
X13985952Y16352829D01*
X13938333Y16257591D01*
X13938333Y16019496D01*
X13985952Y15924258D01*
X14033571Y15876639D01*
X14128809Y15829020D01*
X14414523Y15829020D01*
X14509761Y15876639D01*
X14557380Y15924258D01*
X21244180Y28247934D02*
X21958466Y28247934D01*
X22101323Y28295553D01*
X22196561Y28390791D01*
X22244180Y28533648D01*
X22244180Y28628886D01*
X21244180Y27295553D02*
X21244180Y27771743D01*
X21720371Y27819362D01*
X21672752Y27771743D01*
X21625133Y27676505D01*
X21625133Y27438410D01*
X21672752Y27343172D01*
X21720371Y27295553D01*
X21815609Y27247934D01*
X22053704Y27247934D01*
X22148942Y27295553D01*
X22196561Y27343172D01*
X22244180Y27438410D01*
X22244180Y27676505D01*
X22196561Y27771743D01*
X22148942Y27819362D01*
X28715933Y32557620D02*
X28715933Y31843334D01*
X28763552Y31700477D01*
X28858790Y31605239D01*
X29001647Y31557620D01*
X29096885Y31557620D01*
X28287361Y32462381D02*
X28239742Y32510000D01*
X28144504Y32557620D01*
X27906409Y32557620D01*
X27811171Y32510000D01*
X27763552Y32462381D01*
X27715933Y32367143D01*
X27715933Y32271905D01*
X27763552Y32129048D01*
X28334980Y31557620D01*
X27715933Y31557620D01*
X9705933Y4618420D02*
X9705933Y3904134D01*
X9753552Y3761277D01*
X9848790Y3666039D01*
X9991647Y3618420D01*
X10086885Y3618420D01*
X8801171Y4285086D02*
X8801171Y3618420D01*
X9039266Y4666039D02*
X9277361Y3951753D01*
X8658314Y3951753D01*
X22250304Y24289820D02*
X22250304Y23480296D01*
X22202685Y23385058D01*
X22155066Y23337439D01*
X22059828Y23289820D01*
X21869352Y23289820D01*
X21774114Y23337439D01*
X21726495Y23385058D01*
X21678876Y23480296D01*
X21678876Y24289820D01*
X21250304Y24194581D02*
X21202685Y24242200D01*
X21107447Y24289820D01*
X20869352Y24289820D01*
X20774114Y24242200D01*
X20726495Y24194581D01*
X20678876Y24099343D01*
X20678876Y24004105D01*
X20726495Y23861248D01*
X21297923Y23289820D01*
X20678876Y23289820D01*
M02*
